<svg width="24" height="24" viewBox="0 0 24 24" fill="none" xmlns="http://www.w3.org/2000/svg">
<path d="M18.25 19H5.75C4.09 19 2.75 17.66 2.75 16V8C2.75 6.34 4.09 5 5.75 5H18.25C19.91 5 21.25 6.34 21.25 8V16C21.25 17.66 19.91 19 18.25 19Z" stroke="#373435" stroke-width="1.5" stroke-linecap="round" stroke-linejoin="round"/>
<path d="M11.9997 14.5702C13.4191 14.5702 14.5697 13.4196 14.5697 12.0002C14.5697 10.5808 13.4191 9.43018 11.9997 9.43018C10.5803 9.43018 9.42969 10.5808 9.42969 12.0002C9.42969 13.4196 10.5803 14.5702 11.9997 14.5702Z" stroke="#373435" stroke-width="1.5" stroke-linecap="round" stroke-linejoin="round"/>
<path d="M5.84055 13.0302C6.4094 13.0302 6.87054 12.5691 6.87054 12.0002C6.87054 11.4314 6.4094 10.9702 5.84055 10.9702C5.27169 10.9702 4.81055 11.4314 4.81055 12.0002C4.81055 12.5691 5.27169 13.0302 5.84055 13.0302Z" fill="#373435"/>
<path d="M18.1394 13.0302C18.7082 13.0302 19.1694 12.5691 19.1694 12.0002C19.1694 11.4314 18.7082 10.9702 18.1394 10.9702C17.5705 10.9702 17.1094 11.4314 17.1094 12.0002C17.1094 12.5691 17.5705 13.0302 18.1394 13.0302Z" fill="#373435"/>
</svg>
