<?xml version="1.0" encoding="iso-8859-1"?>
<!-- Uploaded to: SVG Repo, www.svgrepo.com, Generator: SVG Repo Mixer Tools -->
<svg height="800px" width="800px" version="1.1" id="Layer_1" xmlns="http://www.w3.org/2000/svg" xmlns:xlink="http://www.w3.org/1999/xlink" 
	 viewBox="0 0 511.999 511.999" xml:space="preserve">
<g>
	<path style="fill:#C3C3C7;" d="M501.634,159.06L268.908,3.909c-3.908-2.605-8.409-3.908-12.909-3.908
		c-4.499,0-9,1.303-12.909,3.908L10.365,159.06C1.832,164.749-1.971,175.352,1,185.169c2.971,9.815,12.018,16.528,22.273,16.528
		h23.273h23.273h23.273h77.575h23.273h23.273h38.788h38.788h23.273h23.273h77.575h23.273h23.273h23.273
		c10.255,0,19.302-6.713,22.273-16.528C513.971,175.352,510.167,164.749,501.634,159.06z"/>
	<path style="fill:#C3C3C7;" d="M488.725,356.848h-23.273H442.18h-23.273h-77.575H318.06h-23.273h-38.788h-38.788h-23.273h-23.273
		H93.091H69.819H46.546H23.274c-12.853,0-23.273,10.418-23.273,23.273v108.605c0,12.853,10.42,23.273,23.273,23.273h232.726h232.726
		c12.853,0,23.273-10.42,23.273-23.273V380.12C511.998,367.266,501.578,356.848,488.725,356.848z"/>
</g>
<g>
	<polygon style="fill:#87868D;" points="93.091,356.848 93.091,201.697 69.819,201.697 46.546,201.697 46.546,356.848 
		69.819,356.848 	"/>
	<polygon style="fill:#87868D;" points="193.939,201.697 170.667,201.697 170.667,356.848 193.939,356.848 217.212,356.848 
		217.212,201.697 	"/>
	<polygon style="fill:#87868D;" points="318.06,201.697 294.787,201.697 294.787,356.848 318.06,356.848 341.332,356.848 
		341.332,201.697 	"/>
	<polygon style="fill:#87868D;" points="418.908,201.697 418.908,356.848 442.18,356.848 465.453,356.848 465.453,201.697 
		442.18,201.697 	"/>
</g>
<path id="SVGCleanerId_0" style="fill:#A9A8AE;" d="M217.212,356.848h-23.273h-23.273H93.091H69.819H46.546H23.274
	c-12.853,0-23.273,10.418-23.273,23.273v108.605c0,12.853,10.42,23.273,23.273,23.273h232.726V356.848H217.212z"/>
<path id="SVGCleanerId_1" style="fill:#A9A8AE;" d="M93.091,201.697h77.575h23.273h23.273h38.788V0.001
	c-4.499,0-9,1.303-12.909,3.908L10.365,159.06C1.832,164.749-1.971,175.352,1,185.169c2.971,9.815,12.018,16.528,22.273,16.528
	h23.273h23.273H93.091z"/>
<path style="fill:#C3C3C7;" d="M488.725,356.848h-23.273V201.697h23.273c10.255,0,19.302-6.713,22.273-16.528
	c2.971-9.816-0.832-20.419-9.365-26.109L268.908,3.91c-3.908-2.605-8.409-3.908-12.909-3.908c-4.499,0-9,1.303-12.909,3.908
	L10.365,159.06C1.832,164.749-1.971,175.352,1,185.169c2.971,9.815,12.018,16.528,22.273,16.528h23.273v155.151H23.274
	c-12.853,0-23.273,10.418-23.273,23.273v108.605c0,12.853,10.42,23.273,23.273,23.273h232.726h232.726
	c12.853,0,23.273-10.42,23.273-23.273V380.12C511.998,367.266,501.578,356.848,488.725,356.848z M93.091,356.848V201.697h77.575
	v155.151H93.091z M255.999,356.848h-38.788V201.697h38.788h38.788v155.151H255.999z M341.332,356.848V201.697h77.575v155.151
	H341.332z"/>
<g>
	<polygon style="fill:#87868D;" points="93.091,356.848 93.091,201.697 69.819,201.697 46.546,201.697 46.546,356.848 
		69.819,356.848 	"/>
	<polygon style="fill:#87868D;" points="193.939,201.697 170.667,201.697 170.667,356.848 193.939,356.848 217.212,356.848 
		217.212,201.697 	"/>
	<polygon style="fill:#87868D;" points="318.06,201.697 294.787,201.697 294.787,356.848 318.06,356.848 341.332,356.848 
		341.332,201.697 	"/>
	<polygon style="fill:#87868D;" points="418.908,201.697 418.908,356.848 442.18,356.848 465.453,356.848 465.453,201.697 
		442.18,201.697 	"/>
</g>
<g>
	<path id="SVGCleanerId_0_1_" style="fill:#A9A8AE;" d="M217.212,356.848h-23.273h-23.273H93.091H69.819H46.546H23.274
		c-12.853,0-23.273,10.418-23.273,23.273v108.605c0,12.853,10.42,23.273,23.273,23.273h232.726V356.848H217.212z"/>
</g>
<g>
	<path id="SVGCleanerId_1_1_" style="fill:#A9A8AE;" d="M93.091,201.697h77.575h23.273h23.273h38.788V0.001
		c-4.499,0-9,1.303-12.909,3.908L10.365,159.06C1.832,164.749-1.971,175.352,1,185.169c2.971,9.815,12.018,16.528,22.273,16.528
		h23.273h23.273H93.091z"/>
</g>
</svg>