<svg width="16" height="16" viewBox="0 0 16 16" fill="none" xmlns="http://www.w3.org/2000/svg">
    <g opacity="0.5" clipPath="url(#clip0_478_34865)">
        <path
            d="M14.6668 8.00016V5.3335C14.6668 3.12436 12.876 1.3335 10.6668 1.3335H5.3335C3.12436 1.3335 1.3335 3.12435 1.3335 5.33349V10.6668C1.3335 12.876 3.12436 14.6668 5.3335 14.6668H6.00016"
            stroke="#0E1218" strokeLinecap="round" />
        <path d="M8 4.6665V7.99984L6 8.6665" stroke="#0E1218" strokeLinecap="round"
            strokeLinejoin="round" />
        <path
            d="M8 12.3332V11.9998C8 11.2635 8.59695 10.6665 9.33333 10.6665V10.6665C10.0697 10.6665 10.6667 11.2635 10.6667 11.9998V11.9998C10.6667 12.4195 10.4691 12.8147 10.1333 13.0665L8 14.6665H10.6667"
            stroke="#0E1218" strokeLinecap="round" strokeLinejoin="round" />
        <path
            d="M12 10.6665V10.6665C12 11.7711 12.8954 12.6665 14 12.6665H14.6667M14.6667 12.6665V10.6665M14.6667 12.6665V14.6665"
            stroke="#0E1218" strokeLinecap="round" strokeLinejoin="round" />
        <path d="M14.6668 7.99984L13.3335 6.6665" stroke="#0E1218" strokeLinecap="round"
            strokeLinejoin="round" />
    </g>
    <defs>
        <clipPath id="clip0_478_34865">
            <rect width="16" height="16" fill="white" />
        </clipPath>
    </defs>
</svg>