<svg width="597" height="810" viewBox="0 0 597 810" fill="none" xmlns="http://www.w3.org/2000/svg">
<g clip-path="url(#clip0_1154_4438)">
<rect width="597" height="810" fill="#EEF0DD"/>
<g clip-path="url(#clip1_1154_4438)">
<path d="M266.853 92.3768V79.3779H269.976V84.4193H274.487V79.3779H277.611V92.3768H274.487V86.8906H269.976V92.3768H266.853Z" fill="black"/>
<path d="M290.104 87.3352C290.104 88.126 289.955 88.8673 289.707 89.5099C289.459 90.1524 289.063 90.6961 288.616 91.1409C288.17 91.5857 287.575 91.9317 286.98 92.1788C286.336 92.426 285.642 92.5248 284.948 92.5248C284.204 92.5248 283.56 92.426 282.915 92.1788C282.271 91.9317 281.725 91.6351 281.279 91.1903C280.833 90.7455 280.486 90.2513 280.189 89.6087C279.941 88.9662 279.792 88.2742 279.792 87.4834C279.792 86.6432 279.941 85.9018 280.189 85.2099C280.436 84.5179 280.833 83.9742 281.279 83.5294C281.725 83.0846 282.32 82.7386 282.915 82.4915C283.56 82.2444 284.254 82.1455 284.948 82.1455C285.691 82.1455 286.336 82.2444 286.98 82.4915C287.625 82.6892 288.17 83.0352 288.616 83.48C289.063 83.9248 289.41 84.4685 289.707 85.0616C289.955 85.7536 290.104 86.4949 290.104 87.3352ZM286.931 87.434C286.931 86.8903 286.881 86.4455 286.782 86.0501C286.683 85.6547 286.534 85.3582 286.336 85.111C286.138 84.8639 285.939 84.7156 285.691 84.5673C285.444 84.4685 285.196 84.4191 284.948 84.4191C284.7 84.4191 284.452 84.4685 284.204 84.5673C283.956 84.6662 283.758 84.8145 283.56 85.0616C283.361 85.3087 283.213 85.6053 283.114 86.0007C283.014 86.3961 282.965 86.8409 282.965 87.434C282.965 88.4225 283.163 89.1639 283.609 89.6582C284.006 90.103 284.502 90.3501 285.047 90.3501C285.295 90.3501 285.543 90.3007 285.791 90.2018C286.038 90.1029 286.237 89.9547 286.435 89.7076C286.633 89.4605 286.782 89.1639 286.881 88.8179C286.881 88.4225 286.931 87.9777 286.931 87.434Z" fill="black"/>
<path d="M295.061 92.3773H291.988V82.4922H294.367L294.714 83.7279C295.16 83.283 295.656 82.9371 296.152 82.6405C296.697 82.3934 297.243 82.2451 297.887 82.2451C299.325 82.2451 300.267 82.7394 300.812 83.7279C301.258 83.283 301.754 82.8876 302.299 82.6405C302.844 82.344 303.439 82.2451 304.084 82.2451C305.125 82.2451 305.968 82.5417 306.563 83.0853C307.158 83.6785 307.455 84.4693 307.455 85.606V92.3773H304.381V85.9026C304.381 85.5072 304.282 85.1612 304.034 84.9141C303.836 84.667 303.539 84.5187 303.142 84.5187C302.795 84.5187 302.448 84.6175 302.101 84.7658C301.754 84.9141 301.456 85.1612 301.209 85.5072V92.3773H298.135V85.9026C298.135 85.5072 298.036 85.1612 297.788 84.9141C297.59 84.667 297.292 84.5187 296.895 84.5187C296.548 84.5187 296.201 84.6175 295.854 84.8152C295.507 85.0129 295.21 85.2601 294.962 85.5566V92.3773H295.061Z" fill="black"/>
<path d="M318.807 88.2746H312.412V88.3735C312.412 89.0654 312.66 89.5597 313.205 89.8562C313.75 90.1528 314.395 90.3505 315.238 90.3505C315.783 90.3505 316.279 90.3011 316.725 90.2022C317.171 90.1034 317.518 89.9551 317.815 89.8068L318.361 91.9321C317.964 92.1298 317.518 92.2781 316.923 92.4263C316.328 92.5746 315.634 92.624 314.841 92.624C314.097 92.624 313.403 92.5252 312.709 92.3275C312.015 92.1298 311.47 91.8332 310.925 91.3884C310.429 90.993 310.032 90.4493 309.735 89.8068C309.437 89.1643 309.289 88.4229 309.289 87.5332C309.289 86.7424 309.388 86.0505 309.636 85.3585C309.883 84.716 310.231 84.1229 310.677 83.6781C311.123 83.2332 311.668 82.8378 312.263 82.5907C312.858 82.3436 313.552 82.1953 314.296 82.1953C315.684 82.1953 316.774 82.5907 317.568 83.4309C318.361 84.2712 318.807 85.408 318.807 86.9401V88.2746ZM315.684 86.1988C315.684 85.9516 315.634 85.7539 315.585 85.5068C315.535 85.3091 315.436 85.1114 315.337 84.9137C315.238 84.7654 315.089 84.6172 314.891 84.5183C314.692 84.4194 314.494 84.37 314.197 84.37C313.701 84.37 313.304 84.5183 313.007 84.8643C312.709 85.2103 312.511 85.6551 312.461 86.2482L315.684 86.1988Z" fill="black"/>
<path d="M325.699 79.3291H328.822V89.9062H333.978V92.328H325.699V79.3291Z" fill="black"/>
<path d="M345.131 87.3352C345.131 88.126 344.983 88.8673 344.735 89.5099C344.487 90.1524 344.09 90.6961 343.644 91.1409C343.198 91.5857 342.603 91.9317 342.008 92.1788C341.364 92.426 340.67 92.5248 339.976 92.5248C339.232 92.5248 338.588 92.426 337.943 92.1788C337.299 91.9317 336.753 91.6351 336.307 91.1903C335.861 90.7455 335.514 90.2513 335.216 89.6087C334.969 88.9662 334.82 88.2742 334.82 87.4834C334.82 86.6432 334.969 85.9018 335.216 85.2099C335.464 84.5673 335.861 83.9742 336.307 83.5294C336.753 83.0846 337.348 82.7386 337.943 82.4915C338.588 82.2444 339.282 82.1455 339.976 82.1455C340.719 82.1455 341.364 82.2444 342.008 82.4915C342.653 82.6892 343.198 83.0352 343.644 83.48C344.09 83.9248 344.437 84.4685 344.735 85.0616C344.983 85.7536 345.131 86.4949 345.131 87.3352ZM341.959 87.434C341.959 86.8903 341.909 86.4455 341.81 86.0501C341.711 85.6547 341.562 85.3582 341.364 85.111C341.165 84.8639 340.967 84.7156 340.719 84.5673C340.471 84.4685 340.224 84.4191 339.976 84.4191C339.728 84.4191 339.48 84.4685 339.232 84.5673C338.984 84.6662 338.786 84.8145 338.588 85.0616C338.389 85.3087 338.241 85.6053 338.141 86.0007C338.042 86.3961 337.993 86.8409 337.993 87.434C337.993 88.4225 338.191 89.1639 338.637 89.6582C339.083 90.1524 339.529 90.3501 340.075 90.3501C340.323 90.3501 340.571 90.3007 340.818 90.2018C341.066 90.1029 341.265 89.9547 341.463 89.7076C341.661 89.4605 341.81 89.1639 341.909 88.8179C342.008 88.4719 341.959 87.9777 341.959 87.434Z" fill="black"/>
<path d="M347.164 83.3325C347.709 82.9865 348.354 82.7394 349.097 82.5417C349.792 82.344 350.535 82.2451 351.279 82.2451C352.518 82.2451 353.51 82.5417 354.253 83.1348C354.997 83.7279 355.393 84.667 355.393 85.952V92.3773H353.063L352.816 91.3888H352.716C352.419 91.7348 352.072 92.0313 351.576 92.2785C351.08 92.5256 350.486 92.6244 349.841 92.6244C349.296 92.6244 348.8 92.5256 348.354 92.3773C347.908 92.229 347.561 91.9819 347.313 91.7348C347.015 91.4382 346.817 91.1417 346.668 90.7463C346.52 90.3509 346.47 89.9555 346.47 89.5601C346.47 88.967 346.619 88.4727 346.867 88.0773C347.114 87.6819 347.461 87.3359 347.908 87.0888C348.354 86.8417 348.85 86.644 349.444 86.4957C350.039 86.3474 350.634 86.298 351.328 86.298H352.369V85.7543C352.369 85.3589 352.221 85.1118 351.973 84.9141C351.725 84.7164 351.328 84.6175 350.833 84.6175C350.436 84.6175 349.99 84.667 349.593 84.8152C349.197 84.9635 348.75 85.1612 348.255 85.4083L347.164 83.3325ZM352.32 88.0773H351.626C351.229 88.0773 350.932 88.1267 350.634 88.2256C350.386 88.275 350.139 88.3739 349.99 88.4727C349.841 88.5716 349.692 88.7198 349.643 88.8681C349.593 89.0164 349.544 89.1647 349.544 89.3129C349.544 89.7578 349.692 90.0543 349.94 90.2026C350.188 90.3509 350.486 90.4497 350.833 90.4497C351.18 90.4497 351.477 90.3509 351.725 90.1532C351.973 89.9555 352.171 89.7578 352.27 89.5106V88.0773H352.32Z" fill="black"/>
<path d="M360.649 92.3773H357.575V82.4922H359.955L360.302 83.7279C360.748 83.283 361.244 82.9371 361.789 82.6405C362.335 82.3934 362.93 82.2451 363.574 82.2451C364.714 82.2451 365.557 82.5417 366.152 83.1348C366.747 83.7279 367.044 84.6175 367.044 85.8037V92.3773H363.971V86.1003C363.971 85.606 363.871 85.2601 363.624 84.9635C363.376 84.667 363.078 84.5187 362.632 84.5187C362.285 84.5187 361.938 84.6175 361.591 84.8152C361.244 85.0129 360.897 85.2601 360.649 85.5566V92.3773Z" fill="black"/>
<path d="M375.62 85.0122C375.224 84.8145 374.877 84.7156 374.431 84.5673C374.034 84.4685 373.637 84.4191 373.241 84.4191C372.894 84.4191 372.596 84.4685 372.348 84.6168C372.15 84.765 372.001 84.9133 372.001 85.111C372.001 85.3582 372.101 85.5559 372.299 85.7041C372.497 85.8524 372.943 86.0501 373.588 86.1984L374.232 86.3961C375.075 86.6432 375.67 86.9892 376.116 87.4834C376.562 87.9777 376.761 88.5708 376.761 89.3122C376.761 89.8064 376.661 90.2513 376.463 90.6467C376.265 91.0421 375.967 91.388 375.571 91.6846C375.174 91.9811 374.728 92.1788 374.183 92.3271C373.637 92.4754 373.042 92.5742 372.398 92.5742C371.704 92.5742 371.059 92.5248 370.514 92.3765C369.969 92.2283 369.473 92.08 368.977 91.8329L369.622 89.6087C370.018 89.8064 370.415 90.0041 370.861 90.103C371.307 90.2513 371.754 90.3007 372.2 90.3007C372.745 90.3007 373.092 90.2018 373.29 90.0536C373.489 89.9053 373.588 89.7076 373.588 89.5099C373.588 89.3616 373.588 89.2628 373.538 89.2133C373.489 89.1145 373.39 89.0156 373.29 88.9662C373.142 88.8673 372.993 88.8179 372.745 88.7191C372.497 88.6202 372.2 88.5708 371.853 88.4225L371.208 88.2248C370.415 87.9777 369.82 87.5823 369.424 87.1375C369.027 86.6926 368.878 86.0501 368.878 85.2593C368.878 84.8145 368.977 84.3696 369.126 84.0237C369.324 83.6283 369.572 83.3317 369.919 83.0352C370.266 82.7386 370.663 82.5409 371.159 82.3926C371.654 82.2444 372.2 82.1455 372.844 82.1455C373.489 82.1455 374.084 82.1949 374.629 82.3432C375.174 82.4421 375.67 82.6398 376.116 82.8375L375.62 85.0122Z" fill="black"/>
<path d="M263.283 79.3779H203V81.5032H263.283V79.3779Z" fill="black"/>
<path fill-rule="evenodd" clip-rule="evenodd" d="M279.445 66.0833C279.445 63.0189 281.775 61.6844 285.047 61.6844C286.435 61.6844 287.476 61.9316 288.467 62.2281V61.981C288.467 60.3994 287.426 59.5097 285.493 59.5097C283.956 59.5097 282.915 59.8063 281.626 60.2511L280.635 57.2856C282.171 56.6431 283.708 56.1982 286.038 56.1982C288.17 56.1982 289.756 56.7419 290.748 57.7304C291.789 58.7684 292.285 60.2511 292.285 62.0799V70.0373H288.467V68.5546C287.526 69.5925 286.187 70.2844 284.303 70.2844C281.577 70.2844 279.445 68.8017 279.445 66.0833ZM288.467 65.1936V64.5511C287.823 64.2546 286.881 64.0074 285.989 64.0074C284.303 64.0074 283.262 64.65 283.262 65.935V65.9844C283.262 67.0718 284.154 67.6649 285.394 67.6649C287.228 67.6155 288.467 66.5776 288.467 65.1936Z" fill="black"/>
<path fill-rule="evenodd" clip-rule="evenodd" d="M293.921 67.4672L296.399 64.5017C298.135 65.8856 299.919 66.8246 302.101 66.8246C303.836 66.8246 304.827 66.1821 304.827 65.0453V64.9959C304.827 63.958 304.183 63.4143 301.01 62.6235C297.143 61.635 294.664 60.5971 294.664 56.8407V56.7419C294.664 53.3316 297.44 51.1074 301.357 51.1074C304.133 51.1074 306.513 51.9477 308.496 53.4798L306.314 56.5936C304.629 55.4074 302.943 54.7649 301.307 54.7649C299.721 54.7649 298.878 55.4568 298.878 56.3959V56.4453C298.878 57.681 299.721 58.0764 303.042 58.9166C306.86 59.9051 309.041 61.2396 309.041 64.5511V64.6005C309.041 68.3568 306.166 70.4327 302.051 70.4327C299.126 70.4327 296.201 69.4442 293.921 67.4672Z" fill="black"/>
<path fill-rule="evenodd" clip-rule="evenodd" d="M310.925 50.3164H314.643V58.4716H314.742C315.684 56.9394 317.32 56.2474 318.708 56.2474C322.674 56.2474 323.666 58.4221 323.666 61.7336V69.9382H319.947V62.3762C319.947 60.2015 319.303 59.1141 317.568 59.1141C315.535 59.1141 314.693 60.2509 314.693 62.9198V69.9382H310.974V50.3164H310.925Z" fill="black"/>
<path d="M241.074 50.3164H236.909V69.9877H241.074V50.3164Z" fill="black"/>
<path fill-rule="evenodd" clip-rule="evenodd" d="M243.602 56.6429H247.171V58.521H247.27C248.212 56.9394 249.848 56.2969 251.435 56.2969C255.401 56.2969 256.392 58.4716 256.392 61.7831V69.9877H252.624V62.4256C252.624 60.2509 251.98 59.1635 250.245 59.1635C248.262 59.1635 247.37 60.2509 247.37 62.9693V69.9877H243.602V56.6429Z" fill="black"/>
<path fill-rule="evenodd" clip-rule="evenodd" d="M268.191 68.3072C267.299 69.7405 265.762 70.3831 264.027 70.3831C259.912 70.3831 257.979 66.9727 257.979 63.2164C257.979 59.6083 259.962 56.2969 263.977 56.2969C265.563 56.2969 267.199 56.9394 267.993 58.2739H268.042V50.3164H271.81V69.9877H268.241V68.3072H268.191ZM264.969 59.0152C262.49 59.0152 261.697 61.1405 261.697 63.3152C261.697 65.4405 262.688 67.6152 264.969 67.6152C267.398 67.6152 268.191 65.49 268.191 63.2658C268.141 61.1405 267.398 59.0152 264.969 59.0152Z" fill="black"/>
<path d="M277.759 56.6436H273.991V70.0378H277.759V56.6436Z" fill="black"/>
<path fill-rule="evenodd" clip-rule="evenodd" d="M328.723 64.2049C328.822 66.5773 329.962 67.6153 332.045 67.6153C333.532 67.6153 334.722 66.7256 334.969 65.8854H338.241C337.2 69.098 334.969 70.3831 331.896 70.3831C327.583 70.3831 324.955 67.5164 324.955 63.3647C324.955 59.3612 327.732 56.2969 331.896 56.2969C336.506 56.2969 338.787 60.1026 338.489 64.2049H328.723ZM334.771 61.8819C334.424 60.0532 333.581 59.0153 331.797 59.0153C329.367 59.0153 328.773 60.844 328.723 61.8819H334.771Z" fill="black"/>
<path d="M343.892 50.3164H340.125V69.9877H343.892V50.3164Z" fill="black"/>
<path fill-rule="evenodd" clip-rule="evenodd" d="M350.883 56.6424H353.609V59.1136H350.883V65.7366C350.883 66.9723 351.18 67.3182 352.469 67.3182C352.915 67.3182 353.312 67.2688 353.659 67.2194V70.0861C353.015 70.1849 352.221 70.1849 351.478 70.1849C349.148 70.1849 347.165 69.7401 347.165 67.0217V59.1136H344.934V56.6424H347.165V51.4033H350.932V56.6424H350.883Z" fill="black"/>
<path fill-rule="evenodd" clip-rule="evenodd" d="M357.822 64.2049C357.922 66.5773 359.062 67.6153 361.144 67.6153C362.631 67.6153 363.821 66.7256 364.069 65.8854H367.341C366.3 69.098 364.069 70.3831 360.995 70.3831C356.682 70.3831 354.055 67.5164 354.055 63.3647C354.055 59.3612 356.831 56.2969 360.995 56.2969C365.606 56.2969 367.886 60.1026 367.589 64.2049H357.822ZM363.871 61.8819C363.524 60.0532 362.681 59.0153 360.896 59.0153C358.467 59.0153 357.872 60.844 357.822 61.8819H363.871Z" fill="black"/>
<path fill-rule="evenodd" clip-rule="evenodd" d="M369.175 56.6429H372.695V59.1141H372.745C373.488 57.4337 375.223 56.2969 377.107 56.2969C377.405 56.2969 377.653 56.3463 377.95 56.3957V59.8061C377.603 59.7072 377.058 59.6578 376.612 59.6578C373.835 59.6578 372.943 61.5854 372.943 63.9578V69.9877H369.225V56.6429H369.175Z" fill="black"/>
<path d="M223.475 64.4033H203V70.0378H223.475V64.4033Z" fill="#E22028"/>
<path d="M234.232 64.4033H224.466V70.0378H234.232V64.4033Z" fill="#E22028"/>
<path d="M234.232 50.3672H225.061V55.9523H234.232V50.3672Z" fill="#E22028"/>
<path d="M234.233 57.4834H213.708V63.1179H234.233V57.4834Z" fill="#E22028"/>
<path fill-rule="evenodd" clip-rule="evenodd" d="M277.908 52.2939L277.958 52.3938H278.058C278.008 52.3439 277.958 52.2939 277.908 52.2939Z" fill="#E22028"/>
<path fill-rule="evenodd" clip-rule="evenodd" d="M277.561 51.6024C277.561 51.6024 277.61 51.6024 277.66 51.6518C277.71 51.6518 277.759 51.6518 277.759 51.6518C277.66 51.7507 277.66 51.7507 277.71 51.8001C277.71 51.8001 277.71 51.8001 277.66 51.8001C277.66 51.7507 277.66 51.7507 277.66 51.7507C277.71 51.7507 277.759 51.7012 277.809 51.7507C277.71 51.8495 277.908 51.8495 277.809 51.9978L277.908 52.0967C277.908 52.1461 277.809 52.0967 277.809 52.0967C277.858 52.1461 277.908 52.1955 277.908 52.1955C277.957 52.1955 278.007 52.2944 278.007 52.2944C278.106 52.2449 278.057 52.1955 278.007 52.1461C277.908 52.0967 277.908 52.0472 278.007 51.9978C277.957 51.9484 277.957 51.899 277.957 51.8495C277.957 51.7507 278.007 51.7507 277.908 51.7012C277.809 51.6024 277.71 51.553 277.561 51.6024Z" fill="#E22028"/>
<path fill-rule="evenodd" clip-rule="evenodd" d="M276.867 54.4189L276.917 54.5188C276.867 54.419 276.867 54.4189 276.867 54.4189Z" fill="#221F1F"/>
<path fill-rule="evenodd" clip-rule="evenodd" d="M277.859 51.5527C277.859 51.6027 277.859 51.6027 277.909 51.6526C277.909 51.6027 277.859 51.5527 277.859 51.5527Z" fill="#E22028"/>
<path fill-rule="evenodd" clip-rule="evenodd" d="M278.206 52.5412C278.206 52.5412 278.107 52.4423 277.958 52.4423C277.859 52.3929 277.71 52.3435 277.66 52.3435C277.66 51.7998 277.462 51.3055 277.115 50.9595C277.165 50.9595 277.214 50.9101 277.264 50.9595L277.214 51.009L277.264 51.1078C277.264 51.1078 277.264 51.1078 277.313 51.1078C277.363 51.1078 277.412 51.1078 277.412 51.1078L277.313 51.1573C277.363 51.1573 277.412 51.1078 277.412 51.1573L277.363 51.2067C277.462 51.1078 277.561 51.2067 277.611 51.2561H277.561C277.561 51.2561 277.611 51.3055 277.66 51.3055C277.71 51.3055 277.76 51.3055 277.76 51.3055C277.71 51.4044 277.561 51.3055 277.66 51.4044L277.512 51.5032C277.611 51.5527 277.512 51.6021 277.611 51.6021C277.71 51.5527 277.66 51.5032 277.71 51.5032C277.611 51.6515 277.809 51.6021 277.859 51.6021C277.859 51.5527 277.859 51.5527 277.76 51.5527C277.76 51.5032 277.859 51.5032 277.859 51.4538H277.76L277.859 51.4044L277.76 51.355C277.859 51.2561 277.71 51.2561 277.859 51.2561C277.76 51.2067 277.809 51.1573 277.71 51.1573C277.76 51.0584 277.809 51.1573 277.809 51.1078C277.611 50.9596 277.462 50.7619 277.313 50.5642L277.363 50.5147C277.313 50.5642 277.264 50.5642 277.264 50.6136C277.264 50.5147 277.264 50.4653 277.214 50.4159C277.165 50.3665 277.115 50.3665 277.016 50.4159L277.065 50.3664C277.016 50.3664 276.966 50.2676 276.966 50.2676C276.917 50.2182 276.867 50.1687 276.818 50.1687C276.718 50.2676 276.718 50.2182 276.718 50.1687C276.669 50.1193 276.619 50.1193 276.57 50.2182L276.619 50.1687C276.669 50.2676 276.52 50.317 276.52 50.4159C276.52 50.2182 276.52 50.2676 276.52 50.1193L276.57 50.1687L276.619 50.0699C276.52 50.2182 276.421 50.1687 276.371 50.1193C276.322 50.0699 276.272 50.0205 276.272 50.0205C276.223 49.971 276.173 50.0205 276.173 50.0699C276.173 50.0699 276.173 50.0699 276.223 50.0205C276.124 49.971 276.074 50.1193 276.024 50.1687C276.024 50.0699 276.074 50.0699 276.124 50.0205C276.024 49.971 275.975 50.0205 275.876 50.0699C275.777 50.0699 275.727 50.1193 275.628 50.0699C275.628 50.1688 275.677 50.1687 275.628 50.2676C275.578 50.2676 275.529 50.1687 275.578 50.1687C275.529 50.0699 275.429 50.1193 275.33 50.1687C275.231 50.2676 275.182 50.2676 275.033 50.2676C274.983 50.3664 275.082 50.3664 274.983 50.5147C274.983 50.4159 274.835 50.3664 274.884 50.2676L274.835 50.2182C274.735 50.2676 274.537 50.317 274.587 50.5642C274.488 50.4653 274.537 50.5642 274.488 50.5147C274.488 50.5642 274.488 50.5147 274.537 50.5147C274.587 50.663 274.438 50.5642 274.438 50.6136V50.5642C274.438 50.5642 274.438 50.6136 274.388 50.6136C274.388 50.663 274.388 50.7124 274.388 50.7124C274.388 50.7124 274.339 50.7124 274.289 50.663L274.388 50.7619C274.339 50.8113 274.289 50.663 274.24 50.7619L274.339 50.8113C274.24 50.8113 274.289 50.9101 274.24 50.8607C274.091 50.7619 274.141 51.009 274.091 51.009L274.24 51.1078C274.24 51.2067 274.141 51.1573 274.141 51.1078C274.091 51.1573 274.041 51.1078 274.041 51.2067C274.041 51.2561 274.091 51.2561 274.141 51.3055L274.041 51.355L273.942 51.2561C274.041 51.355 274.041 51.4044 273.942 51.4538C273.942 51.5527 273.893 51.5527 273.992 51.6515C273.942 51.6515 273.893 51.5527 273.893 51.5527C273.843 51.6021 273.843 51.6515 273.843 51.7504C273.893 51.8492 273.893 51.8986 273.794 51.9481C273.694 52.0469 273.694 52.0963 273.694 52.1952C273.694 52.294 273.694 52.3929 273.645 52.4917H273.694L273.645 52.5906C273.744 52.64 273.744 52.7389 273.843 52.7389C273.793 52.7389 273.744 52.7883 273.744 52.7883C273.793 52.8377 273.843 52.8871 273.794 52.9366L273.744 52.8871C273.744 52.986 273.744 53.0354 273.744 53.1343C273.793 53.1837 273.843 53.2331 273.893 53.2331C273.893 53.2825 273.794 53.332 273.794 53.332C273.843 53.4308 273.893 53.4308 273.942 53.4802C273.942 53.4802 273.942 53.5297 273.893 53.5791L273.992 53.5297C273.992 53.5791 273.893 53.5791 273.893 53.6285C273.992 53.6779 273.992 53.7274 273.992 53.7768C274.041 53.8262 274.041 53.8756 274.091 53.8756L274.141 53.8262C274.19 53.8262 274.19 53.9251 274.091 53.9251C274.141 54.0239 274.19 54.0239 274.289 54.0239C274.388 54.0239 274.438 54.0733 274.537 54.1228C274.438 54.2216 274.537 54.2216 274.587 54.2216C274.636 54.271 274.686 54.271 274.587 54.3699C274.686 54.3699 274.735 54.4687 274.884 54.4193C274.835 54.4193 274.835 54.4193 274.835 54.4193C274.835 54.5182 274.983 54.5182 275.082 54.5182V54.617C275.182 54.5182 275.33 54.617 275.38 54.4687C275.38 54.5182 275.33 54.5676 275.33 54.5676C275.33 54.7159 275.429 54.5182 275.479 54.5676C275.429 54.617 275.429 54.6664 275.429 54.6664C275.529 54.7653 275.677 54.7653 275.777 54.7653C275.876 54.7159 275.925 54.7159 275.975 54.7159C276.074 54.7159 276.124 54.7159 276.223 54.7159C276.322 54.7159 276.173 54.5676 276.272 54.5676C276.322 54.6664 276.272 54.7159 276.322 54.7653C276.371 54.6665 276.371 54.6664 276.421 54.6664C276.421 54.7159 276.421 54.7653 276.371 54.7653C276.421 54.8147 276.471 54.7653 276.471 54.7159C276.52 54.6664 276.57 54.6664 276.57 54.7159C276.57 54.6664 276.57 54.617 276.57 54.617C276.619 54.5182 276.669 54.5676 276.718 54.5676C276.768 54.617 276.818 54.617 276.818 54.617C276.818 54.617 276.867 54.5676 276.818 54.5676C276.867 54.5182 276.917 54.5182 276.917 54.617C276.917 54.5676 276.917 54.5182 276.917 54.5182L276.966 54.617C276.966 54.5676 276.966 54.5182 276.966 54.5182H276.917C277.016 54.5676 277.016 54.3699 277.016 54.5182H277.115C277.115 54.4688 277.115 54.4193 277.165 54.4193C277.264 54.5182 277.313 54.3205 277.363 54.3205L277.412 54.3699C277.412 54.271 277.512 54.1722 277.512 54.1722C277.561 54.1722 277.611 54.1228 277.611 54.1722C277.611 54.1228 277.71 54.0733 277.611 53.9745H277.71C277.76 54.0239 277.809 54.0239 277.809 54.0239C277.66 53.8262 277.958 53.9251 277.76 53.7768C277.859 53.7274 277.859 53.7768 277.908 53.7768C277.809 53.6779 277.908 53.6285 277.958 53.5791H278.007C278.057 53.4802 277.958 53.3814 278.007 53.2825L278.156 53.332C278.156 53.2825 278.057 53.2331 278.057 53.1837C278.107 53.1837 278.107 53.2331 278.107 53.2331C278.057 53.1837 278.156 53.1343 278.206 53.1343C278.107 53.0354 278.156 52.986 278.057 52.8871C278.206 52.8377 278.107 52.986 278.255 52.986C278.354 52.8871 278.305 52.7883 278.206 52.6894C278.156 52.4917 278.156 52.5412 278.206 52.5412Z" fill="#E22028"/>
</g>
<g clip-path="url(#clip2_1154_4438)">
<path d="M1473.8 586.451C1164.52 586.451 1000.86 361.265 645.622 361.265C479.276 361.265 198.55 424.029 37.3446 424.029C-202.341 424.029 -253.635 281.766 -335.07 212.597V256.244C-287.897 271.14 -264.733 313.347 -259.346 353.493C-258.75 357.987 -257.409 357.019 -253.859 357.739C-199.387 368.614 -209.665 492.727 -22.9617 492.727C109.444 492.727 332.868 420.106 490.126 420.106C780.51 420.106 973.346 635.287 1365.62 635.287C1477.35 635.287 1582.72 602.887 1800.11 517.455V452.581C1697.64 523.116 1588.35 586.451 1473.8 586.451Z" fill="#D9DDA6"/>
<path d="M1738.33 591.02C1732.13 591.02 1729.65 588.115 1721.28 588.115C1680.51 588.115 1516.15 679.977 1368.11 679.977C1027.69 679.977 814.449 440.391 448.241 440.391C348.385 440.391 334.034 495.632 282.517 495.632C271.965 495.632 270.103 490.046 254.586 490.046C203.689 490.046 121.013 563.039 2.58554 563.039C-133.966 563.039 -170.339 460.153 -230 400.493C-245.691 384.777 -264.46 372.313 -288.047 372.313C-290.852 372.313 -292.466 371.643 -292.838 367.695C-295.917 335.246 -315.531 317.817 -335.045 314.291V481.083C-274.118 530.018 -140.446 594.57 7.55109 594.57C172.953 594.57 417.207 506.184 581.069 506.184C869.07 506.184 1191.83 761.908 1488.37 761.908C1608.93 761.908 1762.14 676.079 1800.11 639.756V573.367C1773.09 567.955 1747.32 591.02 1738.33 591.02Z" fill="#F5F9D1"/>
<path d="M1436.38 788.473C1330.94 788.473 1115.24 721.588 1016.22 687.872C791.608 611.403 679.685 547.322 518.181 547.248C346.176 547.248 135.985 637.819 8.49493 637.819C-199.784 637.77 -182.33 461.493 -335.07 433.165V628.981C-289.635 624.015 -245.69 625.48 -228.981 642.313C-224.537 646.757 -222.402 652.244 -218.554 656.092C-216.911 657.735 -214.942 659.014 -212.773 659.848C-210.605 660.682 -208.286 661.052 -205.966 660.934C-176.173 660.934 -161.276 649.314 -111.621 649.314C-38.33 649.314 62.3461 746.986 163.966 746.986C243.116 746.986 307.494 694.352 403.527 694.401C540.079 694.401 668.96 787.828 807.796 787.828C876.494 787.828 905.343 765.483 993.208 765.483C1167 765.483 1279.84 907.795 1487.28 907.795C1562.75 907.795 1621.35 879.963 1647.44 853.795C1681.43 819.806 1665.71 785.643 1696.77 754.484C1721.6 729.657 1762.69 723.226 1800.11 720.768V682.459C1739.7 702.321 1615.84 788.473 1436.38 788.473Z" fill="#DDEBBE"/>
<path opacity="0.15" d="M1362.37 808.311C1062.73 808.311 864.105 600.529 630.725 600.529C466.863 600.529 302.38 711.434 125.88 711.434C-18.17 711.434 -158.794 598.046 -208.449 598.046C-220.863 598.046 -223.867 604.029 -227.814 604.029C-228.315 604.053 -228.814 603.962 -229.274 603.764C-229.735 603.567 -230.144 603.267 -230.471 602.887C-235.213 598.046 -268.432 520.807 -335.07 511.993V655.993C-304.719 644.182 -272.473 637.99 -239.906 637.72C-60.8238 637.72 46.0095 778.518 236.785 778.518C393.547 778.518 566.844 682.385 769.735 682.385C1008.08 682.385 1201.74 885.624 1465.78 885.624C1658.71 885.624 1661.05 713.941 1792.63 713.941C1795.12 713.941 1797.6 714.016 1800.08 714.165V607.977C1600.24 641.494 1502.17 808.311 1362.37 808.311Z" fill="white"/>
<path opacity="0.15" d="M1340.8 610.459C1014.81 610.459 916.243 362.183 558.725 362.183C406.879 362.183 251.88 439.148 134.172 439.148C-148.863 439.148 -138.932 161.973 -335.07 161.973V210.039C-250.656 296.365 -208.995 369.283 -184.987 393.292C-157.304 420.974 -138.584 414.668 -125.4 427.777C-112.714 440.464 -127.039 478.252 -108.741 496.575C-99.2073 506.183 -81.828 513.631 -57.0004 513.631C115.651 513.631 377.483 377.079 523.966 377.079C697.76 377.079 911.277 620.39 1334.27 620.39C1510.54 620.39 1678.18 565.769 1800.11 493.124V427.728C1643.15 593.08 1448.32 610.459 1340.8 610.459Z" fill="white"/>
</g>
<g clip-path="url(#clip3_1154_4438)">
<path d="M197.203 424.287H156.802V496.752H197.203V424.287Z" fill="#86A475"/>
<path fill-rule="evenodd" clip-rule="evenodd" d="M156.802 424.287H197.203L210.75 401.517H170.348L156.802 424.287Z" fill="#373435"/>
<path d="M224.296 424.287H197.203V496.752H224.296V424.287Z" fill="white"/>
<path fill-rule="evenodd" clip-rule="evenodd" d="M197.203 424.287H224.296L210.75 401.517L197.203 424.287Z" fill="white"/>
<path d="M42.7732 433.368H0.00292969V486.922H42.7732V433.368Z" fill="#86A475"/>
<path fill-rule="evenodd" clip-rule="evenodd" d="M0.00170898 433.37H42.772L57.1121 421.309H14.3433L0.00170898 433.37Z" fill="#373435"/>
<path d="M71.4521 433.368H42.772V486.922H71.4521V433.368Z" fill="white"/>
<path fill-rule="evenodd" clip-rule="evenodd" d="M42.772 433.37H71.4536L57.112 421.309L42.772 433.37Z" fill="white"/>
<path d="M135.369 443.676H71.4519V505.378H135.369V443.676Z" fill="#86A475"/>
<path fill-rule="evenodd" clip-rule="evenodd" d="M71.4531 443.676H135.37L156.801 424.287H92.8839L71.4531 443.676Z" fill="#373435"/>
<path d="M178.232 443.676H135.371V505.378H178.232V443.676Z" fill="white"/>
<path d="M160.252 452.815H153.349V462.979H160.252V452.815Z" fill="#703B19"/>
<path d="M61.8981 437.812H54.9956V447.976H61.8981V437.812Z" fill="#703B19"/>
<path d="M61.8981 456.149H54.9956V466.313H61.8981V456.149Z" fill="#703B19"/>
<path d="M215.263 426.144H208.361V436.307H215.263V426.144Z" fill="#703B19"/>
<path d="M270.275 444.48H263.373V454.644H270.275V444.48Z" fill="#703B19"/>
<path fill-rule="evenodd" clip-rule="evenodd" d="M135.371 443.676H178.232L156.802 424.287L135.371 443.676Z" fill="white"/>
<path fill-rule="evenodd" clip-rule="evenodd" d="M236.354 388.976C219.794 388.108 214.22 501.023 214.22 501.023H255.95C255.95 501.023 252.398 389.817 236.354 388.976Z" fill="#DCE080"/>
<path fill-rule="evenodd" clip-rule="evenodd" d="M9.64031 388.976C-6.91973 388.108 -12.4932 501.023 -12.4932 501.023H29.2363C29.2363 501.023 25.6843 389.817 9.64031 388.976Z" fill="#DCE080"/>
<path fill-rule="evenodd" clip-rule="evenodd" d="M275.959 350.447C251.669 352.055 263.924 494.294 263.924 494.294L296.67 499.205C296.67 499.205 292.84 349.321 275.959 350.447Z" fill="#A2BC07"/>
<path fill-rule="evenodd" clip-rule="evenodd" d="M259.074 377.057C242.512 376.189 236.94 489.105 236.94 489.105H278.668C278.668 489.105 275.118 377.893 259.074 377.057Z" fill="#C3CE54"/>
<path fill-rule="evenodd" clip-rule="evenodd" d="M23.2655 422.03C13.3412 421.514 10.0022 488.708 10.0022 488.708H35.0074C35.0074 488.708 32.8798 422.528 23.2655 422.03Z" fill="#C3CE54"/>
<path fill-rule="evenodd" clip-rule="evenodd" d="M608.604 510.448C580.028 498.478 560.601 484.711 494.16 503.597C442.517 518.276 270.087 483.652 198.393 477.106C150.774 472.764 -13.4856 484.024 -29.9177 493.811L-63.5303 578.854V633.748H786.083V508.007C701.548 502.687 663.912 533.615 608.604 510.448Z" fill="#C3CE54"/>
<path fill-rule="evenodd" clip-rule="evenodd" d="M608.604 510.448C580.028 498.478 560.601 484.711 494.16 503.597C442.517 518.276 270.087 483.652 198.393 477.106C150.774 472.764 -13.4856 484.024 -29.9177 493.811L-63.5303 578.854V633.748H786.083V508.007C701.548 502.687 663.912 533.615 608.604 510.448Z" fill="#EFEF9A"/>
<path fill-rule="evenodd" clip-rule="evenodd" d="M592.726 523.249C564.15 511.279 544.723 497.511 478.281 516.396C426.639 531.076 260.865 485.392 189.17 478.845C141.559 474.496 -29.3637 496.822 -45.7959 506.609L-79.4084 591.652V646.539H770.205L786.068 524.601C701.533 519.281 648.034 546.42 592.726 523.249Z" fill="#F5F9D1"/>
<g clip-path="url(#clip4_1154_4438)">
<path fill-rule="evenodd" clip-rule="evenodd" d="M524.675 462.048C494.306 463.02 474.079 523.348 495.963 535.085C515.243 545.425 520.452 524.26 531.36 531.484C544.243 540.019 560.561 539.292 568.541 524.903C582.056 500.537 550.619 461.228 524.675 462.048Z" fill="#C3CE54"/>
<path fill-rule="evenodd" clip-rule="evenodd" d="M524.676 462.048C513.463 462.407 503.63 470.859 496.788 481.969C505.658 473.953 516.385 468.871 526.998 470.317C549.964 473.451 571.441 504.756 566.848 527.575C567.462 526.716 568.026 525.822 568.537 524.897C582.057 500.537 550.619 461.228 524.676 462.048Z" fill="#C3CE54"/>
<path d="M558.792 500.893C558.774 500.893 556.934 501.897 553.681 502.619C550.95 503.221 546.681 503.754 541.348 503.036C545.749 498.9 550.328 495.561 553.23 493.941C553.364 493.876 553.482 493.782 553.576 493.667C553.67 493.551 553.738 493.417 553.776 493.272C553.814 493.128 553.82 492.976 553.795 492.829C553.77 492.682 553.713 492.542 553.629 492.419C553.436 492.164 553.159 491.988 552.848 491.923C552.537 491.858 552.213 491.908 551.936 492.065C545.918 495.424 533.769 505.18 528.771 515.034C528.649 514.532 528.525 514.036 528.398 513.546C527.601 510.395 526.618 507.295 525.456 504.262C525.512 504.122 525.535 503.971 525.524 503.82C525.524 503.663 524.558 488.043 538.458 473.728C538.563 473.624 538.644 473.498 538.696 473.358C538.748 473.219 538.769 473.069 538.757 472.921C538.746 472.772 538.703 472.628 538.63 472.498C538.558 472.369 538.458 472.256 538.338 472.169C538.084 471.976 537.769 471.88 537.451 471.9C537.133 471.919 536.833 472.053 536.603 472.276C529 480.111 525.725 488.28 524.317 493.757C523.845 495.579 523.497 497.432 523.275 499.302C521.582 495.904 519.685 493.034 517.584 490.693C517.362 490.462 517.066 490.318 516.749 490.288C516.431 490.258 516.114 490.343 515.853 490.528C515.73 490.61 515.625 490.718 515.548 490.845C515.47 490.971 515.421 491.114 515.403 491.262C515.386 491.409 515.401 491.559 515.447 491.701C515.493 491.843 515.569 491.972 515.67 492.081C520.767 497.751 524.663 507.002 527.209 519.332C525.833 518.034 523.909 516.268 521.325 513.994C515.947 509.264 510.369 506.293 504.71 505.154C504.046 505.021 503.389 505.397 503.24 505.992C503.09 506.586 503.509 507.177 504.172 507.312C509.369 508.354 514.56 511.129 519.602 515.569C524.711 520.063 527.239 522.58 527.968 523.324C529.01 529.467 529.731 535.662 530.127 541.881C530.863 553.2 530.877 564.554 530.167 575.874C530.12 576.477 530.631 577.011 531.309 577.054H531.396C532.036 577.054 532.578 576.608 532.621 576.025C533.337 564.618 533.325 553.176 532.586 541.771C532.016 533.321 531.024 525.646 529.627 518.868C529.756 518.751 529.855 518.604 529.914 518.44C531.568 513.881 535.257 509.12 539.364 504.959C551.946 507.145 559.752 502.95 560.081 502.763C560.214 502.698 560.331 502.605 560.425 502.49C560.518 502.375 560.586 502.241 560.624 502.097C560.662 501.953 560.669 501.802 560.644 501.656C560.619 501.509 560.563 501.369 560.479 501.246C560.286 500.994 560.01 500.82 559.7 500.756C559.391 500.691 559.069 500.739 558.792 500.893Z" fill="#7C9E00"/>
</g>
<path d="M483.389 476.094H419.472V614.646H483.389V476.094Z" fill="#86A475"/>
<path fill-rule="evenodd" clip-rule="evenodd" d="M419.472 476.093H483.389L504.82 446.587H440.903L419.472 476.093Z" fill="#373435"/>
<path d="M526.251 476.094H483.389V614.646H526.251V476.094Z" fill="white"/>
<path d="M511.459 485.154H501.515V506.52H511.459V485.154Z" fill="#703B19"/>
<path fill-rule="evenodd" clip-rule="evenodd" d="M483.389 476.093H526.251L504.82 446.587L483.389 476.093Z" fill="white"/>
<path fill-rule="evenodd" clip-rule="evenodd" d="M681.554 575.208C594.519 567.743 592.167 541.081 523.951 534.681C409.153 523.914 399.28 553.879 300.485 550.68C240.232 548.727 163.309 504.888 112.236 487.215C-11.5098 444.391 -96.0022 470.119 -96.0022 470.119V820.902H786.068V566.095C786.068 566.095 732.36 579.567 681.554 575.208Z" fill="#DDEBBE"/>
<g clip-path="url(#clip5_1154_4438)">
<path fill-rule="evenodd" clip-rule="evenodd" d="M139.598 550.857C122.42 549.957 116.639 667.085 116.639 667.085H159.925C159.925 667.085 156.241 551.729 139.598 550.857Z" fill="#DCE080"/>
<path fill-rule="evenodd" clip-rule="evenodd" d="M180.681 510.889C155.485 512.558 168.197 660.104 168.197 660.104L202.164 665.198C202.164 665.198 198.192 509.721 180.681 510.889Z" fill="#A2BC07"/>
<path fill-rule="evenodd" clip-rule="evenodd" d="M163.166 538.491C145.986 537.592 140.207 654.72 140.207 654.72H183.491C183.491 654.72 179.808 539.359 163.166 538.491Z" fill="#C3CE54"/>
<path fill-rule="evenodd" clip-rule="evenodd" d="M540.978 568.06C558.156 567.16 563.938 684.288 563.938 684.288H520.651C520.651 684.288 524.336 568.932 540.978 568.06Z" fill="#DCE080"/>
<path fill-rule="evenodd" clip-rule="evenodd" d="M499.895 528.092C525.092 529.761 512.379 677.307 512.379 677.307L478.412 682.401C478.412 682.401 482.385 526.924 499.895 528.092Z" fill="#A2BC07"/>
<path fill-rule="evenodd" clip-rule="evenodd" d="M517.411 555.697C534.59 554.797 540.37 671.925 540.37 671.925H497.085C497.085 671.925 500.768 556.564 517.411 555.697Z" fill="#C3CE54"/>
<path d="M453.324 638.044H514.947V530.319L444.713 504.88L446.811 631.192L453.324 638.044Z" fill="#CC2F33"/>
<path d="M454.674 631.192L453.999 517.308L514.948 531.026V528.555L445.462 504.279V628.277L452.052 632.92L454.674 631.192Z" fill="#C94242"/>
<path d="M445.715 564.629L445.76 567.274H458.425V580.399H445.976L446.022 583.047H451.012V595.358H446.224L446.27 598.006H458.425V608.196H446.438L446.483 610.844H514.958V608.196H509.108V598.006H514.949V595.358H453.4V583.047H514.949V580.399H509.108V567.274H514.949V564.629H453.4V551.501H514.949V548.856H509.108V537.49H514.949V537.373L509.484 534.843H494.622V527.968L492.225 526.858V534.828H475.191V524.842H487.895L482.179 522.195H460.802V512.323L458.405 511.216V522.209H445.003V522.921L445.034 524.857H450.992V534.843H445.202L445.245 537.49H458.405V548.856H445.433L445.478 551.501H450.992V564.629H445.715ZM460.802 598.006H506.703V608.196H460.802V598.006ZM460.802 567.262H506.703V580.388H460.802V567.262ZM506.703 537.478V548.845H460.802V537.478H506.703ZM453.389 534.831V524.845H472.783V534.831H453.389Z" fill="#993030"/>
<path d="M514.95 620.676H446.637L446.683 623.32H458.42V635.76H460.814V623.32H506.715V635.76H509.112V623.32H514.95V620.676Z" fill="#B03737"/>
<path d="M516.219 631.191H449.11V638.043H516.219V631.191Z" fill="#DEAA8C"/>
<path d="M442.524 511.556L517.22 531.71L518.51 526.718L505.741 523.487L506.681 521.041L484.43 517.08L485.13 514.564L461.592 511.056L462.435 508.058L441.28 504.474L442.524 511.556Z" fill="#A13329"/>
<path d="M448.331 512.351V491.699H180.848V625.236H449.507L448.331 512.351ZM305.432 599.172H199.118V523.405H305.444L305.432 599.172ZM429.427 599.323H323.112V523.547H429.438L429.427 599.323Z" fill="#E33439"/>
<path d="M305.465 554.55V557.846H323.137V554.55H320.196V545.762H323.137V542.466H305.465V545.762H317.615V554.55H305.465Z" fill="#B03737"/>
<path d="M199.143 567.426H190.475V557.844H199.143V554.548H180.871V557.844H187.891V567.426H180.871V570.722H199.143V567.426Z" fill="#B03737"/>
<path d="M439.87 545.762H448.703L448.669 542.466H429.463V545.762H437.288V554.55H429.463V557.846H448.828L448.794 554.55H439.87V545.762Z" fill="#B03737"/>
<path d="M305.465 581.704V584.998H323.137V581.704H320.196V570.725H323.137V567.429H305.465V570.725H317.615V581.704H305.465Z" fill="#B03737"/>
<path d="M180.87 504.278H187.89V515.511H180.87V518.804H198.448V529.587H180.87V532.881H187.89V542.465H180.87V545.759H199.139V542.465H190.472V532.881H199.139V523.405H201.03V518.804H221.972V523.405H224.554V518.804H246.453V523.405H249.037V518.804H269.14V523.405H271.725V518.804H292.895V523.405H295.48V518.804H317.617V529.587H305.468V532.881H323.14V529.587H320.199V518.804H341.626V523.553H344.208V518.804H365.352V523.553H367.934V518.804H391.561V523.553H394.145V518.804H415.802V523.553H418.387V518.804H437.291V529.587H429.469V532.881H448.561L448.527 529.587H439.864V518.804H448.404L448.37 515.511H430.249V504.278H448.336V500.985H439.853V491.699H437.268V500.985H418.387V491.699H415.802V500.985H394.145V491.699H391.561V500.985H367.934V491.699H365.352V500.985H344.205V491.699H341.623V500.985H320.197V491.699H317.617V500.985H295.491V491.699H292.906V500.985H271.736V491.699H269.151V500.985H249.049V491.699H246.453V500.985H224.551V491.699H221.972V500.985H201.024V491.699H198.442V500.985H180.864L180.87 504.278ZM406.036 504.278H427.695V515.511H406.036V504.278ZM381.72 504.278H403.454V515.511H381.72V504.278ZM356.337 504.278H379.138V515.511H356.331L356.337 504.278ZM332.619 504.278H353.755V515.511H332.619V504.278ZM308.061 504.278H330.037V515.511H308.061V504.278ZM284.381 504.278H305.477V515.511H284.369L284.381 504.278ZM260.401 504.278H281.796V515.511H260.401V504.278ZM237.432 504.278H257.816V515.511H237.432V504.278ZM212.834 504.278H234.85V515.511H212.834V504.278ZM190.483 504.278H210.252V515.511H190.483V504.278Z" fill="#B03737"/>
<path d="M448.962 570.725L448.928 567.429H429.463V570.725H437.288V581.704H429.463V584.998H449.11L449.076 581.704H439.87V570.725H448.962Z" fill="#B03737"/>
<path d="M449.372 609.983L449.338 606.687H439.87V597.862H449.244L449.21 594.569H429.463V597.862H437.285V606.687H418.387V599.328H415.802V606.687H394.145V599.328H391.561V606.687H367.934V599.328H365.352V606.687H344.205V599.328H341.623V606.687H320.197V597.862H323.137V594.569H305.465V597.862H317.617V606.687H295.491V599.177H292.906V606.687H271.736V599.177H269.151V606.687H249.049V599.177H246.453V606.687H224.551V599.177H221.972V606.687H201.024V599.177H199.134V594.58H190.466V584.993H199.134V581.696H180.864V584.993H187.884V594.577H180.864V597.871H198.442V606.695H180.864V609.991H187.884V619.576H180.864V622.852H198.442V625.226H201.024V622.852H221.972V625.226H224.554V622.852H246.453V625.226H249.037V622.852H269.14V625.226H271.725V622.852H292.895V625.226H295.48V622.852H317.617V625.226H320.199V622.852H341.626V625.226H344.207V622.852H365.577V625.226H368.159V622.852H391.558V625.226H394.142V622.852H415.799V625.226H418.387V622.852H437.291V625.226H439.876V622.852H449.512L449.477 619.559H428.128V609.974L449.372 609.983ZM210.213 619.567H190.472V609.983H210.213V619.567ZM233.555 619.567H212.775V609.983H233.555V619.567ZM256.843 619.567H236.148V609.983H256.851L256.843 619.567ZM280.578 619.567H259.433V609.983H280.586L280.578 619.567ZM304.52 619.567H283.171V609.983H304.52V619.567ZM329.118 619.567H307.114V609.983H329.126L329.118 619.567ZM353.476 619.567H331.702V609.983H353.485L353.476 619.567ZM378.967 619.567H356.061V609.983H378.967V619.567ZM403.163 619.567H381.558V609.983H403.163V619.567ZM425.549 619.567H405.745V609.983H425.549V619.567Z" fill="#B03737"/>
<path d="M307.089 521.652H197.469V601.397H307.089V521.652Z" fill="#FFF4E3"/>
<path d="M300.798 528.503H204.432V593.758H300.798V528.503Z" fill="#B6D4D3"/>
<path d="M236.106 525.693H233.561V596.827H236.106V525.693Z" fill="#FFF4E3"/>
<path d="M268.453 525.956H265.908V597.09H268.453V525.956Z" fill="#FFF4E3"/>
<path d="M432.733 521.37H323.114V601.115H432.733V521.37Z" fill="#FFF4E3"/>
<path d="M426.442 528.223H330.077V593.478H426.442V528.223Z" fill="#B6D4D3"/>
<path d="M361.749 525.413H359.204V596.547H361.749V525.413Z" fill="#FFF4E3"/>
<path d="M394.098 525.677H391.553V596.81H394.098V525.677Z" fill="#FFF4E3"/>
<path d="M180.848 491.7L321.914 407.839L448.331 491.7H180.848Z" fill="#A3C58F"/>
<path d="M180.847 491.699L171.411 496.942L167.369 489.752L184.739 482.114L183.093 478.371L210.648 467.89L209 464.446L236.105 453.663L234.833 449.769L262.462 439.287L259.917 435.393L287.919 424.01L285.374 419.817L321.913 401.997V407.838L180.847 491.699Z" fill="#A13329"/>
<path d="M321.914 407.838L452.428 494.472L455.795 488.181L439.174 477.847L440.369 474.927L418.357 466.242L420.455 463.395L399.487 453.663L402.034 450.366L376.651 438.237L378.262 434.793L354.411 422.364L356.66 418.47L321.914 401.997V407.838Z" fill="#A13329"/>
<path d="M256.321 446.833L254.411 447.969V491.701H256.321V446.833Z" fill="#78A85C"/>
<path d="M270.418 438.451L268.508 439.587V491.7H270.418V438.451Z" fill="#78A85C"/>
<path d="M285.3 429.604L283.39 430.739V491.699H285.3V429.604Z" fill="#78A85C"/>
<path d="M300.686 420.458L298.776 421.594V491.7H300.686V420.458Z" fill="#78A85C"/>
<path d="M428.484 478.534V491.7H430.394V479.801L428.484 478.534Z" fill="#78A85C"/>
<path d="M196.12 482.622V491.7H198.03V481.486L196.12 482.622Z" fill="#78A85C"/>
<path d="M213.419 472.337L211.509 473.473V491.699H213.419V472.337Z" fill="#78A85C"/>
<path d="M227.907 463.723L225.997 464.858V491.699H227.907V463.723Z" fill="#78A85C"/>
<path d="M241.273 455.778L239.363 456.914V491.699H241.273V455.778Z" fill="#78A85C"/>
<path d="M401.097 460.366V491.699H403.007V461.633L401.097 460.366Z" fill="#78A85C"/>
<path d="M312.368 413.513V491.7H314.275V412.38L312.368 413.513Z" fill="#78A85C"/>
<path d="M415.774 470.104L413.864 468.837V491.701H415.774V470.104Z" fill="#78A85C"/>
<path d="M374.028 442.411L372.118 441.145V491.7H374.028V442.411Z" fill="#78A85C"/>
<path d="M389.417 452.619L387.507 451.353V491.7H389.417V452.619Z" fill="#78A85C"/>
<path d="M328.092 411.936V491.7H329.999V413.202L328.092 411.936Z" fill="#78A85C"/>
<path d="M345.051 423.188L343.144 421.921V491.699H345.051V423.188Z" fill="#78A85C"/>
<path d="M359.147 432.539L357.237 431.272V491.7H359.147V432.539Z" fill="#78A85C"/>
<path d="M453.327 624.34H177.592V638.043H453.327V624.34Z" fill="#DEAA8C"/>
<path d="M500.944 533.781H462.757V634.417H500.944V533.781Z" fill="#FFF4E3"/>
<path d="M497.728 536.477H465.53V631.191H497.728V536.477Z" fill="#ABA398"/>
<path d="M496.791 537.151H466.241V630.599H496.791V537.151Z" fill="#FFF4E3"/>
<path d="M493.421 539.848H469.385V626.33H493.421V539.848Z" fill="#E6DBCB"/>
<path d="M491.851 541.418H470.285V624.339H491.851V541.418Z" fill="#FFF4E3"/>
<path d="M492.487 582.04H469.686V584.699H492.487V582.04Z" fill="#E6DBCB"/>
<path d="M482.413 540.633H481.067V625.769H482.413V540.633Z" fill="#E6DBCB"/>
<path d="M453.323 631.191V638.043H454.476L454.673 631.191H453.323Z" fill="#C4967C"/>
<path d="M548.792 638.044H153.44V644.452H548.792V638.044Z" fill="#78801E"/>
<path fill-rule="evenodd" clip-rule="evenodd" d="M196.057 599.611C178.879 598.711 173.097 715.839 173.097 715.839H216.384C216.384 715.839 212.699 600.483 196.057 599.611Z" fill="#DCE080"/>
<path fill-rule="evenodd" clip-rule="evenodd" d="M275.359 599.612C250.163 601.28 262.875 748.827 262.875 748.827L296.842 753.92C296.842 753.92 292.869 598.444 275.359 599.612Z" fill="#A2BC07"/>
<path fill-rule="evenodd" clip-rule="evenodd" d="M239.344 599.612C222.164 598.712 216.385 715.84 216.385 715.84H259.669C259.669 715.84 255.986 600.479 239.344 599.612Z" fill="#C3CE54"/>
</g>
<path fill-rule="evenodd" clip-rule="evenodd" d="M681.554 686.898C594.519 679.432 592.167 652.771 523.951 646.371C409.153 635.603 399.28 665.568 300.485 662.369C240.232 660.417 163.309 616.578 112.236 598.905C-11.5098 556.08 -96.0022 581.808 -96.0022 581.808V932.592H786.068V677.784C786.068 677.784 732.36 691.257 681.554 686.898Z" fill="#CCE2BE"/>
</g>
<path d="M474.017 555.347C474.174 555.84 475.319 556.974 475.744 556.182L475.469 553.57C475.467 553.569 475.465 553.568 475.463 553.567C475.201 553.436 474.862 553.345 474.571 553.427C474.527 553.44 474.483 553.456 474.442 553.476C473.805 553.796 473.832 554.772 474.017 555.347Z" fill="#F5C4B3"/>
<path d="M487.343 630.045C487.343 630.045 487.015 633.367 487.193 633.847C487.254 634.012 489.098 634.958 489.098 634.958L489.111 636.867L485.505 636.192L484.367 635.706L484.296 635.197C484.296 635.197 484.539 634.194 484.497 633.763C484.455 633.331 484.216 630.045 484.216 630.045" fill="#FCC5A7"/>
<path d="M484.43 634.92C484.124 634.971 484.246 635.519 484.119 636.395C484.066 636.76 484.084 637.574 484.164 637.934C484.757 638.462 486.33 638.145 486.58 638.135C488.09 638.082 489.779 638.517 491.595 638.271C491.949 638.223 492.643 638.184 492.807 637.515C492.828 637.429 492.807 636.974 492.807 636.974C492.807 636.974 489.321 635.446 488.258 634.858C488.043 634.739 487.854 634.445 487.695 634.445C487.536 634.445 487.378 634.878 487.246 634.971C486.587 635.431 485.546 635.403 484.916 635.263C484.642 635.202 484.522 634.904 484.43 634.92Z" fill="#BAC2CE"/>
<path d="M484.429 634.499C484.124 634.55 484.246 635.097 484.118 635.973C484.065 636.338 484.016 637.153 484.096 637.513C484.689 638.041 486.33 637.723 486.58 637.714C488.09 637.661 489.823 638.002 491.594 637.85C491.966 637.817 492.643 637.646 492.806 636.977C492.946 636.406 489.507 635.127 488.257 634.436C488.042 634.317 487.854 634.023 487.695 634.023C487.535 634.023 487.378 634.456 487.245 634.549C486.586 635.009 485.546 634.981 484.915 634.841C484.641 634.78 484.522 634.483 484.429 634.499Z" fill="#10171C"/>
<path d="M489.999 635.185C489.831 635.249 489.688 635.37 489.572 635.509C489.456 635.648 489.365 635.805 489.274 635.962" stroke="#BAC2CE" stroke-width="0.433858" stroke-miterlimit="10" stroke-linecap="round" stroke-linejoin="round"/>
<path d="M489.228 634.774C488.921 634.795 488.478 635.317 488.443 635.728" stroke="#BAC2CE" stroke-width="0.433858" stroke-miterlimit="10" stroke-linecap="round" stroke-linejoin="round"/>
<path d="M488.51 634.469C488.301 634.54 488.126 634.693 488.005 634.877C487.883 635.061 487.813 635.275 487.773 635.492" stroke="#BAC2CE" stroke-width="0.433858" stroke-miterlimit="10" stroke-linecap="round" stroke-linejoin="round"/>
<path d="M487.689 634.018C487.689 634.018 487.372 634.451 487.239 634.543C486.581 635.003 485.54 634.975 484.91 634.835C484.636 634.774 484.516 634.477 484.424 634.492" stroke="#BAC2CE" stroke-width="0.433858" stroke-miterlimit="10" stroke-linecap="round" stroke-linejoin="round"/>
<path d="M474.134 630.045C474.134 630.045 474.462 633.367 474.284 633.847C474.223 634.012 472.379 634.958 472.379 634.958L472.366 636.867L475.972 636.192L477.11 635.706L477.181 635.197C477.181 635.197 476.937 634.194 476.98 633.763C477.022 633.331 477.261 630.045 477.261 630.045" fill="#FCC5A7"/>
<path d="M477.033 634.92C477.338 634.971 477.217 635.519 477.344 636.395C477.397 636.76 477.379 637.574 477.299 637.934C476.706 638.462 475.133 638.145 474.882 638.135C473.372 638.082 471.684 638.517 469.868 638.271C469.514 638.223 468.82 638.184 468.656 637.515C468.635 637.429 468.656 636.974 468.656 636.974C468.656 636.974 472.142 635.446 473.205 634.858C473.42 634.739 473.608 634.445 473.768 634.445C473.927 634.445 474.085 634.878 474.217 634.971C474.876 635.431 475.917 635.403 476.547 635.263C476.821 635.202 476.94 634.904 477.033 634.92Z" fill="#BAC2CE"/>
<path d="M477.028 634.493C477.333 634.544 477.211 635.091 477.339 635.967C477.392 636.332 477.441 637.147 477.361 637.507C476.768 638.035 475.128 637.717 474.877 637.708C473.367 637.655 471.634 637.996 469.863 637.844C469.491 637.812 468.814 637.64 468.651 636.971C468.512 636.4 471.95 635.121 473.2 634.43C473.415 634.311 473.603 634.018 473.763 634.018C473.922 634.018 474.08 634.451 474.212 634.543C474.871 635.003 475.912 634.975 476.542 634.835C476.816 634.774 476.935 634.477 477.028 634.493Z" fill="#10171C"/>
<path d="M471.465 635.185C471.634 635.249 471.777 635.37 471.893 635.509C472.008 635.648 472.099 635.805 472.19 635.962" stroke="#BAC2CE" stroke-width="0.433858" stroke-miterlimit="10" stroke-linecap="round" stroke-linejoin="round"/>
<path d="M472.25 634.774C472.558 634.795 473 635.317 473.035 635.728" stroke="#BAC2CE" stroke-width="0.433858" stroke-miterlimit="10" stroke-linecap="round" stroke-linejoin="round"/>
<path d="M472.966 634.469C473.175 634.54 473.351 634.693 473.472 634.877C473.593 635.061 473.664 635.275 473.704 635.492" stroke="#BAC2CE" stroke-width="0.433858" stroke-miterlimit="10" stroke-linecap="round" stroke-linejoin="round"/>
<path d="M473.775 634.023C473.775 634.023 474.092 634.456 474.224 634.549C474.883 635.009 475.924 634.981 476.554 634.841C476.828 634.78 476.948 634.483 477.04 634.498" stroke="#BAC2CE" stroke-width="0.433858" stroke-miterlimit="10" stroke-linecap="round" stroke-linejoin="round"/>
<path d="M488.143 584.111C488.143 584.111 490.004 586.566 490.484 587.579" stroke="#183145" stroke-width="0.935173" stroke-miterlimit="10"/>
<path d="M472.631 594.643C472.632 591.384 473.464 586.893 473.464 586.893C473.464 586.893 486.894 583.174 487.815 586.642C488.632 589.72 488.639 592.36 488.75 594.669C488.785 595.424 487.555 633.111 487.555 633.111H484.393C484.393 633.111 483.778 628.138 483.137 621.728C483.135 621.687 483.131 621.643 483.126 621.596C483.114 621.488 483.105 621.377 483.094 621.263C483.085 621.16 483.073 621.058 483.064 620.955C482.786 617.756 482.719 613.656 482.719 613.656C482.091 609.625 480.999 600.69 480.655 596.978C480.655 596.978 479.396 609.625 478.768 613.656C478.768 613.656 478.7 617.756 478.422 620.955C478.414 621.058 478.402 621.16 478.393 621.263C478.381 621.377 478.372 621.488 478.361 621.596C478.355 621.643 478.352 621.687 478.349 621.728C477.708 628.138 477.193 633.111 477.193 633.111H474.266C474.266 633.111 472.631 598.228 472.631 594.643Z" fill="#10171C"/>
<path d="M484.361 633.232H487.498C487.654 633.232 487.781 633.105 487.781 632.948V632.494C487.781 632.337 487.654 632.21 487.498 632.21H484.361C484.204 632.21 484.077 632.337 484.077 632.494V632.948C484.077 633.105 484.204 633.232 484.361 633.232Z" fill="#10171C"/>
<path d="M474.197 633.232H477.334C477.491 633.232 477.618 633.105 477.618 632.948V632.494C477.618 632.337 477.491 632.21 477.334 632.21H474.197C474.041 632.21 473.913 632.337 473.913 632.494V632.948C473.914 633.105 474.041 633.232 474.197 633.232Z" fill="#10171C"/>
<path d="M488.072 587.751C488.072 587.751 483.223 588.45 473.309 587.751C473.309 587.751 473.147 587.286 473.457 586.893C473.767 586.499 486.34 586.526 486.392 586.526C486.444 586.526 487.898 586.422 487.898 586.422C487.898 586.422 488.297 587.391 488.072 587.751Z" fill="#7A3D14"/>
<path d="M486.064 586.525C486.064 586.525 486.27 587.519 486.161 588.201" stroke="#EFC99A" stroke-width="0.623448" stroke-miterlimit="10"/>
<path d="M476.26 586.525C476.26 586.525 476.054 587.519 476.162 588.201" stroke="#EFC99A" stroke-width="0.623448" stroke-miterlimit="10"/>
<path d="M481.053 586.583C481.053 586.583 480.944 587.733 481.053 588.414" stroke="#EFC99A" stroke-width="0.623448" stroke-miterlimit="10"/>
<path d="M480.059 566.383H481.459C481.459 566.383 482.609 577.481 482.207 580.773C482.066 581.922 481.167 585.017 480.759 585.017C480.327 585.017 479.452 581.922 479.312 580.773C478.909 577.481 480.059 566.383 480.059 566.383Z" fill="#097189"/>
<path d="M480.761 564.194L482.006 565.01C482.006 565.01 481.838 566.176 481.542 566.388C481.225 566.616 480.274 566.644 479.978 566.388C479.704 566.15 479.515 565.01 479.515 565.01L480.761 564.194Z" fill="#097189"/>
<path d="M477.908 562.302C477.977 562.104 478.124 561.455 478.081 559.568H480.768H483.455C483.411 561.455 483.558 562.104 483.627 562.302C483.69 562.322 486.178 563.197 486.178 563.197L480.768 565.344L475.357 563.197C475.357 563.197 477.845 562.323 477.908 562.302Z" fill="#FFB495"/>
<path d="M470.04 596.305C470.04 596.305 469.71 597.061 469.71 597.305C469.71 597.549 469.771 598.281 469.875 598.476C469.979 598.671 470.601 599.402 470.661 599.537C470.723 599.671 470.768 599.981 470.661 600.012C470.504 600.058 469.552 599.134 469.552 599.134L468.82 597.573C468.82 597.573 468.918 596.61 468.942 596.549C468.966 596.488 469.454 595.72 469.454 595.72" fill="#FC9E81"/>
<path d="M468.562 595.126C468.327 596.161 468.092 597.571 468.163 597.994C468.233 598.417 468.915 599.827 468.915 599.827C468.915 599.827 470.161 600.862 470.325 600.885C470.49 600.908 470.537 600.497 470.325 600.238C470.114 599.98 469.526 599.416 469.467 599.263C469.408 599.11 469.303 598.006 469.308 597.806C469.315 597.606 469.784 596.855 470.078 596.878C470.372 596.901 470.537 597.43 470.537 597.641C470.537 597.853 470.607 598.346 470.713 598.511C470.818 598.675 471.089 598.746 471.195 598.617C471.3 598.487 471.383 597.312 471.383 597.077C471.383 596.842 470.778 595.37 470.719 595.041C470.66 594.712 471.063 591.965 471.063 591.965L468.715 591.718C468.715 591.718 468.798 594.092 468.562 595.126Z" fill="#F5C4B3"/>
<path d="M472.526 566.175C472.526 566.175 471.092 564.559 470.616 566.791C470.174 568.868 468.997 576.265 468.301 580.558C468.201 581.176 468.154 581.799 468.163 582.425C468.191 584.567 468.311 589.884 468.824 594.279C469.921 594.429 470.775 594.279 470.775 594.279C470.775 594.279 471.838 585.315 471.838 581.852C471.838 581.852 474.386 573.449 474.385 569.059C474.385 566.863 472.526 566.175 472.526 566.175Z" fill="#F5C4B3"/>
<path d="M484.384 576.196C484.384 576.196 483.128 575.605 482.777 575.221C482.427 574.836 481.687 573.648 481.4 573.216C481.113 572.783 480.904 572.476 480.557 572.283C480.211 572.09 479.398 571.716 479.104 571.521C478.81 571.325 478.585 571.145 478.514 571.163C478.443 571.18 478.276 571.413 478.439 571.641C478.601 571.868 478.95 572.157 479.217 572.354C479.484 572.551 479.671 572.724 479.614 572.733C479.557 572.741 478.733 572.189 478.574 572.11C478.416 572.031 477.948 571.67 477.827 571.501C477.706 571.333 477.558 570.445 477.397 570.398C477.236 570.352 477.16 570.52 477.109 570.731C477.059 570.941 477.073 571.236 477.081 571.37C477.09 571.521 477.123 571.646 477.123 571.646C477.123 571.646 476.936 571.837 476.861 571.989C476.786 572.141 476.883 572.475 476.883 572.475C476.883 572.475 476.745 572.52 476.654 572.697C476.564 572.874 476.722 573.279 476.869 573.446C476.869 573.446 476.763 573.777 476.874 573.947C476.986 574.118 477.613 574.697 477.784 574.869C477.954 575.041 479.493 575.649 480.319 576.014C481.146 576.378 483.309 577.967 483.309 577.967L484.384 576.196Z" fill="#FCC5A7"/>
<path d="M476.872 562.664L476.871 562.73C476.868 562.688 476.872 562.664 476.872 562.664Z" fill="#DCF5F9"/>
<path d="M485.969 553.546C486.271 553.394 486.678 553.293 486.996 553.453C487.634 553.774 487.606 554.749 487.421 555.325C487.264 555.817 486.118 556.951 485.694 556.158" fill="#F5C4B3"/>
<path d="M489.043 599.268H490.564C491.195 599.268 491.707 598.756 491.707 598.125V587.126H487.952L487.9 598.125C487.9 598.756 488.412 599.268 489.043 599.268Z" fill="#183145"/>
<path d="M491.739 596.305C491.739 596.305 492.068 597.061 492.068 597.305C492.068 597.549 492.007 598.281 491.903 598.476C491.8 598.671 491.178 599.402 491.117 599.537C491.056 599.671 491.01 599.981 491.117 600.012C491.274 600.058 492.227 599.134 492.227 599.134L492.958 597.573C492.958 597.573 492.861 596.61 492.836 596.549C492.812 596.488 492.324 595.72 492.324 595.72" fill="#FC9E81"/>
<path d="M493.204 595.126C493.439 596.161 493.674 597.571 493.603 597.994C493.533 598.417 492.851 599.827 492.851 599.827C492.851 599.827 491.606 600.862 491.441 600.885C491.276 600.908 491.229 600.497 491.441 600.238C491.653 599.98 492.24 599.416 492.299 599.263C492.358 599.11 492.464 598.006 492.458 597.806C492.452 597.606 491.982 596.855 491.688 596.878C491.394 596.901 491.23 597.43 491.23 597.641C491.23 597.853 491.159 598.346 491.053 598.511C490.948 598.675 490.677 598.746 490.571 598.617C490.466 598.487 490.383 597.312 490.383 597.077C490.383 596.842 490.988 595.37 491.047 595.041C491.106 594.712 490.703 591.965 490.703 591.965L493.051 591.718C493.051 591.718 492.969 594.092 493.204 595.126Z" fill="#F5C4B3"/>
<path d="M489.239 566.175C489.239 566.175 490.673 564.559 491.148 566.791C491.591 568.868 492.768 576.265 493.464 580.558C493.564 581.176 493.611 581.799 493.602 582.425C493.574 584.567 493.454 589.884 492.941 594.279C491.844 594.429 490.99 594.279 490.99 594.279C490.99 594.279 489.927 585.315 489.927 581.852C489.927 581.852 487.379 573.449 487.38 569.059C487.381 566.863 489.239 566.175 489.239 566.175Z" fill="#F5C4B3"/>
<path d="M468.235 576.531C470.109 577.276 471.231 577.821 472.79 577.722C472.796 578.956 472.78 582.566 472.31 584.106C471.739 585.976 471.546 587.232 473.85 586.992C476.153 586.755 486.387 586.98 487.067 586.992C487.316 586.995 487.544 586.974 487.746 586.921C488.095 586.833 488.379 586.668 488.591 586.437C489.09 585.904 489.208 585.032 488.89 583.993C488.423 582.454 488.404 578.844 488.413 577.609C489.885 577.706 490.969 577.223 492.662 576.543C492.765 576.5 492.874 576.459 492.983 576.415C493.142 576.353 493.233 576.182 493.198 576.016C492.216 571.063 492.123 567.17 490.346 565.134C490 564.738 489.398 564.386 488.756 564.093C488.114 563.8 487.431 563.569 486.93 563.413L484.277 562.531C484.277 562.531 484.352 563.962 480.598 563.987H480.502C479.155 563.987 478.307 563.825 477.771 563.616C476.898 563.192 476.926 562.643 476.926 562.643L475.835 563.005L474.941 563.304L474.27 563.526C473.27 563.831 471.546 564.451 470.854 565.246C469.083 567.279 468.987 571.166 468.008 576.11C467.97 576.288 468.07 576.465 468.235 576.531Z" fill="#CC2F33"/>
<path d="M484.331 562.67L484.332 562.735C484.335 562.694 484.331 562.67 484.331 562.67Z" fill="#10171C"/>
<path opacity="0.5" d="M480.662 596.979C480.662 596.979 479.717 597.683 478.626 597.449C479.691 598.67 480.024 603.152 479.947 603.871C480.444 599.126 480.662 596.979 480.662 596.979Z" fill="#10171C"/>
<path opacity="0.5" d="M480.658 596.979C480.658 596.979 481.604 597.683 482.695 597.449C481.629 598.67 481.296 603.152 481.374 603.871C480.876 599.126 480.658 596.979 480.658 596.979Z" fill="#10171C"/>
<path d="M487.381 549.774C487.333 549.544 487.031 548.594 486.313 547.688C486.735 547.879 486.833 547.778 486.833 547.778C486.833 547.778 486.618 547.675 485.908 546.82C485.196 545.965 484.14 545.242 482.72 545.023C482.353 544.966 481.862 544.989 481.315 545.062C480.891 544.993 479.281 544.544 479.166 544.272C479.154 544.585 479.232 545.111 479.493 545.283C478.198 545.243 477.233 544.546 476.849 544C476.608 544.404 476.648 545.301 476.747 545.59C476.437 545.265 476.389 545.002 476.292 544.594C476.15 544.832 476.022 545.082 475.944 545.349C475.806 545.816 475.773 546.304 475.827 546.78C475.816 546.789 475.807 546.797 475.796 546.807C475.343 547.221 474.931 547.739 474.6 548.18C474.297 548.585 474.157 549.086 474.198 549.59C474.491 553.23 475.45 556.691 477.351 559.832C477.484 560.052 477.625 560.273 477.827 560.43C478.21 560.726 478.874 560.592 479.34 560.592C479.902 560.592 480.463 560.592 481.025 560.592C481.723 560.592 483.095 560.866 483.677 560.414C483.865 560.267 484 560.065 484.126 559.862C485.433 557.747 486.179 555.151 486.799 552.759C486.954 552.161 487.077 551.554 487.198 550.949C487.264 550.618 487.452 550.116 487.381 549.774Z" fill="#3F0F1B"/>
<path opacity="0.5" d="M488.327 573.163L488.418 577.611C489.889 577.708 490.974 577.225 492.667 576.545C491.622 576.841 489.602 577.172 489.297 577.019C488.91 576.826 488.327 573.163 488.327 573.163Z" fill="black"/>
<path opacity="0.5" d="M472.87 573.278L472.78 577.727C471.309 577.823 470.224 577.34 468.531 576.661C469.576 576.957 471.595 577.287 471.901 577.134C472.288 576.941 472.87 573.278 472.87 573.278Z" fill="black"/>
<path d="M488.397 564.234C487.864 566.034 484.646 578.057 488.851 591.095C489.093 591.846 489.358 592.599 489.651 593.353L490.524 593.013C490.27 592.36 490.036 591.708 489.824 591.057C485.446 577.795 488.974 565.536 489.329 564.382L488.397 564.234Z" fill="#183145"/>
<g clip-path="url(#clip6_1154_4438)">
<g clip-path="url(#clip7_1154_4438)">
<path d="M475.808 576.696V575.368H476.121V575.883H476.574V575.368H476.887V576.696H476.574V576.135H476.121V576.696H475.808Z" fill="white"/>
<path d="M478.141 576.181C478.141 576.262 478.126 576.338 478.101 576.403C478.077 576.469 478.037 576.524 477.992 576.57C477.947 576.615 477.887 576.65 477.828 576.676C477.763 576.701 477.693 576.711 477.624 576.711C477.549 576.711 477.484 576.701 477.42 576.676C477.355 576.65 477.3 576.62 477.256 576.575C477.211 576.529 477.176 576.479 477.146 576.413C477.121 576.348 477.106 576.277 477.106 576.196C477.106 576.11 477.121 576.035 477.146 575.964C477.171 575.893 477.211 575.838 477.256 575.792C477.3 575.747 477.36 575.712 477.42 575.686C477.484 575.661 477.554 575.651 477.624 575.651C477.698 575.651 477.763 575.661 477.828 575.686C477.892 575.707 477.947 575.742 477.992 575.787C478.037 575.833 478.072 575.888 478.101 575.949C478.126 576.02 478.141 576.095 478.141 576.181ZM477.823 576.191C477.823 576.136 477.818 576.09 477.808 576.05C477.798 576.009 477.783 575.979 477.763 575.954C477.743 575.929 477.723 575.914 477.698 575.898C477.673 575.888 477.649 575.883 477.624 575.883C477.599 575.883 477.574 575.888 477.549 575.898C477.524 575.909 477.504 575.924 477.484 575.949C477.465 575.974 477.45 576.004 477.44 576.045C477.43 576.085 477.425 576.131 477.425 576.191C477.425 576.292 477.445 576.368 477.489 576.418C477.529 576.464 477.579 576.489 477.634 576.489C477.659 576.489 477.683 576.484 477.708 576.474C477.733 576.464 477.753 576.449 477.773 576.423C477.793 576.398 477.808 576.368 477.818 576.332C477.818 576.292 477.823 576.247 477.823 576.191Z" fill="white"/>
<path d="M478.639 576.696H478.33V575.687H478.569L478.604 575.813C478.649 575.767 478.698 575.732 478.748 575.702C478.803 575.676 478.858 575.661 478.922 575.661C479.067 575.661 479.161 575.712 479.216 575.813C479.261 575.767 479.31 575.727 479.365 575.702C479.42 575.671 479.48 575.661 479.544 575.661C479.649 575.661 479.733 575.692 479.793 575.747C479.853 575.808 479.883 575.888 479.883 576.005V576.696H479.574V576.035C479.574 575.994 479.564 575.959 479.539 575.934C479.519 575.909 479.49 575.893 479.45 575.893C479.415 575.893 479.38 575.904 479.345 575.919C479.31 575.934 479.281 575.959 479.256 575.994V576.696H478.947V576.035C478.947 575.994 478.937 575.959 478.912 575.934C478.892 575.909 478.863 575.893 478.823 575.893C478.788 575.893 478.753 575.904 478.718 575.924C478.684 575.944 478.654 575.969 478.629 575.999V576.696H478.639Z" fill="white"/>
<path d="M481.022 576.277H480.38V576.287C480.38 576.358 480.405 576.408 480.46 576.438C480.515 576.469 480.579 576.489 480.664 576.489C480.719 576.489 480.768 576.484 480.813 576.474C480.858 576.464 480.893 576.449 480.923 576.433L480.977 576.65C480.938 576.671 480.893 576.686 480.833 576.701C480.773 576.716 480.704 576.721 480.624 576.721C480.55 576.721 480.48 576.711 480.41 576.691C480.341 576.671 480.286 576.64 480.231 576.595C480.181 576.555 480.142 576.499 480.112 576.433C480.082 576.368 480.067 576.292 480.067 576.201C480.067 576.12 480.077 576.05 480.102 575.979C480.127 575.914 480.161 575.853 480.206 575.808C480.251 575.762 480.306 575.722 480.365 575.697C480.425 575.671 480.495 575.656 480.569 575.656C480.709 575.656 480.818 575.697 480.898 575.782C480.977 575.868 481.022 575.984 481.022 576.141V576.277ZM480.709 576.065C480.709 576.04 480.704 576.02 480.699 575.994C480.694 575.974 480.684 575.954 480.674 575.934C480.664 575.919 480.649 575.903 480.629 575.893C480.609 575.883 480.589 575.878 480.559 575.878C480.51 575.878 480.47 575.893 480.44 575.929C480.41 575.964 480.39 576.009 480.385 576.07L480.709 576.065Z" fill="white"/>
<path d="M481.713 575.363H482.027V576.443H482.544V576.691H481.713V575.363Z" fill="white"/>
<path d="M483.664 576.181C483.664 576.262 483.649 576.338 483.624 576.403C483.599 576.469 483.559 576.524 483.515 576.57C483.47 576.615 483.41 576.65 483.35 576.676C483.286 576.701 483.216 576.711 483.146 576.711C483.072 576.711 483.007 576.701 482.942 576.676C482.878 576.65 482.823 576.62 482.778 576.575C482.733 576.529 482.699 576.479 482.669 576.413C482.644 576.348 482.629 576.277 482.629 576.196C482.629 576.11 482.644 576.035 482.669 575.964C482.694 575.898 482.733 575.838 482.778 575.792C482.823 575.747 482.883 575.712 482.942 575.686C483.007 575.661 483.077 575.651 483.146 575.651C483.221 575.651 483.286 575.661 483.35 575.686C483.415 575.707 483.47 575.742 483.515 575.787C483.559 575.833 483.594 575.888 483.624 575.949C483.649 576.02 483.664 576.095 483.664 576.181ZM483.346 576.191C483.346 576.136 483.341 576.09 483.331 576.05C483.321 576.009 483.306 575.979 483.286 575.954C483.266 575.929 483.246 575.914 483.221 575.898C483.196 575.888 483.171 575.883 483.146 575.883C483.122 575.883 483.097 575.888 483.072 575.898C483.047 575.909 483.027 575.924 483.007 575.949C482.987 575.974 482.972 576.004 482.962 576.045C482.952 576.085 482.947 576.131 482.947 576.191C482.947 576.292 482.967 576.368 483.012 576.418C483.057 576.469 483.102 576.489 483.156 576.489C483.181 576.489 483.206 576.484 483.231 576.474C483.256 576.464 483.276 576.449 483.296 576.423C483.316 576.398 483.331 576.368 483.341 576.332C483.35 576.297 483.346 576.247 483.346 576.191Z" fill="white"/>
<path d="M483.868 575.772C483.923 575.737 483.988 575.712 484.062 575.692C484.132 575.671 484.207 575.661 484.281 575.661C484.406 575.661 484.505 575.692 484.58 575.752C484.655 575.813 484.694 575.909 484.694 576.04V576.696H484.46L484.436 576.595H484.426C484.396 576.63 484.361 576.661 484.311 576.686C484.261 576.711 484.202 576.721 484.137 576.721C484.082 576.721 484.033 576.711 483.988 576.696C483.943 576.681 483.908 576.656 483.883 576.63C483.853 576.6 483.834 576.57 483.819 576.529C483.804 576.489 483.799 576.449 483.799 576.408C483.799 576.348 483.814 576.297 483.839 576.257C483.863 576.217 483.898 576.181 483.943 576.156C483.988 576.131 484.038 576.111 484.097 576.095C484.157 576.08 484.217 576.075 484.286 576.075H484.391V576.02C484.391 575.979 484.376 575.954 484.351 575.934C484.326 575.914 484.286 575.904 484.237 575.904C484.197 575.904 484.152 575.909 484.112 575.924C484.072 575.939 484.028 575.959 483.978 575.984L483.868 575.772ZM484.386 576.257H484.316C484.276 576.257 484.247 576.262 484.217 576.272C484.192 576.277 484.167 576.287 484.152 576.297C484.137 576.307 484.122 576.323 484.117 576.338C484.112 576.353 484.107 576.368 484.107 576.383C484.107 576.429 484.122 576.459 484.147 576.474C484.172 576.489 484.202 576.499 484.237 576.499C484.271 576.499 484.301 576.489 484.326 576.469C484.351 576.449 484.371 576.429 484.381 576.403V576.257H484.386Z" fill="white"/>
<path d="M485.221 576.696H484.913V575.687H485.152L485.186 575.813C485.231 575.767 485.281 575.732 485.336 575.702C485.39 575.676 485.45 575.661 485.515 575.661C485.629 575.661 485.714 575.692 485.774 575.752C485.833 575.813 485.863 575.904 485.863 576.025V576.696H485.555V576.055C485.555 576.005 485.545 575.969 485.52 575.939C485.495 575.909 485.465 575.893 485.42 575.893C485.386 575.893 485.351 575.904 485.316 575.924C485.281 575.944 485.246 575.969 485.221 575.999V576.696Z" fill="white"/>
<path d="M486.724 575.944C486.685 575.924 486.65 575.914 486.605 575.898C486.565 575.888 486.525 575.883 486.486 575.883C486.451 575.883 486.421 575.888 486.396 575.903C486.376 575.919 486.361 575.934 486.361 575.954C486.361 575.979 486.371 575.999 486.391 576.015C486.411 576.03 486.456 576.05 486.52 576.065L486.585 576.085C486.67 576.11 486.729 576.146 486.774 576.196C486.819 576.247 486.839 576.307 486.839 576.383C486.839 576.433 486.829 576.479 486.809 576.519C486.789 576.56 486.759 576.595 486.719 576.625C486.68 576.656 486.635 576.676 486.58 576.691C486.525 576.706 486.466 576.716 486.401 576.716C486.331 576.716 486.267 576.711 486.212 576.696C486.157 576.681 486.107 576.666 486.058 576.64L486.122 576.413C486.162 576.433 486.202 576.454 486.247 576.464C486.292 576.479 486.336 576.484 486.381 576.484C486.436 576.484 486.471 576.474 486.491 576.459C486.51 576.444 486.52 576.423 486.52 576.403C486.52 576.388 486.52 576.378 486.515 576.373C486.51 576.363 486.501 576.353 486.491 576.348C486.476 576.338 486.461 576.332 486.436 576.322C486.411 576.312 486.381 576.307 486.346 576.292L486.282 576.272C486.202 576.247 486.142 576.206 486.102 576.161C486.063 576.115 486.048 576.05 486.048 575.969C486.048 575.924 486.058 575.878 486.073 575.843C486.092 575.803 486.117 575.772 486.152 575.742C486.187 575.712 486.227 575.691 486.277 575.676C486.326 575.661 486.381 575.651 486.446 575.651C486.51 575.651 486.57 575.656 486.625 575.671C486.68 575.681 486.729 575.702 486.774 575.722L486.724 575.944Z" fill="white"/>
<path fill-rule="evenodd" clip-rule="evenodd" d="M478.576 574.009C478.576 573.696 478.81 573.559 479.138 573.559C479.278 573.559 479.382 573.585 479.482 573.615V573.59C479.482 573.428 479.377 573.337 479.183 573.337C479.029 573.337 478.924 573.368 478.795 573.413L478.696 573.11C478.85 573.045 479.004 572.999 479.238 572.999C479.452 572.999 479.611 573.055 479.711 573.156C479.815 573.262 479.865 573.413 479.865 573.6V574.412H479.482V574.261C479.387 574.367 479.253 574.438 479.064 574.438C478.79 574.438 478.576 574.286 478.576 574.009ZM479.482 573.918V573.852C479.417 573.822 479.322 573.797 479.233 573.797C479.064 573.797 478.959 573.862 478.959 573.993V573.998C478.959 574.11 479.049 574.17 479.173 574.17C479.357 574.165 479.482 574.059 479.482 573.918Z" fill="white"/>
<path fill-rule="evenodd" clip-rule="evenodd" d="M480.028 574.15L480.277 573.847C480.451 573.989 480.631 574.084 480.849 574.084C481.024 574.084 481.123 574.019 481.123 573.903V573.898C481.123 573.792 481.058 573.736 480.74 573.655C480.352 573.554 480.103 573.448 480.103 573.065V573.055C480.103 572.707 480.382 572.479 480.775 572.479C481.053 572.479 481.292 572.565 481.491 572.722L481.272 573.04C481.103 572.919 480.934 572.853 480.77 572.853C480.611 572.853 480.526 572.924 480.526 573.019V573.025C480.526 573.151 480.611 573.191 480.944 573.277C481.327 573.378 481.546 573.514 481.546 573.852V573.857C481.546 574.241 481.257 574.453 480.844 574.453C480.551 574.453 480.257 574.352 480.028 574.15Z" fill="white"/>
<path fill-rule="evenodd" clip-rule="evenodd" d="M481.736 572.398H482.109V573.231H482.119C482.213 573.075 482.378 573.004 482.517 573.004C482.915 573.004 483.014 573.226 483.014 573.564V574.402H482.641V573.63C482.641 573.408 482.577 573.297 482.402 573.297C482.198 573.297 482.114 573.413 482.114 573.685V574.402H481.741V572.398H481.736Z" fill="white"/>
<path d="M474.724 572.398H474.306V574.407H474.724V572.398Z" fill="white"/>
<path fill-rule="evenodd" clip-rule="evenodd" d="M474.978 573.044H475.336V573.236H475.346C475.441 573.075 475.605 573.009 475.764 573.009C476.162 573.009 476.262 573.231 476.262 573.569V574.407H475.884V573.635C475.884 573.413 475.819 573.302 475.645 573.302C475.446 573.302 475.356 573.413 475.356 573.69V574.407H474.978V573.044Z" fill="white"/>
<path fill-rule="evenodd" clip-rule="evenodd" d="M477.447 574.236C477.357 574.382 477.203 574.448 477.029 574.448C476.616 574.448 476.422 574.099 476.422 573.716C476.422 573.347 476.621 573.009 477.024 573.009C477.183 573.009 477.347 573.075 477.427 573.211H477.432V572.398H477.81V574.407H477.452V574.236H477.447ZM477.123 573.287C476.874 573.287 476.795 573.504 476.795 573.726C476.795 573.943 476.894 574.165 477.123 574.165C477.367 574.165 477.447 573.948 477.447 573.721C477.442 573.504 477.367 573.287 477.123 573.287Z" fill="white"/>
<path d="M478.407 573.045H478.029V574.412H478.407V573.045Z" fill="white"/>
<path fill-rule="evenodd" clip-rule="evenodd" d="M483.522 573.817C483.532 574.059 483.646 574.165 483.855 574.165C484.004 574.165 484.124 574.074 484.149 573.988H484.477C484.372 574.316 484.149 574.447 483.84 574.447C483.407 574.447 483.143 574.155 483.143 573.731C483.143 573.322 483.422 573.009 483.84 573.009C484.303 573.009 484.532 573.398 484.502 573.817H483.522ZM484.129 573.579C484.094 573.393 484.009 573.287 483.83 573.287C483.586 573.287 483.527 573.473 483.522 573.579H484.129Z" fill="white"/>
<path d="M485.044 572.398H484.666V574.407H485.044V572.398Z" fill="white"/>
<path fill-rule="evenodd" clip-rule="evenodd" d="M485.746 573.045H486.02V573.297H485.746V573.973C485.746 574.099 485.776 574.135 485.905 574.135C485.95 574.135 485.99 574.13 486.025 574.125V574.417C485.96 574.428 485.88 574.428 485.806 574.428C485.572 574.428 485.373 574.382 485.373 574.104V573.297H485.149V573.045H485.373V572.51H485.751V573.045H485.746Z" fill="white"/>
<path fill-rule="evenodd" clip-rule="evenodd" d="M486.442 573.817C486.452 574.059 486.567 574.165 486.776 574.165C486.925 574.165 487.044 574.074 487.069 573.988H487.398C487.293 574.316 487.069 574.447 486.761 574.447C486.328 574.447 486.064 574.155 486.064 573.731C486.064 573.322 486.343 573.009 486.761 573.009C487.224 573.009 487.452 573.398 487.423 573.817H486.442ZM487.049 573.579C487.015 573.393 486.93 573.287 486.751 573.287C486.507 573.287 486.447 573.473 486.442 573.579H487.049Z" fill="white"/>
<path fill-rule="evenodd" clip-rule="evenodd" d="M487.582 573.044H487.935V573.297H487.94C488.015 573.125 488.189 573.009 488.378 573.009C488.408 573.009 488.433 573.014 488.463 573.019V573.367C488.428 573.357 488.373 573.352 488.328 573.352C488.05 573.352 487.96 573.549 487.96 573.791V574.407H487.587V573.044H487.582Z" fill="white"/>
<path fill-rule="evenodd" clip-rule="evenodd" d="M478.422 572.6L478.427 572.611H478.437C478.432 572.606 478.427 572.6 478.422 572.6Z" fill="#E22028"/>
<path fill-rule="evenodd" clip-rule="evenodd" d="M478.387 572.53C478.387 572.53 478.392 572.53 478.397 572.535C478.402 572.535 478.406 572.535 478.406 572.535C478.397 572.545 478.397 572.545 478.402 572.55C478.402 572.55 478.402 572.55 478.397 572.55C478.397 572.545 478.397 572.545 478.397 572.545C478.402 572.545 478.406 572.54 478.411 572.545C478.402 572.555 478.421 572.555 478.411 572.57L478.421 572.58C478.421 572.585 478.411 572.58 478.411 572.58C478.416 572.585 478.421 572.59 478.421 572.59C478.426 572.59 478.431 572.6 478.431 572.6C478.441 572.595 478.436 572.59 478.431 572.585C478.421 572.58 478.421 572.575 478.431 572.57C478.426 572.565 478.426 572.56 478.426 572.555C478.426 572.545 478.431 572.545 478.421 572.54C478.411 572.53 478.402 572.525 478.387 572.53Z" fill="#E22028"/>
<path fill-rule="evenodd" clip-rule="evenodd" d="M478.317 572.818L478.322 572.828C478.317 572.818 478.317 572.818 478.317 572.818Z" fill="#221F1F"/>
<path fill-rule="evenodd" clip-rule="evenodd" d="M478.417 572.525C478.417 572.53 478.417 572.53 478.422 572.535C478.422 572.53 478.417 572.525 478.417 572.525Z" fill="#E22028"/>
<path fill-rule="evenodd" clip-rule="evenodd" d="M478.451 572.626C478.451 572.626 478.441 572.616 478.426 572.616C478.416 572.611 478.401 572.606 478.396 572.606C478.396 572.55 478.377 572.5 478.342 572.464C478.347 572.464 478.352 572.459 478.357 572.464L478.352 572.469L478.357 572.479C478.357 572.479 478.357 572.479 478.362 572.479C478.367 572.479 478.372 572.479 478.372 572.479L478.362 572.484C478.367 572.484 478.372 572.479 478.372 572.484L478.367 572.489C478.377 572.479 478.387 572.489 478.392 572.494H478.387C478.387 572.494 478.392 572.5 478.396 572.5C478.401 572.5 478.406 572.5 478.406 572.5C478.401 572.51 478.387 572.5 478.396 572.51L478.382 572.52C478.392 572.525 478.382 572.53 478.392 572.53C478.401 572.525 478.396 572.52 478.401 572.52C478.392 572.535 478.411 572.53 478.416 572.53C478.416 572.525 478.416 572.525 478.406 572.525C478.406 572.52 478.416 572.52 478.416 572.515H478.406L478.416 572.51L478.406 572.505C478.416 572.494 478.401 572.494 478.416 572.494C478.406 572.489 478.411 572.484 478.401 572.484C478.406 572.474 478.411 572.484 478.411 572.479C478.392 572.464 478.377 572.444 478.362 572.424L478.367 572.419C478.362 572.424 478.357 572.424 478.357 572.429C478.357 572.419 478.357 572.414 478.352 572.409C478.347 572.404 478.342 572.404 478.332 572.409L478.337 572.404C478.332 572.404 478.327 572.394 478.327 572.394C478.322 572.388 478.317 572.383 478.312 572.383C478.302 572.394 478.302 572.388 478.302 572.383C478.297 572.378 478.292 572.378 478.287 572.388L478.292 572.383C478.297 572.394 478.282 572.399 478.282 572.409C478.282 572.388 478.282 572.394 478.282 572.378L478.287 572.383L478.292 572.373C478.282 572.388 478.272 572.383 478.267 572.378C478.262 572.373 478.257 572.368 478.257 572.368C478.252 572.363 478.247 572.368 478.247 572.373C478.247 572.373 478.247 572.373 478.252 572.368C478.242 572.363 478.237 572.378 478.232 572.383C478.232 572.373 478.237 572.373 478.242 572.368C478.232 572.363 478.227 572.368 478.217 572.373C478.207 572.373 478.202 572.378 478.192 572.373C478.192 572.383 478.197 572.383 478.192 572.394C478.187 572.394 478.183 572.383 478.187 572.383C478.183 572.373 478.173 572.378 478.163 572.383C478.153 572.394 478.148 572.394 478.133 572.394C478.128 572.404 478.138 572.404 478.128 572.419C478.128 572.409 478.113 572.404 478.118 572.394L478.113 572.388C478.103 572.394 478.083 572.399 478.088 572.424C478.078 572.414 478.083 572.424 478.078 572.419C478.078 572.424 478.078 572.419 478.083 572.419C478.088 572.434 478.073 572.424 478.073 572.429V572.424C478.073 572.424 478.073 572.429 478.068 572.429C478.068 572.434 478.068 572.439 478.068 572.439C478.068 572.439 478.063 572.439 478.058 572.434L478.068 572.444C478.063 572.449 478.058 572.434 478.053 572.444L478.063 572.449C478.053 572.449 478.058 572.459 478.053 572.454C478.038 572.444 478.043 572.469 478.038 572.469L478.053 572.479C478.053 572.489 478.043 572.484 478.043 572.479C478.038 572.484 478.033 572.479 478.033 572.489C478.033 572.494 478.038 572.494 478.043 572.5L478.033 572.505L478.023 572.494C478.033 572.505 478.033 572.51 478.023 572.515C478.023 572.525 478.018 572.525 478.028 572.535C478.023 572.535 478.018 572.525 478.018 572.525C478.013 572.53 478.013 572.535 478.013 572.545C478.018 572.555 478.018 572.56 478.008 572.565C477.998 572.575 477.998 572.58 477.998 572.59C477.998 572.6 477.998 572.611 477.993 572.621H477.998L477.993 572.631C478.003 572.636 478.003 572.646 478.013 572.646C478.008 572.646 478.003 572.651 478.003 572.651C478.008 572.656 478.013 572.661 478.008 572.666L478.003 572.661C478.003 572.671 478.003 572.676 478.003 572.686C478.008 572.691 478.013 572.696 478.018 572.696C478.018 572.701 478.008 572.706 478.008 572.706C478.013 572.717 478.018 572.717 478.023 572.722C478.023 572.722 478.023 572.727 478.018 572.732L478.028 572.727C478.028 572.732 478.018 572.732 478.018 572.737C478.028 572.742 478.028 572.747 478.028 572.752C478.033 572.757 478.033 572.762 478.038 572.762L478.043 572.757C478.048 572.757 478.048 572.767 478.038 572.767C478.043 572.777 478.048 572.777 478.058 572.777C478.068 572.777 478.073 572.782 478.083 572.787C478.073 572.797 478.083 572.797 478.088 572.797C478.093 572.802 478.098 572.802 478.088 572.812C478.098 572.812 478.103 572.823 478.118 572.818C478.113 572.818 478.113 572.818 478.113 572.818C478.113 572.828 478.128 572.828 478.138 572.828V572.838C478.148 572.828 478.163 572.838 478.168 572.823C478.168 572.828 478.163 572.833 478.163 572.833C478.163 572.848 478.173 572.828 478.178 572.833C478.173 572.838 478.173 572.843 478.173 572.843C478.183 572.853 478.197 572.853 478.207 572.853C478.217 572.848 478.222 572.848 478.227 572.848C478.237 572.848 478.242 572.848 478.252 572.848C478.262 572.848 478.247 572.833 478.257 572.833C478.262 572.843 478.257 572.848 478.262 572.853C478.267 572.843 478.267 572.843 478.272 572.843C478.272 572.848 478.272 572.853 478.267 572.853C478.272 572.858 478.277 572.853 478.277 572.848C478.282 572.843 478.287 572.843 478.287 572.848C478.287 572.843 478.287 572.838 478.287 572.838C478.292 572.828 478.297 572.833 478.302 572.833C478.307 572.838 478.312 572.838 478.312 572.838C478.312 572.838 478.317 572.833 478.312 572.833C478.317 572.828 478.322 572.828 478.322 572.838C478.322 572.833 478.322 572.828 478.322 572.828L478.327 572.838C478.327 572.833 478.327 572.828 478.327 572.828H478.322C478.332 572.833 478.332 572.812 478.332 572.828H478.342C478.342 572.823 478.342 572.818 478.347 572.818C478.357 572.828 478.362 572.807 478.367 572.807L478.372 572.812C478.372 572.802 478.382 572.792 478.382 572.792C478.387 572.792 478.392 572.787 478.392 572.792C478.392 572.787 478.401 572.782 478.392 572.772H478.401C478.406 572.777 478.411 572.777 478.411 572.777C478.396 572.757 478.426 572.767 478.406 572.752C478.416 572.747 478.416 572.752 478.421 572.752C478.411 572.742 478.421 572.737 478.426 572.732H478.431C478.436 572.722 478.426 572.712 478.431 572.701L478.446 572.706C478.446 572.701 478.436 572.696 478.436 572.691C478.441 572.691 478.441 572.696 478.441 572.696C478.436 572.691 478.446 572.686 478.451 572.686C478.441 572.676 478.446 572.671 478.436 572.661C478.451 572.656 478.441 572.671 478.456 572.671C478.466 572.661 478.461 572.651 478.451 572.641C478.446 572.621 478.446 572.626 478.451 572.626Z" fill="#E22028"/>
</g>
</g>
</g>
<defs>
<clipPath id="clip0_1154_4438">
<rect width="597" height="810" fill="white"/>
</clipPath>
<clipPath id="clip1_1154_4438">
<rect width="175" height="43" fill="white" transform="translate(203 50)"/>
</clipPath>
<clipPath id="clip2_1154_4438">
<rect width="600.125" height="533.444" fill="white" transform="translate(0 292)"/>
</clipPath>
<clipPath id="clip3_1154_4438">
<rect width="600.125" height="470.098" fill="white" transform="translate(0 350.346)"/>
</clipPath>
<clipPath id="clip4_1154_4438">
<rect width="85.0177" height="115.024" fill="white" transform="translate(486.768 462.035)"/>
</clipPath>
<clipPath id="clip5_1154_4438">
<rect width="500.104" height="250.052" fill="white" transform="translate(90.0186 393.688)"/>
</clipPath>
<clipPath id="clip6_1154_4438">
<rect width="17.7402" height="5.06864" fill="white" transform="translate(472.435 571.823)"/>
</clipPath>
<clipPath id="clip7_1154_4438">
<rect width="17.5646" height="4.39115" fill="white" transform="translate(472.435 572.366)"/>
</clipPath>
</defs>
</svg>
