<svg width="328" height="255" viewBox="0 0 328 255" fill="none" xmlns="http://www.w3.org/2000/svg">
<path fill-rule="evenodd" clip-rule="evenodd" d="M67.0491 40.0027C58.0341 39.5305 55 101 55 101H77.7169C77.7169 101 75.7833 40.4605 67.0491 40.0027Z" fill="#E8E8E8"/>
<path fill-rule="evenodd" clip-rule="evenodd" d="M74.2204 58.0016C68.8177 57.7206 67 94.2999 67 94.2999H80.6125C80.6125 94.2999 79.4542 58.2726 74.2204 58.0016Z" fill="#D1D1D1"/>
<path fill-rule="evenodd" clip-rule="evenodd" d="M229.084 85.0751C223.036 84.7582 221 126 221 126H236.242C236.242 126 234.944 85.3822 229.084 85.0751Z" fill="#F1F1F1"/>
<path fill-rule="evenodd" clip-rule="evenodd" d="M243.549 71.0023C234.677 71.5898 239.154 123.542 239.154 123.542L251.114 125.336C251.114 125.336 249.715 70.591 243.549 71.0023Z" fill="#D1D1D1"/>
<path fill-rule="evenodd" clip-rule="evenodd" d="M237.382 80.7215C231.333 80.4047 229.298 121.647 229.298 121.647H244.539C244.539 121.647 243.242 81.0271 237.382 80.7215Z" fill="#DFDFDF"/>
<path fill-rule="evenodd" clip-rule="evenodd" d="M279.98 129.813C249.984 126.647 249.173 115.341 225.663 112.628C186.098 108.062 182.696 120.768 148.647 119.412C127.881 118.584 101.37 99.9939 83.768 92.4996C41.1198 74.3398 12 85.2498 12 85.2498V234H316V125.948C316 125.948 297.49 131.662 279.98 129.813Z" fill="url(#paint0_linear_4292_128054)"/>
<path fill-rule="evenodd" clip-rule="evenodd" d="M279.98 129.813C249.984 126.647 249.173 115.341 225.663 112.628C186.098 108.062 182.696 120.768 148.647 119.412C127.881 118.584 101.37 99.9939 83.768 92.4996C41.1198 74.3398 12 85.2498 12 85.2498V234H316V125.948C316 125.948 297.49 131.662 279.98 129.813Z" fill="url(#paint1_linear_4292_128054)"/>
<path fill-rule="evenodd" clip-rule="evenodd" d="M279.98 129.813C249.984 126.647 249.173 115.341 225.663 112.628C186.098 108.062 182.696 120.768 148.647 119.412C127.881 118.584 101.37 99.9939 83.768 92.4996C41.1198 74.3398 12 85.2498 12 85.2498V234H316V125.948C316 125.948 297.49 131.662 279.98 129.813Z" fill="url(#paint2_linear_4292_128054)"/>
<path d="M84.502 192.098C83.5873 192.098 82.7473 191.883 81.982 191.454C81.2167 191.025 80.61 190.432 80.162 189.676C79.714 188.911 79.49 188.047 79.49 187.086C79.49 186.134 79.714 185.28 80.162 184.524C80.61 183.759 81.2167 183.161 81.982 182.732C82.7473 182.303 83.5873 182.088 84.502 182.088C85.426 182.088 86.266 182.303 87.022 182.732C87.7873 183.161 88.3893 183.759 88.828 184.524C89.276 185.28 89.5 186.134 89.5 187.086C89.5 188.047 89.276 188.911 88.828 189.676C88.3893 190.432 87.7873 191.025 87.022 191.454C86.2567 191.883 85.4167 192.098 84.502 192.098ZM84.502 190.348C85.09 190.348 85.608 190.217 86.056 189.956C86.504 189.685 86.854 189.303 87.106 188.808C87.358 188.313 87.484 187.739 87.484 187.086C87.484 186.433 87.358 185.863 87.106 185.378C86.854 184.883 86.504 184.505 86.056 184.244C85.608 183.983 85.09 183.852 84.502 183.852C83.914 183.852 83.3913 183.983 82.934 184.244C82.486 184.505 82.136 184.883 81.884 185.378C81.632 185.863 81.506 186.433 81.506 187.086C81.506 187.739 81.632 188.313 81.884 188.808C82.136 189.303 82.486 189.685 82.934 189.956C83.3913 190.217 83.914 190.348 84.502 190.348ZM94.4022 192.126C93.6555 192.126 92.9835 191.963 92.3862 191.636C91.7889 191.3 91.3175 190.829 90.9722 190.222C90.6362 189.615 90.4682 188.915 90.4682 188.122C90.4682 187.329 90.6409 186.629 90.9862 186.022C91.3409 185.415 91.8215 184.949 92.4282 184.622C93.0349 184.286 93.7115 184.118 94.4582 184.118C95.2049 184.118 95.8815 184.286 96.4882 184.622C97.0949 184.949 97.5709 185.415 97.9162 186.022C98.2709 186.629 98.4482 187.329 98.4482 188.122C98.4482 188.915 98.2662 189.615 97.9022 190.222C97.5475 190.829 97.0622 191.3 96.4462 191.636C95.8395 191.963 95.1582 192.126 94.4022 192.126ZM94.4022 190.418C94.7569 190.418 95.0882 190.334 95.3962 190.166C95.7135 189.989 95.9655 189.727 96.1522 189.382C96.3389 189.037 96.4322 188.617 96.4322 188.122C96.4322 187.385 96.2362 186.82 95.8442 186.428C95.4615 186.027 94.9902 185.826 94.4302 185.826C93.8702 185.826 93.3989 186.027 93.0162 186.428C92.6429 186.82 92.4562 187.385 92.4562 188.122C92.4562 188.859 92.6382 189.429 93.0022 189.83C93.3755 190.222 93.8422 190.418 94.4022 190.418ZM101.846 185.364C102.098 185.009 102.443 184.715 102.882 184.482C103.33 184.239 103.839 184.118 104.408 184.118C105.071 184.118 105.668 184.281 106.2 184.608C106.741 184.935 107.166 185.401 107.474 186.008C107.791 186.605 107.95 187.301 107.95 188.094C107.95 188.887 107.791 189.592 107.474 190.208C107.166 190.815 106.741 191.286 106.2 191.622C105.668 191.958 105.071 192.126 104.408 192.126C103.839 192.126 103.335 192.009 102.896 191.776C102.467 191.543 102.117 191.249 101.846 190.894V195.696H99.8859V184.244H101.846V185.364ZM105.948 188.094C105.948 187.627 105.85 187.226 105.654 186.89C105.467 186.545 105.215 186.283 104.898 186.106C104.59 185.929 104.254 185.84 103.89 185.84C103.535 185.84 103.199 185.933 102.882 186.12C102.574 186.297 102.322 186.559 102.126 186.904C101.939 187.249 101.846 187.655 101.846 188.122C101.846 188.589 101.939 188.995 102.126 189.34C102.322 189.685 102.574 189.951 102.882 190.138C103.199 190.315 103.535 190.404 103.89 190.404C104.254 190.404 104.59 190.311 104.898 190.124C105.215 189.937 105.467 189.671 105.654 189.326C105.85 188.981 105.948 188.57 105.948 188.094ZM112.342 192.126C111.708 192.126 111.138 192.014 110.634 191.79C110.13 191.557 109.729 191.244 109.43 190.852C109.141 190.46 108.982 190.026 108.954 189.55H110.928C110.966 189.849 111.11 190.096 111.362 190.292C111.624 190.488 111.946 190.586 112.328 190.586C112.702 190.586 112.991 190.511 113.196 190.362C113.411 190.213 113.518 190.021 113.518 189.788C113.518 189.536 113.388 189.349 113.126 189.228C112.874 189.097 112.468 188.957 111.908 188.808C111.33 188.668 110.854 188.523 110.48 188.374C110.116 188.225 109.799 187.996 109.528 187.688C109.267 187.38 109.136 186.965 109.136 186.442C109.136 186.013 109.258 185.621 109.5 185.266C109.752 184.911 110.107 184.631 110.564 184.426C111.031 184.221 111.577 184.118 112.202 184.118C113.126 184.118 113.864 184.351 114.414 184.818C114.965 185.275 115.268 185.896 115.324 186.68H113.448C113.42 186.372 113.29 186.129 113.056 185.952C112.832 185.765 112.529 185.672 112.146 185.672C111.792 185.672 111.516 185.737 111.32 185.868C111.134 185.999 111.04 186.181 111.04 186.414C111.04 186.675 111.171 186.876 111.432 187.016C111.694 187.147 112.1 187.282 112.65 187.422C113.21 187.562 113.672 187.707 114.036 187.856C114.4 188.005 114.713 188.239 114.974 188.556C115.245 188.864 115.385 189.275 115.394 189.788C115.394 190.236 115.268 190.637 115.016 190.992C114.774 191.347 114.419 191.627 113.952 191.832C113.495 192.028 112.958 192.126 112.342 192.126ZM119.537 182.06L119.313 188.822H117.661L117.423 182.06H119.537ZM118.529 192.098C118.174 192.098 117.88 191.991 117.647 191.776C117.423 191.552 117.311 191.277 117.311 190.95C117.311 190.623 117.423 190.353 117.647 190.138C117.88 189.914 118.174 189.802 118.529 189.802C118.874 189.802 119.159 189.914 119.383 190.138C119.607 190.353 119.719 190.623 119.719 190.95C119.719 191.277 119.607 191.552 119.383 191.776C119.159 191.991 118.874 192.098 118.529 192.098ZM133.646 192H131.686L127.248 185.294V192H125.288V182.214H127.248L131.686 188.934V182.214H133.646V192ZM139.027 192.126C138.281 192.126 137.609 191.963 137.011 191.636C136.414 191.3 135.943 190.829 135.597 190.222C135.261 189.615 135.093 188.915 135.093 188.122C135.093 187.329 135.266 186.629 135.611 186.022C135.966 185.415 136.447 184.949 137.053 184.622C137.66 184.286 138.337 184.118 139.083 184.118C139.83 184.118 140.507 184.286 141.113 184.622C141.72 184.949 142.196 185.415 142.541 186.022C142.896 186.629 143.073 187.329 143.073 188.122C143.073 188.915 142.891 189.615 142.527 190.222C142.173 190.829 141.687 191.3 141.071 191.636C140.465 191.963 139.783 192.126 139.027 192.126ZM139.027 190.418C139.382 190.418 139.713 190.334 140.021 190.166C140.339 189.989 140.591 189.727 140.777 189.382C140.964 189.037 141.057 188.617 141.057 188.122C141.057 187.385 140.861 186.82 140.469 186.428C140.087 186.027 139.615 185.826 139.055 185.826C138.495 185.826 138.024 186.027 137.641 186.428C137.268 186.82 137.081 187.385 137.081 188.122C137.081 188.859 137.263 189.429 137.627 189.83C138.001 190.222 138.467 190.418 139.027 190.418ZM147.343 188.094C147.343 187.31 147.497 186.615 147.805 186.008C148.122 185.401 148.547 184.935 149.079 184.608C149.62 184.281 150.222 184.118 150.885 184.118C151.464 184.118 151.968 184.235 152.397 184.468C152.836 184.701 153.186 184.995 153.447 185.35V184.244H155.421V192H153.447V190.866C153.195 191.23 152.845 191.533 152.397 191.776C151.958 192.009 151.45 192.126 150.871 192.126C150.218 192.126 149.62 191.958 149.079 191.622C148.547 191.286 148.122 190.815 147.805 190.208C147.497 189.592 147.343 188.887 147.343 188.094ZM153.447 188.122C153.447 187.646 153.354 187.24 153.167 186.904C152.98 186.559 152.728 186.297 152.411 186.12C152.094 185.933 151.753 185.84 151.389 185.84C151.025 185.84 150.689 185.929 150.381 186.106C150.073 186.283 149.821 186.545 149.625 186.89C149.438 187.226 149.345 187.627 149.345 188.094C149.345 188.561 149.438 188.971 149.625 189.326C149.821 189.671 150.073 189.937 150.381 190.124C150.698 190.311 151.034 190.404 151.389 190.404C151.753 190.404 152.094 190.315 152.411 190.138C152.728 189.951 152.98 189.69 153.167 189.354C153.354 189.009 153.447 188.598 153.447 188.122ZM156.831 188.094C156.831 187.31 156.985 186.615 157.293 186.008C157.61 185.401 158.04 184.935 158.581 184.608C159.122 184.281 159.724 184.118 160.387 184.118C160.891 184.118 161.372 184.23 161.829 184.454C162.286 184.669 162.65 184.958 162.921 185.322V181.64H164.909V192H162.921V190.852C162.678 191.235 162.338 191.543 161.899 191.776C161.46 192.009 160.952 192.126 160.373 192.126C159.72 192.126 159.122 191.958 158.581 191.622C158.04 191.286 157.61 190.815 157.293 190.208C156.985 189.592 156.831 188.887 156.831 188.094ZM162.935 188.122C162.935 187.646 162.842 187.24 162.655 186.904C162.468 186.559 162.216 186.297 161.899 186.12C161.582 185.933 161.241 185.84 160.877 185.84C160.513 185.84 160.177 185.929 159.869 186.106C159.561 186.283 159.309 186.545 159.113 186.89C158.926 187.226 158.833 187.627 158.833 188.094C158.833 188.561 158.926 188.971 159.113 189.326C159.309 189.671 159.561 189.937 159.869 190.124C160.186 190.311 160.522 190.404 160.877 190.404C161.241 190.404 161.582 190.315 161.899 190.138C162.216 189.951 162.468 189.69 162.655 189.354C162.842 189.009 162.935 188.598 162.935 188.122ZM166.319 188.094C166.319 187.31 166.473 186.615 166.781 186.008C167.099 185.401 167.528 184.935 168.069 184.608C168.611 184.281 169.213 184.118 169.875 184.118C170.379 184.118 170.86 184.23 171.317 184.454C171.775 184.669 172.139 184.958 172.409 185.322V181.64H174.397V192H172.409V190.852C172.167 191.235 171.826 191.543 171.387 191.776C170.949 192.009 170.44 192.126 169.861 192.126C169.208 192.126 168.611 191.958 168.069 191.622C167.528 191.286 167.099 190.815 166.781 190.208C166.473 189.592 166.319 188.887 166.319 188.094ZM172.423 188.122C172.423 187.646 172.33 187.24 172.143 186.904C171.957 186.559 171.705 186.297 171.387 186.12C171.07 185.933 170.729 185.84 170.365 185.84C170.001 185.84 169.665 185.929 169.357 186.106C169.049 186.283 168.797 186.545 168.601 186.89C168.415 187.226 168.321 187.627 168.321 188.094C168.321 188.561 168.415 188.971 168.601 189.326C168.797 189.671 169.049 189.937 169.357 190.124C169.675 190.311 170.011 190.404 170.365 190.404C170.729 190.404 171.07 190.315 171.387 190.138C171.705 189.951 171.957 189.69 172.143 189.354C172.33 189.009 172.423 188.598 172.423 188.122ZM178.272 185.448C178.524 185.037 178.85 184.715 179.252 184.482C179.662 184.249 180.129 184.132 180.652 184.132V186.19H180.134C179.518 186.19 179.051 186.335 178.734 186.624C178.426 186.913 178.272 187.417 178.272 188.136V192H176.312V184.244H178.272V185.448ZM189.182 187.954C189.182 188.234 189.163 188.486 189.126 188.71H183.456C183.503 189.27 183.699 189.709 184.044 190.026C184.389 190.343 184.814 190.502 185.318 190.502C186.046 190.502 186.564 190.189 186.872 189.564H188.986C188.762 190.311 188.333 190.927 187.698 191.412C187.063 191.888 186.284 192.126 185.36 192.126C184.613 192.126 183.941 191.963 183.344 191.636C182.756 191.3 182.294 190.829 181.958 190.222C181.631 189.615 181.468 188.915 181.468 188.122C181.468 187.319 181.631 186.615 181.958 186.008C182.285 185.401 182.742 184.935 183.33 184.608C183.918 184.281 184.595 184.118 185.36 184.118C186.097 184.118 186.755 184.277 187.334 184.594C187.922 184.911 188.375 185.364 188.692 185.952C189.019 186.531 189.182 187.198 189.182 187.954ZM187.152 187.394C187.143 186.89 186.961 186.489 186.606 186.19C186.251 185.882 185.817 185.728 185.304 185.728C184.819 185.728 184.408 185.877 184.072 186.176C183.745 186.465 183.545 186.871 183.47 187.394H187.152ZM193.58 192.126C192.946 192.126 192.376 192.014 191.872 191.79C191.368 191.557 190.967 191.244 190.668 190.852C190.379 190.46 190.22 190.026 190.192 189.55H192.166C192.204 189.849 192.348 190.096 192.6 190.292C192.862 190.488 193.184 190.586 193.566 190.586C193.94 190.586 194.229 190.511 194.434 190.362C194.649 190.213 194.756 190.021 194.756 189.788C194.756 189.536 194.626 189.349 194.364 189.228C194.112 189.097 193.706 188.957 193.146 188.808C192.568 188.668 192.092 188.523 191.718 188.374C191.354 188.225 191.037 187.996 190.766 187.688C190.505 187.38 190.374 186.965 190.374 186.442C190.374 186.013 190.496 185.621 190.738 185.266C190.99 184.911 191.345 184.631 191.802 184.426C192.269 184.221 192.815 184.118 193.44 184.118C194.364 184.118 195.102 184.351 195.652 184.818C196.203 185.275 196.506 185.896 196.562 186.68H194.686C194.658 186.372 194.528 186.129 194.294 185.952C194.07 185.765 193.767 185.672 193.384 185.672C193.03 185.672 192.754 185.737 192.558 185.868C192.372 185.999 192.278 186.181 192.278 186.414C192.278 186.675 192.409 186.876 192.67 187.016C192.932 187.147 193.338 187.282 193.888 187.422C194.448 187.562 194.91 187.707 195.274 187.856C195.638 188.005 195.951 188.239 196.212 188.556C196.483 188.864 196.623 189.275 196.632 189.788C196.632 190.236 196.506 190.637 196.254 190.992C196.012 191.347 195.657 191.627 195.19 191.832C194.733 192.028 194.196 192.126 193.58 192.126ZM201.209 192.126C200.575 192.126 200.005 192.014 199.501 191.79C198.997 191.557 198.596 191.244 198.297 190.852C198.008 190.46 197.849 190.026 197.821 189.55H199.795C199.833 189.849 199.977 190.096 200.229 190.292C200.491 190.488 200.813 190.586 201.195 190.586C201.569 190.586 201.858 190.511 202.063 190.362C202.278 190.213 202.385 190.021 202.385 189.788C202.385 189.536 202.255 189.349 201.993 189.228C201.741 189.097 201.335 188.957 200.775 188.808C200.197 188.668 199.721 188.523 199.347 188.374C198.983 188.225 198.666 187.996 198.395 187.688C198.134 187.38 198.003 186.965 198.003 186.442C198.003 186.013 198.125 185.621 198.367 185.266C198.619 184.911 198.974 184.631 199.431 184.426C199.898 184.221 200.444 184.118 201.069 184.118C201.993 184.118 202.731 184.351 203.281 184.818C203.832 185.275 204.135 185.896 204.191 186.68H202.315C202.287 186.372 202.157 186.129 201.923 185.952C201.699 185.765 201.396 185.672 201.013 185.672C200.659 185.672 200.383 185.737 200.187 185.868C200.001 185.999 199.907 186.181 199.907 186.414C199.907 186.675 200.038 186.876 200.299 187.016C200.561 187.147 200.967 187.282 201.517 187.422C202.077 187.562 202.539 187.707 202.903 187.856C203.267 188.005 203.58 188.239 203.841 188.556C204.112 188.864 204.252 189.275 204.261 189.788C204.261 190.236 204.135 190.637 203.883 190.992C203.641 191.347 203.286 191.627 202.819 191.832C202.362 192.028 201.825 192.126 201.209 192.126ZM212.762 185.854H211.404V192H209.416V185.854H208.534V184.244H209.416V183.852C209.416 182.9 209.687 182.2 210.228 181.752C210.77 181.304 211.586 181.094 212.678 181.122V182.774C212.202 182.765 211.871 182.844 211.684 183.012C211.498 183.18 211.404 183.483 211.404 183.922V184.244H212.762V185.854ZM217.476 192.126C216.73 192.126 216.058 191.963 215.46 191.636C214.863 191.3 214.392 190.829 214.046 190.222C213.71 189.615 213.542 188.915 213.542 188.122C213.542 187.329 213.715 186.629 214.06 186.022C214.415 185.415 214.896 184.949 215.502 184.622C216.109 184.286 216.786 184.118 217.532 184.118C218.279 184.118 218.956 184.286 219.562 184.622C220.169 184.949 220.645 185.415 220.99 186.022C221.345 186.629 221.522 187.329 221.522 188.122C221.522 188.915 221.34 189.615 220.976 190.222C220.622 190.829 220.136 191.3 219.52 191.636C218.914 191.963 218.232 192.126 217.476 192.126ZM217.476 190.418C217.831 190.418 218.162 190.334 218.47 190.166C218.788 189.989 219.04 189.727 219.226 189.382C219.413 189.037 219.506 188.617 219.506 188.122C219.506 187.385 219.31 186.82 218.918 186.428C218.536 186.027 218.064 185.826 217.504 185.826C216.944 185.826 216.473 186.027 216.09 186.428C215.717 186.82 215.53 187.385 215.53 188.122C215.53 188.859 215.712 189.429 216.076 189.83C216.45 190.222 216.916 190.418 217.476 190.418ZM230.282 184.244V192H228.308V191.02C228.056 191.356 227.725 191.622 227.314 191.818C226.913 192.005 226.474 192.098 225.998 192.098C225.391 192.098 224.855 191.972 224.388 191.72C223.921 191.459 223.553 191.081 223.282 190.586C223.021 190.082 222.89 189.485 222.89 188.794V184.244H224.85V188.514C224.85 189.13 225.004 189.606 225.312 189.942C225.62 190.269 226.04 190.432 226.572 190.432C227.113 190.432 227.538 190.269 227.846 189.942C228.154 189.606 228.308 189.13 228.308 188.514V184.244H230.282ZM236.514 184.132C237.438 184.132 238.185 184.426 238.754 185.014C239.323 185.593 239.608 186.405 239.608 187.45V192H237.648V187.716C237.648 187.1 237.494 186.629 237.186 186.302C236.878 185.966 236.458 185.798 235.926 185.798C235.385 185.798 234.955 185.966 234.638 186.302C234.33 186.629 234.176 187.1 234.176 187.716V192H232.216V184.244H234.176V185.21C234.437 184.874 234.769 184.613 235.17 184.426C235.581 184.23 236.029 184.132 236.514 184.132ZM240.968 188.094C240.968 187.31 241.122 186.615 241.43 186.008C241.747 185.401 242.177 184.935 242.718 184.608C243.259 184.281 243.861 184.118 244.524 184.118C245.028 184.118 245.509 184.23 245.966 184.454C246.423 184.669 246.787 184.958 247.058 185.322V181.64H249.046V192H247.058V190.852C246.815 191.235 246.475 191.543 246.036 191.776C245.597 192.009 245.089 192.126 244.51 192.126C243.857 192.126 243.259 191.958 242.718 191.622C242.177 191.286 241.747 190.815 241.43 190.208C241.122 189.592 240.968 188.887 240.968 188.094ZM247.072 188.122C247.072 187.646 246.979 187.24 246.792 186.904C246.605 186.559 246.353 186.297 246.036 186.12C245.719 185.933 245.378 185.84 245.014 185.84C244.65 185.84 244.314 185.929 244.006 186.106C243.698 186.283 243.446 186.545 243.25 186.89C243.063 187.226 242.97 187.627 242.97 188.094C242.97 188.561 243.063 188.971 243.25 189.326C243.446 189.671 243.698 189.937 244.006 190.124C244.323 190.311 244.659 190.404 245.014 190.404C245.378 190.404 245.719 190.315 246.036 190.138C246.353 189.951 246.605 189.69 246.792 189.354C246.979 189.009 247.072 188.598 247.072 188.122Z" fill="#727376"/>
<path d="M56.1547 214.112H59.0827V215H55.0627V206.636H56.1547V214.112ZM66.2424 211.46C66.2424 211.668 66.2304 211.888 66.2064 212.12H60.9504C60.9904 212.768 61.2104 213.276 61.6104 213.644C62.0184 214.004 62.5104 214.184 63.0864 214.184C63.5584 214.184 63.9504 214.076 64.2624 213.86C64.5824 213.636 64.8064 213.34 64.9344 212.972H66.1104C65.9344 213.604 65.5824 214.12 65.0544 214.52C64.5264 214.912 63.8704 215.108 63.0864 215.108C62.4624 215.108 61.9024 214.968 61.4064 214.688C60.9184 214.408 60.5344 214.012 60.2544 213.5C59.9744 212.98 59.8344 212.38 59.8344 211.7C59.8344 211.02 59.9704 210.424 60.2424 209.912C60.5144 209.4 60.8944 209.008 61.3824 208.736C61.8784 208.456 62.4464 208.316 63.0864 208.316C63.7104 208.316 64.2624 208.452 64.7424 208.724C65.2224 208.996 65.5904 209.372 65.8464 209.852C66.1104 210.324 66.2424 210.86 66.2424 211.46ZM65.1144 211.232C65.1144 210.816 65.0224 210.46 64.8384 210.164C64.6544 209.86 64.4024 209.632 64.0824 209.48C63.7704 209.32 63.4224 209.24 63.0384 209.24C62.4864 209.24 62.0144 209.416 61.6224 209.768C61.2384 210.12 61.0184 210.608 60.9624 211.232H65.1144ZM69.0158 209.324V213.2C69.0158 213.52 69.0838 213.748 69.2198 213.884C69.3558 214.012 69.5918 214.076 69.9278 214.076H70.7318V215H69.7478C69.1398 215 68.6838 214.86 68.3798 214.58C68.0758 214.3 67.9238 213.84 67.9238 213.2V209.324H67.0718V208.424H67.9238V206.768H69.0158V208.424H70.7318V209.324H69.0158ZM72.2229 206.636H73.4349L72.2829 209.36H71.5149L72.2229 206.636ZM77.0079 215.108C76.5039 215.108 76.0519 215.024 75.6519 214.856C75.2519 214.68 74.9359 214.44 74.7039 214.136C74.4719 213.824 74.3439 213.468 74.3199 213.068H75.4479C75.4799 213.396 75.6319 213.664 75.9039 213.872C76.1839 214.08 76.5479 214.184 76.9959 214.184C77.4119 214.184 77.7399 214.092 77.9799 213.908C78.2199 213.724 78.3399 213.492 78.3399 213.212C78.3399 212.924 78.2119 212.712 77.9559 212.576C77.6999 212.432 77.3039 212.292 76.7679 212.156C76.2799 212.028 75.8799 211.9 75.5679 211.772C75.2639 211.636 74.9999 211.44 74.7759 211.184C74.5599 210.92 74.4519 210.576 74.4519 210.152C74.4519 209.816 74.5519 209.508 74.7519 209.228C74.9519 208.948 75.2359 208.728 75.6039 208.568C75.9719 208.4 76.3919 208.316 76.8639 208.316C77.5919 208.316 78.1799 208.5 78.6279 208.868C79.0759 209.236 79.3159 209.74 79.3479 210.38H78.2559C78.2319 210.036 78.0919 209.76 77.8359 209.552C77.5879 209.344 77.2519 209.24 76.8279 209.24C76.4359 209.24 76.1239 209.324 75.8919 209.492C75.6599 209.66 75.5439 209.88 75.5439 210.152C75.5439 210.368 75.6119 210.548 75.7479 210.692C75.8919 210.828 76.0679 210.94 76.2759 211.028C76.4919 211.108 76.7879 211.2 77.1639 211.304C77.6359 211.432 78.0199 211.56 78.3159 211.688C78.6119 211.808 78.8639 211.992 79.0719 212.24C79.2879 212.488 79.3999 212.812 79.4079 213.212C79.4079 213.572 79.3079 213.896 79.1079 214.184C78.9079 214.472 78.6239 214.7 78.2559 214.868C77.8959 215.028 77.4799 215.108 77.0079 215.108ZM85.4806 209.324V213.2C85.4806 213.52 85.5486 213.748 85.6846 213.884C85.8206 214.012 86.0566 214.076 86.3926 214.076H87.1966V215H86.2126C85.6046 215 85.1486 214.86 84.8446 214.58C84.5406 214.3 84.3886 213.84 84.3886 213.2V209.324H83.5366V208.424H84.3886V206.768H85.4806V208.424H87.1966V209.324H85.4806ZM89.6117 209.492C89.8037 209.116 90.0757 208.824 90.4277 208.616C90.7877 208.408 91.2237 208.304 91.7357 208.304V209.432H91.4477C90.2237 209.432 89.6117 210.096 89.6117 211.424V215H88.5197V208.424H89.6117V209.492ZM98.6603 208.424L94.7003 218.096H93.5723L94.8683 214.928L92.2163 208.424H93.4283L95.4923 213.752L97.5323 208.424H98.6603ZM105.285 215.108C104.781 215.108 104.329 215.024 103.929 214.856C103.529 214.68 103.213 214.44 102.981 214.136C102.749 213.824 102.621 213.468 102.597 213.068H103.725C103.757 213.396 103.909 213.664 104.181 213.872C104.461 214.08 104.825 214.184 105.273 214.184C105.689 214.184 106.017 214.092 106.257 213.908C106.497 213.724 106.617 213.492 106.617 213.212C106.617 212.924 106.489 212.712 106.233 212.576C105.977 212.432 105.581 212.292 105.045 212.156C104.557 212.028 104.157 211.9 103.845 211.772C103.541 211.636 103.277 211.44 103.053 211.184C102.837 210.92 102.729 210.576 102.729 210.152C102.729 209.816 102.829 209.508 103.029 209.228C103.229 208.948 103.513 208.728 103.881 208.568C104.249 208.4 104.669 208.316 105.141 208.316C105.869 208.316 106.457 208.5 106.905 208.868C107.353 209.236 107.593 209.74 107.625 210.38H106.533C106.509 210.036 106.369 209.76 106.113 209.552C105.865 209.344 105.529 209.24 105.105 209.24C104.713 209.24 104.401 209.324 104.169 209.492C103.937 209.66 103.821 209.88 103.821 210.152C103.821 210.368 103.889 210.548 104.025 210.692C104.169 210.828 104.345 210.94 104.553 211.028C104.769 211.108 105.065 211.2 105.441 211.304C105.913 211.432 106.297 211.56 106.593 211.688C106.889 211.808 107.141 211.992 107.349 212.24C107.565 212.488 107.677 212.812 107.685 213.212C107.685 213.572 107.585 213.896 107.385 214.184C107.185 214.472 106.901 214.7 106.533 214.868C106.173 215.028 105.757 215.108 105.285 215.108ZM115.227 211.46C115.227 211.668 115.215 211.888 115.191 212.12H109.935C109.975 212.768 110.195 213.276 110.595 213.644C111.003 214.004 111.495 214.184 112.071 214.184C112.543 214.184 112.935 214.076 113.247 213.86C113.567 213.636 113.791 213.34 113.919 212.972H115.095C114.919 213.604 114.567 214.12 114.039 214.52C113.511 214.912 112.855 215.108 112.071 215.108C111.447 215.108 110.887 214.968 110.391 214.688C109.903 214.408 109.519 214.012 109.239 213.5C108.959 212.98 108.819 212.38 108.819 211.7C108.819 211.02 108.955 210.424 109.227 209.912C109.499 209.4 109.879 209.008 110.367 208.736C110.863 208.456 111.431 208.316 112.071 208.316C112.695 208.316 113.247 208.452 113.727 208.724C114.207 208.996 114.575 209.372 114.831 209.852C115.095 210.324 115.227 210.86 115.227 211.46ZM114.099 211.232C114.099 210.816 114.007 210.46 113.823 210.164C113.639 209.86 113.387 209.632 113.067 209.48C112.755 209.32 112.407 209.24 112.023 209.24C111.471 209.24 110.999 209.416 110.607 209.768C110.223 210.12 110.003 210.608 109.947 211.232H114.099ZM116.26 211.688C116.26 211.016 116.396 210.428 116.668 209.924C116.94 209.412 117.312 209.016 117.784 208.736C118.264 208.456 118.796 208.316 119.38 208.316C119.956 208.316 120.456 208.44 120.88 208.688C121.304 208.936 121.62 209.248 121.828 209.624V208.424H122.932V215H121.828V213.776C121.612 214.16 121.288 214.48 120.856 214.736C120.432 214.984 119.936 215.108 119.368 215.108C118.784 215.108 118.256 214.964 117.784 214.676C117.312 214.388 116.94 213.984 116.668 213.464C116.396 212.944 116.26 212.352 116.26 211.688ZM121.828 211.7C121.828 211.204 121.728 210.772 121.528 210.404C121.328 210.036 121.056 209.756 120.712 209.564C120.376 209.364 120.004 209.264 119.596 209.264C119.188 209.264 118.816 209.36 118.48 209.552C118.144 209.744 117.876 210.024 117.676 210.392C117.476 210.76 117.376 211.192 117.376 211.688C117.376 212.192 117.476 212.632 117.676 213.008C117.876 213.376 118.144 213.66 118.48 213.86C118.816 214.052 119.188 214.148 119.596 214.148C120.004 214.148 120.376 214.052 120.712 213.86C121.056 213.66 121.328 213.376 121.528 213.008C121.728 212.632 121.828 212.196 121.828 211.7ZM125.87 209.492C126.062 209.116 126.334 208.824 126.686 208.616C127.046 208.408 127.482 208.304 127.994 208.304V209.432H127.706C126.482 209.432 125.87 210.096 125.87 211.424V215H124.778V208.424H125.87V209.492ZM128.846 211.7C128.846 211.02 128.982 210.428 129.254 209.924C129.526 209.412 129.902 209.016 130.382 208.736C130.87 208.456 131.426 208.316 132.05 208.316C132.858 208.316 133.522 208.512 134.042 208.904C134.57 209.296 134.918 209.84 135.086 210.536H133.91C133.798 210.136 133.578 209.82 133.25 209.588C132.93 209.356 132.53 209.24 132.05 209.24C131.426 209.24 130.922 209.456 130.538 209.888C130.154 210.312 129.962 210.916 129.962 211.7C129.962 212.492 130.154 213.104 130.538 213.536C130.922 213.968 131.426 214.184 132.05 214.184C132.53 214.184 132.93 214.072 133.25 213.848C133.57 213.624 133.79 213.304 133.91 212.888H135.086C134.91 213.56 134.558 214.1 134.03 214.508C133.502 214.908 132.842 215.108 132.05 215.108C131.426 215.108 130.87 214.968 130.382 214.688C129.902 214.408 129.526 214.012 129.254 213.5C128.982 212.988 128.846 212.388 128.846 211.7ZM139.807 208.304C140.303 208.304 140.751 208.412 141.151 208.628C141.551 208.836 141.863 209.152 142.087 209.576C142.319 210 142.435 210.516 142.435 211.124V215H141.355V211.28C141.355 210.624 141.191 210.124 140.863 209.78C140.535 209.428 140.087 209.252 139.519 209.252C138.943 209.252 138.483 209.432 138.139 209.792C137.803 210.152 137.635 210.676 137.635 211.364V215H136.543V206.12H137.635V209.36C137.851 209.024 138.147 208.764 138.523 208.58C138.907 208.396 139.335 208.304 139.807 208.304ZM144.783 207.356C144.575 207.356 144.399 207.284 144.255 207.14C144.111 206.996 144.039 206.82 144.039 206.612C144.039 206.404 144.111 206.228 144.255 206.084C144.399 205.94 144.575 205.868 144.783 205.868C144.983 205.868 145.151 205.94 145.287 206.084C145.431 206.228 145.503 206.404 145.503 206.612C145.503 206.82 145.431 206.996 145.287 207.14C145.151 207.284 144.983 207.356 144.783 207.356ZM145.311 208.424V215H144.219V208.424H145.311ZM150.376 208.304C151.176 208.304 151.824 208.548 152.32 209.036C152.816 209.516 153.064 210.212 153.064 211.124V215H151.984V211.28C151.984 210.624 151.82 210.124 151.492 209.78C151.164 209.428 150.716 209.252 150.148 209.252C149.572 209.252 149.112 209.432 148.768 209.792C148.432 210.152 148.264 210.676 148.264 211.364V215H147.172V208.424H148.264V209.36C148.48 209.024 148.772 208.764 149.14 208.58C149.516 208.396 149.928 208.304 150.376 208.304ZM157.56 208.316C158.128 208.316 158.624 208.44 159.048 208.688C159.48 208.936 159.8 209.248 160.008 209.624V208.424H161.112V215.144C161.112 215.744 160.984 216.276 160.728 216.74C160.472 217.212 160.104 217.58 159.624 217.844C159.152 218.108 158.6 218.24 157.968 218.24C157.104 218.24 156.384 218.036 155.808 217.628C155.232 217.22 154.892 216.664 154.788 215.96H155.868C155.988 216.36 156.236 216.68 156.612 216.92C156.988 217.168 157.44 217.292 157.968 217.292C158.568 217.292 159.056 217.104 159.432 216.728C159.816 216.352 160.008 215.824 160.008 215.144V213.764C159.792 214.148 159.472 214.468 159.048 214.724C158.624 214.98 158.128 215.108 157.56 215.108C156.976 215.108 156.444 214.964 155.964 214.676C155.492 214.388 155.12 213.984 154.848 213.464C154.576 212.944 154.44 212.352 154.44 211.688C154.44 211.016 154.576 210.428 154.848 209.924C155.12 209.412 155.492 209.016 155.964 208.736C156.444 208.456 156.976 208.316 157.56 208.316ZM160.008 211.7C160.008 211.204 159.908 210.772 159.708 210.404C159.508 210.036 159.236 209.756 158.892 209.564C158.556 209.364 158.184 209.264 157.776 209.264C157.368 209.264 156.996 209.36 156.66 209.552C156.324 209.744 156.056 210.024 155.856 210.392C155.656 210.76 155.556 211.192 155.556 211.688C155.556 212.192 155.656 212.632 155.856 213.008C156.056 213.376 156.324 213.66 156.66 213.86C156.996 214.052 157.368 214.148 157.776 214.148C158.184 214.148 158.556 214.052 158.892 213.86C159.236 213.66 159.508 213.376 159.708 213.008C159.908 212.632 160.008 212.196 160.008 211.7ZM167.488 209.324V213.2C167.488 213.52 167.556 213.748 167.692 213.884C167.828 214.012 168.064 214.076 168.4 214.076H169.204V215H168.22C167.612 215 167.156 214.86 166.852 214.58C166.548 214.3 166.396 213.84 166.396 213.2V209.324H165.544V208.424H166.396V206.768H167.488V208.424H169.204V209.324H167.488ZM173.792 208.304C174.288 208.304 174.736 208.412 175.136 208.628C175.536 208.836 175.848 209.152 176.072 209.576C176.304 210 176.42 210.516 176.42 211.124V215H175.34V211.28C175.34 210.624 175.176 210.124 174.848 209.78C174.52 209.428 174.072 209.252 173.504 209.252C172.928 209.252 172.468 209.432 172.124 209.792C171.788 210.152 171.62 210.676 171.62 211.364V215H170.528V206.12H171.62V209.36C171.836 209.024 172.132 208.764 172.508 208.58C172.892 208.396 173.32 208.304 173.792 208.304ZM184.203 211.46C184.203 211.668 184.191 211.888 184.167 212.12H178.911C178.951 212.768 179.171 213.276 179.571 213.644C179.979 214.004 180.471 214.184 181.047 214.184C181.519 214.184 181.911 214.076 182.223 213.86C182.543 213.636 182.767 213.34 182.895 212.972H184.071C183.895 213.604 183.543 214.12 183.015 214.52C182.487 214.912 181.831 215.108 181.047 215.108C180.423 215.108 179.863 214.968 179.367 214.688C178.879 214.408 178.495 214.012 178.215 213.5C177.935 212.98 177.795 212.38 177.795 211.7C177.795 211.02 177.931 210.424 178.203 209.912C178.475 209.4 178.855 209.008 179.343 208.736C179.839 208.456 180.407 208.316 181.047 208.316C181.671 208.316 182.223 208.452 182.703 208.724C183.183 208.996 183.551 209.372 183.807 209.852C184.071 210.324 184.203 210.86 184.203 211.46ZM183.075 211.232C183.075 210.816 182.983 210.46 182.799 210.164C182.615 209.86 182.363 209.632 182.043 209.48C181.731 209.32 181.383 209.24 180.999 209.24C180.447 209.24 179.975 209.416 179.583 209.768C179.199 210.12 178.979 210.608 178.923 211.232H183.075ZM188.436 211.688C188.436 211.016 188.572 210.428 188.844 209.924C189.116 209.412 189.488 209.016 189.96 208.736C190.44 208.456 190.972 208.316 191.556 208.316C192.132 208.316 192.632 208.44 193.056 208.688C193.48 208.936 193.796 209.248 194.004 209.624V208.424H195.108V215H194.004V213.776C193.788 214.16 193.464 214.48 193.032 214.736C192.608 214.984 192.112 215.108 191.544 215.108C190.96 215.108 190.432 214.964 189.96 214.676C189.488 214.388 189.116 213.984 188.844 213.464C188.572 212.944 188.436 212.352 188.436 211.688ZM194.004 211.7C194.004 211.204 193.904 210.772 193.704 210.404C193.504 210.036 193.232 209.756 192.888 209.564C192.552 209.364 192.18 209.264 191.772 209.264C191.364 209.264 190.992 209.36 190.656 209.552C190.32 209.744 190.052 210.024 189.852 210.392C189.652 210.76 189.552 211.192 189.552 211.688C189.552 212.192 189.652 212.632 189.852 213.008C190.052 213.376 190.32 213.66 190.656 213.86C190.992 214.052 191.364 214.148 191.772 214.148C192.18 214.148 192.552 214.052 192.888 213.86C193.232 213.66 193.504 213.376 193.704 213.008C193.904 212.632 194.004 212.196 194.004 211.7ZM196.545 211.688C196.545 211.016 196.681 210.428 196.953 209.924C197.225 209.412 197.597 209.016 198.069 208.736C198.549 208.456 199.085 208.316 199.677 208.316C200.189 208.316 200.665 208.436 201.105 208.676C201.545 208.908 201.881 209.216 202.113 209.6V206.12H203.217V215H202.113V213.764C201.897 214.156 201.577 214.48 201.153 214.736C200.729 214.984 200.233 215.108 199.665 215.108C199.081 215.108 198.549 214.964 198.069 214.676C197.597 214.388 197.225 213.984 196.953 213.464C196.681 212.944 196.545 212.352 196.545 211.688ZM202.113 211.7C202.113 211.204 202.013 210.772 201.813 210.404C201.613 210.036 201.341 209.756 200.997 209.564C200.661 209.364 200.289 209.264 199.881 209.264C199.473 209.264 199.101 209.36 198.765 209.552C198.429 209.744 198.161 210.024 197.961 210.392C197.761 210.76 197.661 211.192 197.661 211.688C197.661 212.192 197.761 212.632 197.961 213.008C198.161 213.376 198.429 213.66 198.765 213.86C199.101 214.052 199.473 214.148 199.881 214.148C200.289 214.148 200.661 214.052 200.997 213.86C201.341 213.66 201.613 213.376 201.813 213.008C202.013 212.632 202.113 212.196 202.113 211.7ZM204.655 211.688C204.655 211.016 204.791 210.428 205.063 209.924C205.335 209.412 205.707 209.016 206.179 208.736C206.659 208.456 207.195 208.316 207.787 208.316C208.299 208.316 208.775 208.436 209.215 208.676C209.655 208.908 209.991 209.216 210.223 209.6V206.12H211.327V215H210.223V213.764C210.007 214.156 209.687 214.48 209.263 214.736C208.839 214.984 208.343 215.108 207.775 215.108C207.191 215.108 206.659 214.964 206.179 214.676C205.707 214.388 205.335 213.984 205.063 213.464C204.791 212.944 204.655 212.352 204.655 211.688ZM210.223 211.7C210.223 211.204 210.123 210.772 209.923 210.404C209.723 210.036 209.451 209.756 209.107 209.564C208.771 209.364 208.399 209.264 207.991 209.264C207.583 209.264 207.211 209.36 206.875 209.552C206.539 209.744 206.271 210.024 206.071 210.392C205.871 210.76 205.771 211.192 205.771 211.688C205.771 212.192 205.871 212.632 206.071 213.008C206.271 213.376 206.539 213.66 206.875 213.86C207.211 214.052 207.583 214.148 207.991 214.148C208.399 214.148 208.771 214.052 209.107 213.86C209.451 213.66 209.723 213.376 209.923 213.008C210.123 212.632 210.223 212.196 210.223 211.7ZM214.264 209.492C214.456 209.116 214.728 208.824 215.08 208.616C215.44 208.408 215.876 208.304 216.388 208.304V209.432H216.1C214.876 209.432 214.264 210.096 214.264 211.424V215H213.172V208.424H214.264V209.492ZM223.649 211.46C223.649 211.668 223.637 211.888 223.613 212.12H218.357C218.397 212.768 218.617 213.276 219.017 213.644C219.425 214.004 219.917 214.184 220.493 214.184C220.965 214.184 221.357 214.076 221.669 213.86C221.989 213.636 222.213 213.34 222.341 212.972H223.517C223.341 213.604 222.989 214.12 222.461 214.52C221.933 214.912 221.277 215.108 220.493 215.108C219.869 215.108 219.309 214.968 218.813 214.688C218.325 214.408 217.941 214.012 217.661 213.5C217.381 212.98 217.241 212.38 217.241 211.7C217.241 211.02 217.377 210.424 217.649 209.912C217.921 209.4 218.301 209.008 218.789 208.736C219.285 208.456 219.853 208.316 220.493 208.316C221.117 208.316 221.669 208.452 222.149 208.724C222.629 208.996 222.997 209.372 223.253 209.852C223.517 210.324 223.649 210.86 223.649 211.46ZM222.521 211.232C222.521 210.816 222.429 210.46 222.245 210.164C222.061 209.86 221.809 209.632 221.489 209.48C221.177 209.32 220.829 209.24 220.445 209.24C219.893 209.24 219.421 209.416 219.029 209.768C218.645 210.12 218.425 210.608 218.369 211.232H222.521ZM227.418 215.108C226.914 215.108 226.462 215.024 226.062 214.856C225.662 214.68 225.346 214.44 225.114 214.136C224.882 213.824 224.754 213.468 224.73 213.068H225.858C225.89 213.396 226.042 213.664 226.314 213.872C226.594 214.08 226.958 214.184 227.406 214.184C227.822 214.184 228.15 214.092 228.39 213.908C228.63 213.724 228.75 213.492 228.75 213.212C228.75 212.924 228.622 212.712 228.366 212.576C228.11 212.432 227.714 212.292 227.178 212.156C226.69 212.028 226.29 211.9 225.978 211.772C225.674 211.636 225.41 211.44 225.186 211.184C224.97 210.92 224.862 210.576 224.862 210.152C224.862 209.816 224.962 209.508 225.162 209.228C225.362 208.948 225.646 208.728 226.014 208.568C226.382 208.4 226.802 208.316 227.274 208.316C228.002 208.316 228.59 208.5 229.038 208.868C229.486 209.236 229.726 209.74 229.758 210.38H228.666C228.642 210.036 228.502 209.76 228.246 209.552C227.998 209.344 227.662 209.24 227.238 209.24C226.846 209.24 226.534 209.324 226.302 209.492C226.07 209.66 225.954 209.88 225.954 210.152C225.954 210.368 226.022 210.548 226.158 210.692C226.302 210.828 226.478 210.94 226.686 211.028C226.902 211.108 227.198 211.2 227.574 211.304C228.046 211.432 228.43 211.56 228.726 211.688C229.022 211.808 229.274 211.992 229.482 212.24C229.698 212.488 229.81 212.812 229.818 213.212C229.818 213.572 229.718 213.896 229.518 214.184C229.318 214.472 229.034 214.7 228.666 214.868C228.306 215.028 227.89 215.108 227.418 215.108ZM233.688 215.108C233.184 215.108 232.732 215.024 232.332 214.856C231.932 214.68 231.616 214.44 231.384 214.136C231.152 213.824 231.024 213.468 231 213.068H232.128C232.16 213.396 232.312 213.664 232.584 213.872C232.864 214.08 233.228 214.184 233.676 214.184C234.092 214.184 234.42 214.092 234.66 213.908C234.9 213.724 235.02 213.492 235.02 213.212C235.02 212.924 234.892 212.712 234.636 212.576C234.38 212.432 233.984 212.292 233.448 212.156C232.96 212.028 232.56 211.9 232.248 211.772C231.944 211.636 231.68 211.44 231.456 211.184C231.24 210.92 231.132 210.576 231.132 210.152C231.132 209.816 231.232 209.508 231.432 209.228C231.632 208.948 231.916 208.728 232.284 208.568C232.652 208.4 233.072 208.316 233.544 208.316C234.272 208.316 234.86 208.5 235.308 208.868C235.756 209.236 235.996 209.74 236.028 210.38H234.936C234.912 210.036 234.772 209.76 234.516 209.552C234.268 209.344 233.932 209.24 233.508 209.24C233.116 209.24 232.804 209.324 232.572 209.492C232.34 209.66 232.224 209.88 232.224 210.152C232.224 210.368 232.292 210.548 232.428 210.692C232.572 210.828 232.748 210.94 232.956 211.028C233.172 211.108 233.468 211.2 233.844 211.304C234.316 211.432 234.7 211.56 234.996 211.688C235.292 211.808 235.544 211.992 235.752 212.24C235.968 212.488 236.08 212.812 236.088 213.212C236.088 213.572 235.988 213.896 235.788 214.184C235.588 214.472 235.304 214.7 234.936 214.868C234.576 215.028 234.16 215.108 233.688 215.108ZM240.42 211.688C240.42 211.016 240.556 210.428 240.828 209.924C241.1 209.412 241.472 209.016 241.944 208.736C242.424 208.456 242.956 208.316 243.54 208.316C244.116 208.316 244.616 208.44 245.04 208.688C245.464 208.936 245.78 209.248 245.988 209.624V208.424H247.092V215H245.988V213.776C245.772 214.16 245.448 214.48 245.016 214.736C244.592 214.984 244.096 215.108 243.528 215.108C242.944 215.108 242.416 214.964 241.944 214.676C241.472 214.388 241.1 213.984 240.828 213.464C240.556 212.944 240.42 212.352 240.42 211.688ZM245.988 211.7C245.988 211.204 245.888 210.772 245.688 210.404C245.488 210.036 245.216 209.756 244.872 209.564C244.536 209.364 244.164 209.264 243.756 209.264C243.348 209.264 242.976 209.36 242.64 209.552C242.304 209.744 242.036 210.024 241.836 210.392C241.636 210.76 241.536 211.192 241.536 211.688C241.536 212.192 241.636 212.632 241.836 213.008C242.036 213.376 242.304 213.66 242.64 213.86C242.976 214.052 243.348 214.148 243.756 214.148C244.164 214.148 244.536 214.052 244.872 213.86C245.216 213.66 245.488 213.376 245.688 213.008C245.888 212.632 245.988 212.196 245.988 211.7ZM251.65 208.316C252.218 208.316 252.714 208.44 253.138 208.688C253.57 208.936 253.89 209.248 254.098 209.624V208.424H255.202V215.144C255.202 215.744 255.074 216.276 254.818 216.74C254.562 217.212 254.194 217.58 253.714 217.844C253.242 218.108 252.69 218.24 252.058 218.24C251.194 218.24 250.474 218.036 249.898 217.628C249.322 217.22 248.982 216.664 248.878 215.96H249.958C250.078 216.36 250.326 216.68 250.702 216.92C251.078 217.168 251.53 217.292 252.058 217.292C252.658 217.292 253.146 217.104 253.522 216.728C253.906 216.352 254.098 215.824 254.098 215.144V213.764C253.882 214.148 253.562 214.468 253.138 214.724C252.714 214.98 252.218 215.108 251.65 215.108C251.066 215.108 250.534 214.964 250.054 214.676C249.582 214.388 249.21 213.984 248.938 213.464C248.666 212.944 248.53 212.352 248.53 211.688C248.53 211.016 248.666 210.428 248.938 209.924C249.21 209.412 249.582 209.016 250.054 208.736C250.534 208.456 251.066 208.316 251.65 208.316ZM254.098 211.7C254.098 211.204 253.998 210.772 253.798 210.404C253.598 210.036 253.326 209.756 252.982 209.564C252.646 209.364 252.274 209.264 251.866 209.264C251.458 209.264 251.086 209.36 250.75 209.552C250.414 209.744 250.146 210.024 249.946 210.392C249.746 210.76 249.646 211.192 249.646 211.688C249.646 212.192 249.746 212.632 249.946 213.008C250.146 213.376 250.414 213.66 250.75 213.86C251.086 214.052 251.458 214.148 251.866 214.148C252.274 214.148 252.646 214.052 252.982 213.86C253.326 213.66 253.598 213.376 253.798 213.008C253.998 212.632 254.098 212.196 254.098 211.7ZM256.639 211.688C256.639 211.016 256.775 210.428 257.047 209.924C257.319 209.412 257.691 209.016 258.163 208.736C258.643 208.456 259.175 208.316 259.759 208.316C260.335 208.316 260.835 208.44 261.259 208.688C261.683 208.936 261.999 209.248 262.207 209.624V208.424H263.311V215H262.207V213.776C261.991 214.16 261.667 214.48 261.235 214.736C260.811 214.984 260.315 215.108 259.747 215.108C259.163 215.108 258.635 214.964 258.163 214.676C257.691 214.388 257.319 213.984 257.047 213.464C256.775 212.944 256.639 212.352 256.639 211.688ZM262.207 211.7C262.207 211.204 262.107 210.772 261.907 210.404C261.707 210.036 261.435 209.756 261.091 209.564C260.755 209.364 260.383 209.264 259.975 209.264C259.567 209.264 259.195 209.36 258.859 209.552C258.523 209.744 258.255 210.024 258.055 210.392C257.855 210.76 257.755 211.192 257.755 211.688C257.755 212.192 257.855 212.632 258.055 213.008C258.255 213.376 258.523 213.66 258.859 213.86C259.195 214.052 259.567 214.148 259.975 214.148C260.383 214.148 260.755 214.052 261.091 213.86C261.435 213.66 261.707 213.376 261.907 213.008C262.107 212.632 262.207 212.196 262.207 211.7ZM265.72 207.356C265.512 207.356 265.336 207.284 265.192 207.14C265.048 206.996 264.976 206.82 264.976 206.612C264.976 206.404 265.048 206.228 265.192 206.084C265.336 205.94 265.512 205.868 265.72 205.868C265.92 205.868 266.088 205.94 266.224 206.084C266.368 206.228 266.44 206.404 266.44 206.612C266.44 206.82 266.368 206.996 266.224 207.14C266.088 207.284 265.92 207.356 265.72 207.356ZM266.248 208.424V215H265.156V208.424H266.248ZM271.314 208.304C272.114 208.304 272.762 208.548 273.258 209.036C273.754 209.516 274.002 210.212 274.002 211.124V215H272.922V211.28C272.922 210.624 272.758 210.124 272.43 209.78C272.102 209.428 271.654 209.252 271.086 209.252C270.51 209.252 270.05 209.432 269.706 209.792C269.37 210.152 269.202 210.676 269.202 211.364V215H268.11V208.424H269.202V209.36C269.418 209.024 269.71 208.764 270.078 208.58C270.454 208.396 270.866 208.304 271.314 208.304ZM132.893 226.424L130.841 233H129.713L128.129 227.78L126.545 233H125.417L123.353 226.424H124.469L125.981 231.944L127.613 226.424H128.729L130.325 231.956L131.813 226.424H132.893ZM134.541 225.356C134.333 225.356 134.157 225.284 134.013 225.14C133.869 224.996 133.797 224.82 133.797 224.612C133.797 224.404 133.869 224.228 134.013 224.084C134.157 223.94 134.333 223.868 134.541 223.868C134.741 223.868 134.909 223.94 135.045 224.084C135.189 224.228 135.261 224.404 135.261 224.612C135.261 224.82 135.189 224.996 135.045 225.14C134.909 225.284 134.741 225.356 134.541 225.356ZM135.069 226.424V233H133.977V226.424H135.069ZM138.262 227.324V231.2C138.262 231.52 138.33 231.748 138.466 231.884C138.602 232.012 138.838 232.076 139.174 232.076H139.978V233H138.994C138.386 233 137.93 232.86 137.626 232.58C137.322 232.3 137.17 231.84 137.17 231.2V227.324H136.318V226.424H137.17V224.768H138.262V226.424H139.978V227.324H138.262ZM144.565 226.304C145.061 226.304 145.509 226.412 145.909 226.628C146.309 226.836 146.621 227.152 146.845 227.576C147.077 228 147.193 228.516 147.193 229.124V233H146.113V229.28C146.113 228.624 145.949 228.124 145.621 227.78C145.293 227.428 144.845 227.252 144.277 227.252C143.701 227.252 143.241 227.432 142.897 227.792C142.561 228.152 142.393 228.676 142.393 229.364V233H141.301V224.12H142.393V227.36C142.609 227.024 142.905 226.764 143.281 226.58C143.665 226.396 144.093 226.304 144.565 226.304ZM151.845 233.108C151.229 233.108 150.669 232.968 150.165 232.688C149.669 232.408 149.277 232.012 148.989 231.5C148.709 230.98 148.569 230.38 148.569 229.7C148.569 229.028 148.713 228.436 149.001 227.924C149.297 227.404 149.697 227.008 150.201 226.736C150.705 226.456 151.269 226.316 151.893 226.316C152.517 226.316 153.081 226.456 153.585 226.736C154.089 227.008 154.485 227.4 154.773 227.912C155.069 228.424 155.217 229.02 155.217 229.7C155.217 230.38 155.065 230.98 154.761 231.5C154.465 232.012 154.061 232.408 153.549 232.688C153.037 232.968 152.469 233.108 151.845 233.108ZM151.845 232.148C152.237 232.148 152.605 232.056 152.949 231.872C153.293 231.688 153.569 231.412 153.777 231.044C153.993 230.676 154.101 230.228 154.101 229.7C154.101 229.172 153.997 228.724 153.789 228.356C153.581 227.988 153.309 227.716 152.973 227.54C152.637 227.356 152.273 227.264 151.881 227.264C151.481 227.264 151.113 227.356 150.777 227.54C150.449 227.716 150.185 227.988 149.985 228.356C149.785 228.724 149.685 229.172 149.685 229.7C149.685 230.236 149.781 230.688 149.973 231.056C150.173 231.424 150.437 231.7 150.765 231.884C151.093 232.06 151.453 232.148 151.845 232.148ZM162.485 226.424V233H161.393V232.028C161.185 232.364 160.893 232.628 160.517 232.82C160.149 233.004 159.741 233.096 159.293 233.096C158.781 233.096 158.321 232.992 157.913 232.784C157.505 232.568 157.181 232.248 156.941 231.824C156.709 231.4 156.593 230.884 156.593 230.276V226.424H157.673V230.132C157.673 230.78 157.837 231.28 158.165 231.632C158.493 231.976 158.941 232.148 159.509 232.148C160.093 232.148 160.553 231.968 160.889 231.608C161.225 231.248 161.393 230.724 161.393 230.036V226.424H162.485ZM165.66 227.324V231.2C165.66 231.52 165.728 231.748 165.864 231.884C166 232.012 166.236 232.076 166.572 232.076H167.376V233H166.392C165.784 233 165.328 232.86 165.024 232.58C164.72 232.3 164.568 231.84 164.568 231.2V227.324H163.716V226.424H164.568V224.768H165.66V226.424H167.376V227.324H165.66ZM177.899 229.46C177.899 229.668 177.887 229.888 177.863 230.12H172.607C172.647 230.768 172.867 231.276 173.267 231.644C173.675 232.004 174.167 232.184 174.743 232.184C175.215 232.184 175.607 232.076 175.919 231.86C176.239 231.636 176.463 231.34 176.591 230.972H177.767C177.591 231.604 177.239 232.12 176.711 232.52C176.183 232.912 175.527 233.108 174.743 233.108C174.119 233.108 173.559 232.968 173.063 232.688C172.575 232.408 172.191 232.012 171.911 231.5C171.631 230.98 171.491 230.38 171.491 229.7C171.491 229.02 171.627 228.424 171.899 227.912C172.171 227.4 172.551 227.008 173.039 226.736C173.535 226.456 174.103 226.316 174.743 226.316C175.367 226.316 175.919 226.452 176.399 226.724C176.879 226.996 177.247 227.372 177.503 227.852C177.767 228.324 177.899 228.86 177.899 229.46ZM176.771 229.232C176.771 228.816 176.679 228.46 176.495 228.164C176.311 227.86 176.059 227.632 175.739 227.48C175.427 227.32 175.079 227.24 174.695 227.24C174.143 227.24 173.671 227.416 173.279 227.768C172.895 228.12 172.675 228.608 172.619 229.232H176.771ZM180.432 227.492C180.624 227.116 180.896 226.824 181.248 226.616C181.608 226.408 182.044 226.304 182.556 226.304V227.432H182.268C181.044 227.432 180.432 228.096 180.432 229.424V233H179.34V226.424H180.432V227.492ZM184.909 227.492C185.101 227.116 185.373 226.824 185.725 226.616C186.085 226.408 186.521 226.304 187.033 226.304V227.432H186.745C185.521 227.432 184.909 228.096 184.909 229.424V233H183.817V226.424H184.909V227.492ZM191.161 233.108C190.545 233.108 189.985 232.968 189.481 232.688C188.985 232.408 188.593 232.012 188.305 231.5C188.025 230.98 187.885 230.38 187.885 229.7C187.885 229.028 188.029 228.436 188.317 227.924C188.613 227.404 189.013 227.008 189.517 226.736C190.021 226.456 190.585 226.316 191.209 226.316C191.833 226.316 192.397 226.456 192.901 226.736C193.405 227.008 193.801 227.4 194.089 227.912C194.385 228.424 194.533 229.02 194.533 229.7C194.533 230.38 194.381 230.98 194.077 231.5C193.781 232.012 193.377 232.408 192.865 232.688C192.353 232.968 191.785 233.108 191.161 233.108ZM191.161 232.148C191.553 232.148 191.921 232.056 192.265 231.872C192.609 231.688 192.885 231.412 193.093 231.044C193.309 230.676 193.417 230.228 193.417 229.7C193.417 229.172 193.313 228.724 193.105 228.356C192.897 227.988 192.625 227.716 192.289 227.54C191.953 227.356 191.589 227.264 191.197 227.264C190.797 227.264 190.429 227.356 190.093 227.54C189.765 227.716 189.501 227.988 189.301 228.356C189.101 228.724 189.001 229.172 189.001 229.7C189.001 230.236 189.097 230.688 189.289 231.056C189.489 231.424 189.753 231.7 190.081 231.884C190.409 232.06 190.769 232.148 191.161 232.148ZM197.061 227.492C197.253 227.116 197.525 226.824 197.877 226.616C198.237 226.408 198.673 226.304 199.185 226.304V227.432H198.897C197.673 227.432 197.061 228.096 197.061 229.424V233H195.969V226.424H197.061V227.492ZM202.773 233.108C202.269 233.108 201.817 233.024 201.417 232.856C201.017 232.68 200.701 232.44 200.469 232.136C200.237 231.824 200.109 231.468 200.085 231.068H201.213C201.245 231.396 201.397 231.664 201.669 231.872C201.949 232.08 202.313 232.184 202.761 232.184C203.177 232.184 203.505 232.092 203.745 231.908C203.985 231.724 204.105 231.492 204.105 231.212C204.105 230.924 203.977 230.712 203.721 230.576C203.465 230.432 203.069 230.292 202.533 230.156C202.045 230.028 201.645 229.9 201.333 229.772C201.029 229.636 200.765 229.44 200.541 229.184C200.325 228.92 200.217 228.576 200.217 228.152C200.217 227.816 200.317 227.508 200.517 227.228C200.717 226.948 201.001 226.728 201.369 226.568C201.737 226.4 202.157 226.316 202.629 226.316C203.357 226.316 203.945 226.5 204.393 226.868C204.841 227.236 205.081 227.74 205.113 228.38H204.021C203.997 228.036 203.857 227.76 203.601 227.552C203.353 227.344 203.017 227.24 202.593 227.24C202.201 227.24 201.889 227.324 201.657 227.492C201.425 227.66 201.309 227.88 201.309 228.152C201.309 228.368 201.377 228.548 201.513 228.692C201.657 228.828 201.833 228.94 202.041 229.028C202.257 229.108 202.553 229.2 202.929 229.304C203.401 229.432 203.785 229.56 204.081 229.688C204.377 229.808 204.629 229.992 204.837 230.24C205.053 230.488 205.165 230.812 205.173 231.212C205.173 231.572 205.073 231.896 204.873 232.184C204.673 232.472 204.389 232.7 204.021 232.868C203.661 233.028 203.245 233.108 202.773 233.108Z" fill="#96989A"/>
<path d="M167.36 37.9955L166.698 38.5448L170.946 43.6606L171.608 43.1113L167.36 37.9955Z" fill="#B3B3B3"/>
<path d="M182.926 33L181.149 41.4572L181.991 41.634L183.768 33.1768L182.926 33Z" fill="#B3B3B3"/>
<path d="M195.828 45.3639L191.165 48.5493L191.65 49.2593L196.313 46.074L195.828 45.3639Z" fill="#B3B3B3"/>
<path d="M163.772 136.529C185.499 136.529 203.113 134.713 203.113 132.473C203.113 130.233 185.499 128.417 163.772 128.417C142.044 128.417 124.431 130.233 124.431 132.473C124.431 134.713 142.044 136.529 163.772 136.529Z" fill="#D2D2D2"/>
<path d="M163.771 136.943C153.251 136.943 143.348 136.527 135.91 135.754C132.284 135.381 129.417 134.937 127.425 134.464C125.061 133.89 124 133.274 124 132.472C124 131.669 125.061 131.053 127.425 130.479C129.432 129.992 132.284 129.562 135.91 129.19C143.348 128.43 153.251 128 163.771 128C174.291 128 184.194 128.416 191.632 129.19C195.258 129.562 198.125 130.006 200.117 130.479C202.482 131.053 203.542 131.669 203.542 132.472C203.542 133.274 202.482 133.89 200.117 134.464C198.11 134.951 195.258 135.381 191.632 135.754C184.194 136.527 174.291 136.943 163.771 136.943ZM163.771 128.846C153.337 128.846 143.52 129.261 136.11 130.021C125.104 131.139 124.86 132.457 124.86 132.472C124.86 132.486 125.104 133.79 136.11 134.922C143.52 135.682 153.337 136.098 163.771 136.098C174.205 136.098 184.022 135.682 191.432 134.922C202.396 133.804 202.682 132.5 202.682 132.472C202.682 132.443 202.396 131.139 191.432 130.021C184.022 129.261 174.205 128.846 163.771 128.846Z" fill="#D2D2D2"/>
<path d="M182.679 51.2285L177.798 55.9623L179.236 62.06L177.119 64.809C181.866 67.8109 184.913 73.2015 184.628 79.2219C184.285 86.3633 179.346 92.2037 172.803 94.0036L168.674 100.028L174.462 119.297L192.092 98.0685C196.219 93.1198 198.818 86.8385 199.154 79.9125C199.727 67.556 192.952 56.5714 182.679 51.2285Z" fill="#B3B3B3"/>
<path d="M174.265 120.168L168.197 99.9336L172.529 93.6145L172.685 93.5655C179.242 91.765 183.868 85.9797 184.196 79.1831C184.467 73.5505 181.665 68.1791 176.888 65.164L176.491 64.9067L178.773 61.9507L177.333 55.8244L182.615 50.7023L182.894 50.8494C188.089 53.5616 192.406 57.67 195.368 62.734C198.422 67.9379 199.883 73.877 199.585 79.9267C199.258 86.7375 196.792 93.1141 192.432 98.3442L174.265 120.168ZM169.134 100.07L174.627 118.375L191.75 97.768C195.987 92.686 198.402 86.4835 198.707 79.8599C199.265 68.2212 193.005 57.2168 182.741 51.7444L178.261 56.0899L179.684 62.1453L177.73 64.6871C182.53 67.9165 185.323 73.4316 185.043 79.2223C184.7 86.3494 179.898 92.3996 173.06 94.3543L169.134 100.07Z" fill="#B3B3B3"/>
<path d="M170.318 56.3757L172.138 62.3658L170.207 65.2359C167.835 63.9422 165.114 63.2276 162.234 63.2753C153.335 63.4229 146.232 70.7649 146.38 79.6638C146.527 88.5627 153.869 95.6652 162.768 95.5177C164.517 95.4887 166.203 95.1741 167.77 94.6321L164.033 100.915L171.04 119.777L163.374 130.31L138.318 98.2881C134.349 93.2081 131.936 86.8552 131.821 79.9195C131.54 62.9815 145.041 49.0258 161.979 48.745C166.564 48.669 170.937 49.5999 174.879 51.3549L170.318 56.3757Z" fill="#B3B3B3"/>
<path d="M163.386 131.025L163.035 130.572L137.978 98.5496C133.776 93.1868 131.505 86.7455 131.391 79.9245C131.254 71.6131 134.363 63.7496 140.141 57.7912C145.919 51.8186 153.675 48.4505 161.972 48.313C166.529 48.2374 170.93 49.1248 175.059 50.9484L175.608 51.183L170.808 56.4801L172.612 62.4274L170.346 65.7905L169.999 65.6099C167.641 64.3159 164.95 63.6582 162.241 63.7031C153.586 63.8466 146.667 70.9992 146.81 79.6545C146.954 88.3098 154.106 95.2291 162.762 95.0856C164.438 95.0578 166.068 94.7728 167.635 94.2308L168.747 93.8397L164.522 100.948L171.529 119.838L163.386 131.025ZM162 49.1725C145.335 49.4488 131.989 63.2442 132.266 79.91C132.376 86.5447 134.587 92.815 138.672 98.0221L163.362 129.592L170.552 119.711L163.56 100.863L166.823 95.3767C165.51 95.7281 164.152 95.9226 162.762 95.9457C153.633 96.097 146.087 88.7971 145.936 79.669C145.785 70.5408 153.085 62.9948 162.213 62.8435C164.95 62.7981 167.641 63.4272 170.055 64.6629L171.664 62.2855L169.83 56.2527L174.165 51.4793C170.312 49.8804 166.213 49.1027 162 49.1725Z" fill="#B3B3B3"/>
<defs>
<linearGradient id="paint0_linear_4292_128054" x1="164" y1="112.76" x2="164" y2="234" gradientUnits="userSpaceOnUse">
<stop stop-color="#E0E0E0"/>
<stop offset="1" stop-color="#E6E6E6" stop-opacity="0"/>
</linearGradient>
<linearGradient id="paint1_linear_4292_128054" x1="316" y1="189.045" x2="4.32072" y2="168.682" gradientUnits="userSpaceOnUse">
<stop offset="0.03125" stop-color="white"/>
<stop offset="0.427083" stop-color="white" stop-opacity="0"/>
</linearGradient>
<linearGradient id="paint2_linear_4292_128054" x1="316" y1="189.045" x2="4.32072" y2="168.682" gradientUnits="userSpaceOnUse">
<stop offset="0.666667" stop-color="white" stop-opacity="0"/>
<stop offset="0.958333" stop-color="white"/>
</linearGradient>
</defs>
</svg>
