<svg width="128" height="16" viewBox="0 0 128 16" fill="none" xmlns="http://www.w3.org/2000/svg">
<g clipPath="url(#clip0_1253_4)">
<path fill-rule="evenodd" clip-rule="evenodd" d="M55.9248 11.846V11.8076C55.9248 9.60901 57.6157 8.59831 60.0251 8.59831C60.8714 8.59058 61.7126 8.72996 62.5111 9.01025V8.84261C62.5111 7.65947 61.7687 7.00322 60.3268 7.00322C59.3653 7.00416 58.4128 7.18785 57.5199 7.5445L56.7966 5.36982C58.0348 4.80707 59.3838 4.53039 60.7436 4.5603C62.3195 4.5603 63.4596 4.97702 64.1781 5.68595C64.8966 6.39488 65.2798 7.5445 65.2798 8.8953V14.7344H62.4968V13.647C62.1079 14.0706 61.6312 14.4041 61.1 14.6242C60.5688 14.8442 59.996 14.9456 59.4215 14.9212C57.5055 14.9212 55.9296 13.8339 55.9296 11.846M62.5542 11.1849V10.7059C61.9728 10.452 61.3445 10.323 60.7101 10.3275C59.479 10.3275 58.7174 10.8065 58.7174 11.7166V11.755C58.7174 12.5262 59.3641 12.9764 60.2933 12.9764C61.6441 12.9764 62.5542 12.2435 62.5542 11.2089V11.1849Z" fill="black"/>
<path fill-rule="evenodd" clip-rule="evenodd" d="M66.5391 12.8183L68.3545 10.6675C69.5007 11.7099 70.9828 12.3065 72.5314 12.3489C73.7864 12.3489 74.548 11.8699 74.548 11.0412V11.0028C74.548 10.2316 74.0691 9.83887 71.7315 9.2449C68.9149 8.53597 67.0995 7.76477 67.0995 5.02006V4.98173C67.0995 2.47174 69.1353 0.81439 71.9902 0.81439C73.8721 0.782664 75.7069 1.40386 77.1826 2.57233L75.5827 4.86198C74.3469 4.01414 73.1302 3.49683 71.9518 3.49683C70.7735 3.49683 70.1556 4.03331 70.1556 4.70392V4.74223C70.1556 5.65234 70.7543 5.94933 73.1685 6.55767C76.0042 7.29055 77.5993 8.29646 77.5993 10.7059V10.749C77.5993 13.4937 75.4869 15.0313 72.4692 15.0313C70.2885 15.0425 68.1792 14.2554 66.5391 12.8183Z" fill="black"/>
<path fill-rule="evenodd" clip-rule="evenodd" d="M78.9648 0.272949H81.6904V6.25573H81.7479C82.056 5.76232 82.4835 5.35447 82.9908 5.06984C83.4981 4.7852 84.069 4.63294 84.6506 4.62711C87.5247 4.62711 88.2767 6.24136 88.2767 8.66992V14.7054H85.5512V9.1633C85.5512 7.54905 85.0722 6.76827 83.8028 6.76827C82.3275 6.76827 81.6904 7.58259 81.6904 9.57525V14.7198H78.9648V0.272949Z" fill="black"/>
<path d="M27.8352 0.272949H24.8223V14.7246H27.8352V0.272949Z" fill="black"/>
<path fill-rule="evenodd" clip-rule="evenodd" d="M29.7178 4.90502H32.3188V6.27497H32.3763C32.6992 5.76446 33.1484 5.34591 33.6804 5.05977C34.2124 4.77363 34.8092 4.62958 35.4132 4.64156C38.2872 4.64156 39.0392 6.25581 39.0392 8.68437V14.7246H36.3137V9.17775C36.3137 7.5635 35.8347 6.78272 34.5653 6.78272C33.09 6.78272 32.4529 7.59703 32.4529 9.59448V14.739H29.7274L29.7178 4.90502Z" fill="black"/>
<path fill-rule="evenodd" clip-rule="evenodd" d="M47.7091 13.4696H47.6708C47.0385 14.533 45.9416 14.988 44.6531 14.988C41.6593 14.988 40.2031 12.4637 40.2031 9.71895C40.2031 7.07963 41.6785 4.63191 44.6004 4.63191C45.173 4.61037 45.7418 4.73282 46.2548 4.98806C46.7678 5.2433 47.2085 5.62317 47.5367 6.09287H47.575V0.272949H50.3006V14.7246H47.7091V13.4696ZM45.3141 6.67246C43.5274 6.67246 42.9191 8.21008 42.9191 9.80517C42.9191 11.4003 43.628 12.957 45.3141 12.957C47.1008 12.957 47.6565 11.4003 47.6565 9.786C47.6565 8.17175 47.0816 6.67246 45.3141 6.67246Z" fill="black"/>
<path d="M54.6738 4.90503H51.9482V14.7199H54.6738V4.90503Z" fill="black"/>
<path fill-rule="evenodd" clip-rule="evenodd" d="M92.0214 10.4709C92.098 12.2001 92.9219 12.9569 94.4595 12.9569C95.5516 12.9569 96.4378 12.2911 96.6102 11.6875H99.0052C98.2388 14.0203 96.6102 14.9879 94.3589 14.9879C91.231 14.9879 89.291 12.8611 89.291 9.82421C89.291 6.88311 91.346 4.64136 94.3589 4.64136C97.7359 4.64136 99.3885 7.45313 99.1777 10.4709H92.0214ZM96.457 8.76081C96.2079 7.39565 95.6139 6.67234 94.287 6.67234C93.9993 6.65278 93.7107 6.69208 93.4386 6.78782C93.1666 6.88356 92.917 7.03375 92.7049 7.2292C92.4929 7.42465 92.3229 7.66126 92.2054 7.9246C92.0879 8.18793 92.0252 8.47246 92.0214 8.76081H96.457Z" fill="black"/>
<path d="M103.115 0.272949H100.39V14.7246H103.115V0.272949Z" fill="black"/>
<path fill-rule="evenodd" clip-rule="evenodd" d="M108.245 4.90505H110.243V6.71089H108.245V11.5728C108.245 12.4829 108.475 12.7128 109.4 12.7128C109.683 12.7185 109.965 12.6928 110.243 12.6362V14.7438C109.714 14.8145 109.181 14.8449 108.648 14.8348C106.957 14.8348 105.52 14.4756 105.52 12.5021V6.71089H103.867V4.90505H105.52V1.073H108.245V4.90505Z" fill="black"/>
<path fill-rule="evenodd" clip-rule="evenodd" d="M113.313 10.4709C113.39 12.2001 114.214 12.9569 115.751 12.9569C116.848 12.9569 117.73 12.2911 117.902 11.6875H120.297C119.531 14.0203 117.902 14.9879 115.651 14.9879C112.523 14.9879 110.583 12.8611 110.583 9.82421C110.583 6.88311 112.638 4.64136 115.651 4.64136C119.033 4.64136 120.68 7.45313 120.47 10.4709H113.313ZM117.749 8.76081C117.5 7.39565 116.906 6.67234 115.579 6.67234C115.291 6.65278 115.003 6.69208 114.731 6.78782C114.459 6.88356 114.209 7.03375 113.997 7.2292C113.785 7.42465 113.615 7.66126 113.497 7.9246C113.38 8.18793 113.317 8.47246 113.313 8.76081H117.749Z" fill="black"/>
<path fill-rule="evenodd" clip-rule="evenodd" d="M121.61 4.90482H124.202V6.72983H124.24C124.51 6.1133 124.953 5.58804 125.514 5.21746C126.076 4.84687 126.733 4.6468 127.406 4.64136C127.608 4.64363 127.808 4.67592 128 4.73716V7.24236C127.685 7.17948 127.364 7.1474 127.042 7.14656C125.026 7.14656 124.355 8.55005 124.355 10.2984V14.7244H121.63L121.61 4.90482Z" fill="black"/>
<path d="M14.9498 10.6196H0V14.7199H14.9498V10.6196Z" fill="#E31F26"/>
<path d="M22.8484 10.6196H15.7256V14.7199H22.8484V10.6196Z" fill="#E31F26"/>
<path d="M22.844 0.297119H16.1475V4.39741H22.844V0.297119Z" fill="#E31F26"/>
<path d="M22.8488 5.52759H7.82715V9.62788H22.8488V5.52759Z" fill="#E31F26"/>
<path fill-rule="evenodd" clip-rule="evenodd" d="M54.832 1.71021V1.76833H54.8902H54.8514L54.832 1.71021Z" fill="#E31F26"/>
<path fill-rule="evenodd" clip-rule="evenodd" d="M54.5635 1.20233H54.6257H54.6928C54.6066 1.24065 54.6305 1.28376 54.6688 1.32208V1.29813C54.6688 1.29813 54.7407 1.29813 54.7551 1.29813C54.7264 1.38914 54.8557 1.37956 54.7551 1.47536L54.8221 1.52325C54.8221 1.52325 54.7695 1.52325 54.7503 1.52325C54.7779 1.54317 54.8035 1.56563 54.8269 1.59032C54.8476 1.61439 54.8595 1.64481 54.8605 1.67654C54.9371 1.6478 54.9084 1.6047 54.8605 1.56638C54.8126 1.52806 54.7838 1.49931 54.8605 1.4562C54.8465 1.44191 54.8365 1.42424 54.8315 1.40492C54.8264 1.3856 54.8265 1.3653 54.8317 1.34602C54.8317 1.30291 54.8317 1.25981 54.8317 1.23107C54.8317 1.20233 54.6928 1.14006 54.5778 1.18796" fill="#E31F26"/>
<path fill-rule="evenodd" clip-rule="evenodd" d="M54.041 3.29078L54.0766 3.32131C54.0766 3.29078 54.0461 3.28569 54.041 3.29078Z" fill="#E31F26"/>
<path fill-rule="evenodd" clip-rule="evenodd" d="M54.7842 1.17358L54.8096 1.2092C54.8096 1.2092 54.8096 1.17867 54.7842 1.17358Z" fill="#E31F26"/>
<path fill-rule="evenodd" clip-rule="evenodd" d="M55.0283 1.90168C54.9765 1.8684 54.922 1.83956 54.8654 1.81546C54.7952 1.78144 54.7183 1.76344 54.6403 1.76276C54.64 1.38879 54.4939 1.02966 54.2331 0.76164C54.2714 0.76164 54.3193 0.76164 54.3433 0.76164H54.3145L54.3577 0.814339H54.4247L54.3912 0.838283C54.3912 0.838283 54.4295 0.838283 54.4439 0.838283L54.4008 0.867022C54.4282 0.851596 54.4599 0.845593 54.491 0.849919C54.5222 0.854245 54.5511 0.86867 54.5732 0.890981H54.6403H54.7073C54.6786 0.953252 54.5684 0.890974 54.6451 0.958035L54.5397 0.986774C54.602 1.0203 54.5397 1.05385 54.602 1.07301C54.6642 1.09217 54.6019 1.01073 54.6786 1.01073C54.5876 1.10174 54.7409 1.06342 54.8031 1.09695C54.8654 1.13048 54.8031 1.05384 54.7265 1.06342C54.6499 1.073 54.7744 1.03468 54.7744 1.02031H54.7025L54.7648 0.977199L54.6834 0.94846C54.7648 0.910139 54.6834 0.895767 54.76 0.871817C54.7073 0.871817 54.76 0.795174 54.6498 0.809544C54.6786 0.752063 54.7313 0.809545 54.7217 0.780805C54.5773 0.663582 54.4485 0.528363 54.3385 0.378441H54.3768L54.2714 0.416755C54.2874 0.376781 54.2874 0.332198 54.2714 0.292224C54.2649 0.282343 54.256 0.274237 54.2455 0.26863C54.2351 0.263023 54.2234 0.260078 54.2116 0.260078C54.1997 0.260078 54.188 0.263023 54.1776 0.26863C54.1671 0.274237 54.1582 0.282343 54.1517 0.292224C54.1517 0.292224 54.1517 0.268275 54.1517 0.263484C54.1517 0.258694 54.0942 0.215573 54.0607 0.177252C54.0286 0.135768 53.9854 0.104213 53.9361 0.0862399C53.893 0.143721 53.8691 0.11019 53.8451 0.0862399C53.8212 0.0622896 53.7828 0.0431422 53.7445 0.129363L53.7733 0.0958294C53.7733 0.15331 53.6918 0.206004 53.6727 0.249115C53.6794 0.180619 53.6794 0.111627 53.6727 0.0431312V0.0958294V-0.00475777C53.5817 0.100624 53.5433 0.067092 53.5002 0.0239814C53.4821 0.00219122 53.4611 -0.0171448 53.438 -0.0335116C53.438 -0.0335116 53.3949 -0.0335087 53.3709 0.014392C53.347 0.0622926 53.3709 -0.00954724 53.3709 -0.0191274C53.3709 -0.0287075 53.2847 0.0479294 53.2512 0.0814598C53.2545 0.0383851 53.2693 -0.00299323 53.2943 -0.0382917C53.2511 -0.062242 53.1937 -0.0382929 53.1362 -0.00955251C53.1098 0.00220222 53.0812 0.00828158 53.0524 0.00828158C53.0235 0.00828158 52.9949 0.00220222 52.9685 -0.00955251C52.9685 0.0622984 52.9973 0.0766627 52.9685 0.134143C52.9398 0.191624 52.9063 0.067082 52.935 0.0287616C52.8823 -0.0287192 52.82 0.0287703 52.7578 0.0527206C52.7311 0.0792955 52.6986 0.0992056 52.6628 0.110857C52.627 0.122508 52.589 0.125565 52.5518 0.119774C52.5278 0.215575 52.5518 0.225152 52.5183 0.311373C52.5183 0.258683 52.4177 0.182043 52.4656 0.148513V0.0958294C52.3698 0.13415 52.2357 0.201215 52.2884 0.354497C52.2165 0.268276 52.2596 0.354483 52.1925 0.325743C52.2261 0.421544 52.1494 0.359276 52.1399 0.388016V0.464659C52.1266 0.464849 52.1134 0.462414 52.1011 0.457481C52.0887 0.452549 52.0775 0.445217 52.068 0.43592L52.1207 0.493398C52.0968 0.517348 52.0393 0.435917 52.0201 0.493398L52.068 0.526932C52.0249 0.526932 52.068 0.613147 51.9866 0.565246C51.862 0.526926 51.9387 0.685012 51.862 0.699382L51.9722 0.75686C51.9722 0.823921 51.9339 0.75686 51.8956 0.75686C51.8572 0.75686 51.8381 0.756853 51.7998 0.809544C51.7614 0.862234 51.8333 0.847867 51.862 0.871817L51.8093 0.900556L51.7662 0.838283C51.7861 0.858833 51.7973 0.886319 51.7973 0.914926C51.7973 0.943532 51.7861 0.971018 51.7662 0.991568C51.7423 1.02989 51.7135 1.0682 51.7662 1.12089C51.7231 1.12089 51.704 1.06821 51.68 1.07779C51.6561 1.08737 51.6369 1.16881 51.6465 1.2215C51.6561 1.27419 51.6752 1.32688 51.6465 1.35562C51.6222 1.38009 51.6033 1.40933 51.591 1.44148C51.5786 1.47364 51.573 1.50801 51.5746 1.54242C51.5768 1.61379 51.5671 1.68502 51.5459 1.75319H51.5794L51.5555 1.84899C51.6321 1.87294 51.6034 1.94 51.6944 1.96874C51.6657 1.9711 51.6369 1.9711 51.6082 1.96874C51.6082 2.00707 51.6656 2.04538 51.6321 2.07891H51.5986C51.5917 2.12977 51.5917 2.18133 51.5986 2.23219C51.6056 2.25394 51.6175 2.27383 51.6332 2.2904C51.649 2.30698 51.6682 2.31983 51.6896 2.328C51.6896 2.35674 51.6513 2.3759 51.613 2.39985C51.5746 2.4238 51.68 2.4717 51.7471 2.49086C51.7372 2.51181 51.7243 2.53117 51.7087 2.54834H51.7902C51.7902 2.54834 51.7327 2.58187 51.7231 2.60582C51.7481 2.60972 51.7715 2.62087 51.7902 2.6379C51.8089 2.65493 51.8222 2.67709 51.8285 2.70162C51.8382 2.73848 51.8527 2.77391 51.8716 2.80701L51.9004 2.77827C51.9387 2.77827 51.9004 2.85011 51.8716 2.85011C51.8429 2.85011 51.9482 2.92676 52.0057 2.94113C52.0714 2.94578 52.1329 2.97482 52.1782 3.02255C52.1351 3.08482 52.1782 3.0992 52.2069 3.11836C52.2357 3.13752 52.274 3.1471 52.2357 3.22374C52.3123 3.22374 52.3171 3.30516 52.4081 3.24768C52.4081 3.24768 52.4081 3.27643 52.4081 3.27164C52.4081 3.26685 52.5087 3.3387 52.5853 3.32912V3.37702C52.6524 3.2908 52.7482 3.37701 52.8057 3.26205C52.8057 3.286 52.7769 3.30516 52.7626 3.31953C52.7626 3.4297 52.8344 3.286 52.8727 3.31953C52.911 3.35306 52.8727 3.3818 52.8727 3.39617C52.8727 3.41054 53.0308 3.46804 53.1314 3.45367L53.2799 3.42971C53.3289 3.42003 53.3794 3.42003 53.4284 3.42971C53.4859 3.42971 53.3997 3.31953 53.4667 3.31953C53.5338 3.31953 53.4667 3.4345 53.4955 3.44887C53.5194 3.37702 53.5338 3.39139 53.5769 3.39139C53.62 3.39139 53.5769 3.44887 53.5769 3.47761C53.5769 3.50635 53.62 3.47762 53.6487 3.45367C53.6775 3.42972 53.7014 3.41056 53.7397 3.45367C53.7352 3.42993 53.7352 3.40554 53.7397 3.3818C53.7397 3.32911 53.8068 3.33869 53.8499 3.35306C53.893 3.36743 53.9313 3.39139 53.9265 3.35306C53.9218 3.31474 53.9265 3.32912 53.9265 3.32912C53.9346 3.32529 53.9435 3.32326 53.9524 3.32316C53.9614 3.32305 53.9703 3.32488 53.9784 3.32852C53.9866 3.33216 53.9939 3.33752 53.9999 3.34424C54.0058 3.35095 54.0102 3.35886 54.0128 3.36743C54.0128 3.3339 54.0128 3.29079 54.0128 3.27642V3.33392C54.0128 3.33392 54.0128 3.27642 54.0128 3.26205L53.9792 3.23811C54.0319 3.27164 54.0223 3.13273 54.0798 3.23811H54.1613C54.1613 3.18063 54.1613 3.12794 54.19 3.12315C54.2762 3.21895 54.2858 3.08482 54.3337 3.06566V3.09919C54.3337 3.02734 54.4151 2.97945 54.3912 2.97466C54.3672 2.96987 54.4774 2.93634 54.4918 2.97466C54.4918 2.93634 54.5397 2.88364 54.4918 2.82616H54.5492H54.6115C54.5109 2.70161 54.7313 2.75432 54.6115 2.65851C54.6546 2.65851 54.6786 2.65851 54.7169 2.65851C54.7081 2.6468 54.7017 2.63337 54.6984 2.61908C54.695 2.60478 54.6947 2.58995 54.6974 2.57551C54.7001 2.56108 54.7058 2.54737 54.7141 2.53527C54.7224 2.52317 54.7332 2.51293 54.7457 2.50523C54.7792 2.46212 54.7457 2.3759 54.7457 2.31363L54.8654 2.34237C54.8654 2.29926 54.7744 2.26094 54.8079 2.23699C54.8415 2.21304 54.8319 2.23699 54.8367 2.23699C54.8415 2.23699 54.8702 2.16514 54.9037 2.14597C54.8319 2.06933 54.875 2.04059 54.7887 1.97832C54.9037 1.97832 54.8223 2.04539 54.9325 2.03102C55.0426 2.01665 54.9325 1.87774 54.9037 1.79151C54.9275 1.78687 54.9518 1.78687 54.9756 1.79151" fill="#E31F26"/>
</g>
<defs>
<clipPath id="clip0_1253_4">
<rect width="128" height="15.0312" fill="white"/>
</clipPath>
</defs>
</svg>
