<svg xmlns="http://www.w3.org/2000/svg" xmlns:xlink="http://www.w3.org/1999/xlink" width="1920" zoomAndPan="magnify" viewBox="0 0 1440 809.999993" height="1080" preserveAspectRatio="xMidYMid meet" version="1.0"><defs><clipPath id="eecce78d32"><path d="M 442.484375 243 L 997.484375 243 L 997.484375 567 L 442.484375 567 Z M 442.484375 243 " clip-rule="nonzero"/></clipPath></defs><rect x="-144" width="1728" fill="#ffffff" y="-80.999999" height="971.999992" fill-opacity="1"/><rect x="-144" width="1728" fill="#ffffff" y="-80.999999" height="971.999992" fill-opacity="1"/><g clip-path="url(#eecce78d32)"><path fill="#20334f" d="M 997.367188 304.773438 L 997.367188 505.109375 C 997.367188 539.226562 969.664062 566.929688 935.550781 566.929688 L 504.429688 566.929688 C 470.316406 566.929688 442.613281 539.226562 442.613281 505.109375 L 442.613281 304.773438 C 442.613281 270.65625 470.316406 242.953125 504.429688 242.953125 L 935.550781 242.953125 C 969.664062 242.953125 997.367188 270.65625 997.367188 304.773438 Z M 997.367188 304.773438 " fill-opacity="1" fill-rule="nonzero"/></g><path fill="#f2c841" d="M 504.417969 265.464844 L 935.539062 265.464844 C 936.824219 265.464844 938.109375 265.527344 939.390625 265.652344 C 940.671875 265.777344 941.941406 265.96875 943.207031 266.21875 C 944.46875 266.46875 945.714844 266.78125 946.945312 267.15625 C 948.179688 267.53125 949.390625 267.964844 950.578125 268.457031 C 951.769531 268.949219 952.929688 269.5 954.066406 270.105469 C 955.203125 270.710938 956.304688 271.371094 957.375 272.089844 C 958.445312 272.804688 959.476562 273.570312 960.472656 274.386719 C 961.46875 275.203125 962.421875 276.066406 963.332031 276.976562 C 964.242188 277.886719 965.105469 278.839844 965.921875 279.835938 C 966.738281 280.828125 967.503906 281.863281 968.21875 282.933594 C 968.933594 284.003906 969.59375 285.105469 970.203125 286.242188 C 970.808594 287.378906 971.359375 288.539062 971.851562 289.730469 C 972.34375 290.917969 972.777344 292.128906 973.152344 293.359375 C 973.523438 294.59375 973.835938 295.839844 974.089844 297.101562 C 974.339844 298.367188 974.527344 299.636719 974.65625 300.917969 C 974.78125 302.199219 974.84375 303.484375 974.84375 304.773438 L 974.84375 505.121094 C 974.84375 506.410156 974.78125 507.695312 974.65625 508.976562 C 974.527344 510.253906 974.339844 511.527344 974.089844 512.789062 C 973.835938 514.054688 973.523438 515.300781 973.152344 516.53125 C 972.777344 517.765625 972.34375 518.976562 971.851562 520.164062 C 971.359375 521.355469 970.808594 522.515625 970.203125 523.652344 C 969.59375 524.785156 968.933594 525.890625 968.21875 526.960938 C 967.503906 528.03125 966.738281 529.0625 965.921875 530.058594 C 965.105469 531.054688 964.242188 532.007812 963.332031 532.917969 C 962.421875 533.828125 961.46875 534.691406 960.472656 535.507812 C 959.476562 536.324219 958.445312 537.089844 957.375 537.804688 C 956.304688 538.519531 955.203125 539.183594 954.066406 539.789062 C 952.929688 540.394531 951.769531 540.945312 950.578125 541.4375 C 949.390625 541.929688 948.179688 542.363281 946.945312 542.738281 C 945.714844 543.109375 944.46875 543.421875 943.207031 543.675781 C 941.941406 543.925781 940.671875 544.113281 939.390625 544.242188 C 938.109375 544.367188 936.824219 544.429688 935.539062 544.429688 L 504.417969 544.429688 C 503.132812 544.429688 501.847656 544.367188 500.566406 544.242188 C 499.285156 544.113281 498.011719 543.925781 496.75 543.675781 C 495.488281 543.421875 494.242188 543.109375 493.007812 542.738281 C 491.777344 542.363281 490.566406 541.929688 489.375 541.4375 C 488.1875 540.945312 487.023438 540.394531 485.890625 539.789062 C 484.753906 539.183594 483.652344 538.519531 482.582031 537.804688 C 481.511719 537.089844 480.476562 536.324219 479.484375 535.507812 C 478.488281 534.691406 477.535156 533.828125 476.625 532.917969 C 475.714844 532.007812 474.851562 531.054688 474.035156 530.058594 C 473.21875 529.0625 472.453125 528.03125 471.738281 526.960938 C 471.019531 525.890625 470.359375 524.785156 469.753906 523.652344 C 469.148438 522.515625 468.597656 521.355469 468.105469 520.164062 C 467.613281 518.976562 467.179688 517.765625 466.804688 516.53125 C 466.429688 515.300781 466.117188 514.054688 465.867188 512.789062 C 465.617188 511.527344 465.429688 510.253906 465.300781 508.976562 C 465.175781 507.695312 465.113281 506.410156 465.113281 505.121094 L 465.113281 304.773438 C 465.113281 303.484375 465.175781 302.199219 465.300781 300.917969 C 465.429688 299.636719 465.617188 298.367188 465.867188 297.101562 C 466.117188 295.839844 466.429688 294.59375 466.804688 293.359375 C 467.179688 292.128906 467.613281 290.917969 468.105469 289.730469 C 468.597656 288.539062 469.148438 287.378906 469.753906 286.242188 C 470.359375 285.105469 471.019531 284.003906 471.738281 282.933594 C 472.453125 281.863281 473.21875 280.828125 474.035156 279.835938 C 474.851562 278.839844 475.714844 277.886719 476.625 276.976562 C 477.535156 276.066406 478.488281 275.203125 479.484375 274.386719 C 480.476562 273.570312 481.511719 272.804688 482.582031 272.089844 C 483.652344 271.371094 484.753906 270.710938 485.890625 270.105469 C 487.023438 269.5 488.1875 268.949219 489.375 268.457031 C 490.566406 267.964844 491.777344 267.53125 493.007812 267.15625 C 494.242188 266.78125 495.488281 266.46875 496.75 266.21875 C 498.011719 265.96875 499.285156 265.777344 500.566406 265.652344 C 501.847656 265.527344 503.132812 265.464844 504.417969 265.464844 Z M 504.417969 265.464844 " fill-opacity="1" fill-rule="nonzero"/><path fill="#20334f" d="M 569.605469 322.492188 L 580.808594 322.492188 C 582.050781 322.492188 583.101562 323.390625 583.292969 324.621094 L 589.503906 364.933594 C 589.953125 367.820312 594.140625 367.75 594.46875 364.839844 L 599.082031 324.714844 C 599.226562 323.449219 600.300781 322.492188 601.578125 322.492188 L 613.394531 322.492188 C 614.945312 322.492188 616.117188 323.875 615.867188 325.402344 L 603.554688 401.261719 C 603.355469 402.480469 602.3125 403.367188 601.082031 403.367188 L 585.46875 403.367188 C 584.238281 403.367188 583.199219 402.480469 582.996094 401.261719 L 577.683594 368.851562 C 577.222656 366.046875 573.191406 366.046875 572.742188 368.851562 L 567.429688 401.261719 C 567.230469 402.480469 566.1875 403.367188 564.957031 403.367188 L 549.34375 403.367188 C 548.113281 403.367188 547.0625 402.480469 546.871094 401.261719 L 534.558594 325.402344 C 534.308594 323.875 535.492188 322.492188 537.03125 322.492188 L 548.847656 322.492188 C 550.125 322.492188 551.1875 323.449219 551.34375 324.714844 L 555.957031 364.839844 C 556.289062 367.75 560.488281 367.820312 560.925781 364.933594 L 567.132812 324.621094 C 567.324219 323.402344 568.375 322.492188 569.617188 322.492188 Z M 569.605469 322.492188 " fill-opacity="1" fill-rule="nonzero"/><path fill="#20334f" d="M 673.582031 337.738281 L 673.582031 388.121094 C 673.582031 399.121094 668.410156 404.621094 658.085938 404.621094 L 641.464844 404.621094 C 631.128906 404.621094 625.96875 399.121094 625.96875 388.121094 L 625.96875 337.738281 C 625.96875 326.738281 631.140625 321.238281 641.464844 321.238281 L 658.085938 321.238281 C 668.421875 321.238281 673.582031 326.738281 673.582031 337.738281 Z M 656.085938 390.117188 L 656.085938 335.621094 C 656.085938 334.960938 655.847656 334.367188 655.398438 333.871094 C 654.9375 333.375 654.382812 333.125 653.707031 333.125 L 645.832031 333.125 C 645.167969 333.125 644.601562 333.375 644.140625 333.871094 C 643.675781 334.367188 643.453125 334.960938 643.453125 335.621094 L 643.453125 390.117188 C 643.453125 390.78125 643.675781 391.371094 644.140625 391.871094 C 644.601562 392.367188 645.15625 392.613281 645.832031 392.613281 L 653.707031 392.613281 C 654.371094 392.613281 654.9375 392.367188 655.398438 391.871094 C 655.859375 391.371094 656.085938 390.792969 656.085938 390.117188 Z M 656.085938 390.117188 " fill-opacity="1" fill-rule="nonzero"/><path fill="#20334f" d="M 703.957031 372.753906 L 703.957031 400.859375 C 703.957031 402.242188 702.832031 403.367188 701.449219 403.367188 L 688.96875 403.367188 C 687.585938 403.367188 686.460938 402.242188 686.460938 400.859375 L 686.460938 325 C 686.460938 323.617188 687.585938 322.492188 688.96875 322.492188 L 717.582031 322.492188 C 727.921875 322.492188 733.078125 327.992188 733.078125 338.992188 L 733.078125 348.375 C 733.078125 353.308594 731.777344 356.925781 729.175781 359.210938 C 728.0625 360.191406 727.945312 361.929688 729.054688 362.910156 C 731.160156 364.769531 732.214844 367.585938 732.214844 371.382812 L 732.214844 400.871094 C 732.214844 402.253906 731.089844 403.378906 729.707031 403.378906 L 717.226562 403.378906 C 715.84375 403.378906 714.71875 402.253906 714.71875 400.871094 L 714.71875 372.753906 C 714.71875 371.085938 713.925781 370.257812 712.34375 370.257812 L 706.476562 370.257812 C 705.089844 370.257812 703.96875 371.382812 703.96875 372.765625 Z M 703.957031 336.875 L 703.957031 355.484375 C 703.957031 356.867188 705.078125 357.992188 706.464844 357.992188 L 713.207031 357.992188 C 713.867188 357.992188 714.4375 357.742188 714.898438 357.246094 C 715.359375 356.75 715.582031 356.15625 715.582031 355.496094 L 715.582031 336.863281 C 715.582031 336.203125 715.347656 335.609375 714.898438 335.113281 C 714.4375 334.617188 713.878906 334.367188 713.207031 334.367188 L 706.464844 334.367188 C 705.078125 334.367188 703.957031 335.492188 703.957031 336.875 Z M 703.957031 336.875 " fill-opacity="1" fill-rule="nonzero"/><path fill="#20334f" d="M 793.453125 325.875 L 781.28125 358.75 C 781.066406 359.316406 781.066406 359.929688 781.28125 360.5 L 796.054688 399.984375 C 796.667969 401.628906 795.449219 403.367188 793.699219 403.367188 L 781.183594 403.367188 C 780.144531 403.367188 779.210938 402.71875 778.832031 401.734375 L 768.054688 372.992188 C 767.6875 372.007812 766.753906 371.359375 765.703125 371.359375 L 764.316406 371.359375 C 762.933594 371.359375 761.808594 372.480469 761.808594 373.867188 L 761.808594 400.847656 C 761.808594 402.230469 760.6875 403.355469 759.300781 403.355469 L 746.824219 403.355469 C 745.4375 403.355469 744.316406 402.230469 744.316406 400.847656 L 744.316406 324.988281 C 744.316406 323.605469 745.4375 322.480469 746.824219 322.480469 L 759.300781 322.480469 C 760.6875 322.480469 761.808594 323.605469 761.808594 324.988281 L 761.808594 353.851562 C 761.808594 355.234375 762.933594 356.359375 764.316406 356.359375 C 765.371094 356.359375 766.304688 355.707031 766.671875 354.726562 L 778.074219 324.113281 C 778.441406 323.128906 779.375 322.480469 780.429688 322.480469 L 791.085938 322.480469 C 792.835938 322.480469 794.042969 324.21875 793.441406 325.863281 Z M 793.453125 325.875 " fill-opacity="1" fill-rule="nonzero"/><path fill="#20334f" d="M 846.078125 325 L 846.078125 400.859375 C 846.078125 402.242188 844.953125 403.367188 843.570312 403.367188 L 831.089844 403.367188 C 829.707031 403.367188 828.582031 402.242188 828.582031 400.859375 L 828.582031 325 C 828.582031 323.617188 829.707031 322.492188 831.089844 322.492188 L 843.570312 322.492188 C 844.953125 322.492188 846.078125 323.617188 846.078125 325 Z M 846.078125 325 " fill-opacity="1" fill-rule="nonzero"/><path fill="#20334f" d="M 902.9375 403.367188 L 890.457031 403.367188 C 889.074219 403.367188 887.949219 402.242188 887.949219 400.859375 L 887.949219 336.238281 C 887.949219 335.574219 887.714844 334.984375 887.265625 334.488281 C 886.804688 333.988281 886.246094 333.742188 885.574219 333.742188 L 878.820312 333.742188 C 878.144531 333.742188 877.589844 333.988281 877.128906 334.488281 C 876.667969 334.984375 876.441406 335.574219 876.441406 336.238281 L 876.441406 400.859375 C 876.441406 402.242188 875.316406 403.367188 873.933594 403.367188 L 861.453125 403.367188 C 860.070312 403.367188 858.945312 402.242188 858.945312 400.859375 L 858.945312 337.738281 C 858.945312 326.738281 864.117188 321.238281 874.441406 321.238281 L 889.9375 321.238281 C 900.277344 321.238281 905.433594 326.738281 905.433594 337.738281 L 905.433594 400.859375 C 905.433594 402.242188 904.308594 403.367188 902.925781 403.367188 Z M 902.9375 403.367188 " fill-opacity="1" fill-rule="nonzero"/><path fill="#20334f" d="M 563.503906 419.621094 C 572.183594 419.621094 576.527344 424.246094 576.527344 433.484375 L 576.527344 447.039062 C 576.527344 456.292969 572.183594 460.90625 563.503906 460.90625 L 554.132812 460.90625 C 552.75 460.90625 551.628906 462.027344 551.628906 463.414062 L 551.628906 485.082031 C 551.628906 486.46875 550.503906 487.589844 549.121094 487.589844 L 539.429688 487.589844 C 538.046875 487.589844 536.925781 486.46875 536.925781 485.082031 L 536.925781 422.128906 C 536.925781 420.746094 538.046875 419.621094 539.429688 419.621094 Z M 561.824219 448.71875 L 561.824219 431.804688 C 561.824219 431.25 561.632812 430.753906 561.242188 430.339844 C 560.851562 429.914062 560.378906 429.710938 559.824219 429.710938 L 554.132812 429.710938 C 552.75 429.710938 551.628906 430.835938 551.628906 432.21875 L 551.628906 448.316406 C 551.628906 449.703125 552.75 450.824219 554.132812 450.824219 L 559.824219 450.824219 C 560.378906 450.824219 560.851562 450.613281 561.242188 450.199219 C 561.632812 449.773438 561.824219 449.289062 561.824219 448.730469 Z M 561.824219 448.71875 " fill-opacity="1" fill-rule="nonzero"/><path fill="#20334f" d="M 598.585938 462.253906 L 598.585938 485.070312 C 598.585938 486.457031 597.464844 487.578125 596.078125 487.578125 L 586.390625 487.578125 C 585.007812 487.578125 583.882812 486.457031 583.882812 485.070312 L 583.882812 422.117188 C 583.882812 420.734375 585.007812 419.609375 586.390625 419.609375 L 610.035156 419.609375 C 618.71875 419.609375 623.058594 424.234375 623.058594 433.472656 L 623.058594 441.351562 C 623.058594 445.347656 622.042969 448.316406 620.007812 450.246094 C 618.957031 451.238281 618.945312 452.824219 619.972656 453.84375 C 621.546875 455.402344 622.328125 457.675781 622.328125 460.679688 L 622.328125 485.070312 C 622.328125 486.457031 621.203125 487.578125 619.820312 487.578125 L 610.132812 487.578125 C 608.746094 487.578125 607.625 486.457031 607.625 485.070312 L 607.625 461.839844 C 607.625 460.441406 606.960938 459.734375 605.625 459.734375 L 601.09375 459.734375 C 599.710938 459.734375 598.585938 460.855469 598.585938 462.242188 Z M 598.585938 432.101562 L 598.585938 446.945312 C 598.585938 448.332031 599.710938 449.453125 601.09375 449.453125 L 606.359375 449.453125 C 606.914062 449.453125 607.386719 449.242188 607.777344 448.828125 C 608.15625 448.402344 608.355469 447.917969 608.355469 447.359375 L 608.355469 431.710938 C 608.355469 431.152344 608.167969 430.65625 607.777344 430.242188 C 607.386719 429.816406 606.914062 429.617188 606.359375 429.617188 L 601.09375 429.617188 C 599.710938 429.617188 598.585938 430.742188 598.585938 432.125 Z M 598.585938 432.101562 " fill-opacity="1" fill-rule="nonzero"/><path fill="#20334f" d="M 672.539062 432.433594 L 672.539062 474.769531 C 672.539062 484.019531 668.199219 488.632812 659.515625 488.632812 L 645.546875 488.632812 C 636.863281 488.632812 632.523438 484.007812 632.523438 474.769531 L 632.523438 432.433594 C 632.523438 423.191406 636.863281 418.566406 645.546875 418.566406 L 659.515625 418.566406 C 668.199219 418.566406 672.539062 423.191406 672.539062 432.433594 Z M 657.835938 476.449219 L 657.835938 430.644531 C 657.835938 430.089844 657.648438 429.59375 657.257812 429.179688 C 656.867188 428.753906 656.394531 428.550781 655.835938 428.550781 L 649.214844 428.550781 C 648.65625 428.550781 648.183594 428.765625 647.792969 429.179688 C 647.402344 429.605469 647.214844 430.089844 647.214844 430.644531 L 647.214844 476.449219 C 647.214844 477.003906 647.402344 477.5 647.792969 477.914062 C 648.171875 478.339844 648.644531 478.542969 649.214844 478.542969 L 655.835938 478.542969 C 656.394531 478.542969 656.867188 478.328125 657.257812 477.914062 C 657.636719 477.488281 657.835938 477.003906 657.835938 476.449219 Z M 657.835938 476.449219 " fill-opacity="1" fill-rule="nonzero"/><path fill="#20334f" d="M 703.222656 458.078125 L 703.222656 452.269531 C 703.222656 450.886719 704.347656 449.761719 705.730469 449.761719 L 720.148438 449.761719 C 721.535156 449.761719 722.65625 450.886719 722.65625 452.269531 L 722.65625 474.769531 C 722.65625 484.019531 718.316406 488.632812 709.632812 488.632812 L 696.398438 488.632812 C 687.714844 488.632812 683.375 484.007812 683.375 474.769531 L 683.375 432.433594 C 683.375 423.191406 687.714844 418.566406 696.398438 418.566406 L 709.632812 418.566406 C 718.316406 418.566406 722.65625 423.191406 722.65625 432.433594 L 722.65625 436.335938 C 722.65625 437.71875 721.535156 438.84375 720.148438 438.84375 L 711.195312 438.84375 C 709.8125 438.84375 708.6875 437.71875 708.6875 436.335938 L 708.6875 430.644531 C 708.6875 430.089844 708.5 429.59375 708.109375 429.179688 C 707.71875 428.753906 707.246094 428.550781 706.6875 428.550781 L 700.066406 428.550781 C 699.507812 428.550781 699.035156 428.765625 698.644531 429.179688 C 698.253906 429.605469 698.066406 430.089844 698.066406 430.644531 L 698.066406 476.449219 C 698.066406 477.003906 698.253906 477.5 698.644531 477.914062 C 699.023438 478.339844 699.496094 478.542969 700.066406 478.542969 L 706.6875 478.542969 C 707.246094 478.542969 707.71875 478.328125 708.109375 477.914062 C 708.488281 477.488281 708.6875 477.003906 708.6875 476.449219 L 708.6875 463.09375 C 708.6875 461.707031 707.5625 460.585938 706.179688 460.585938 L 705.730469 460.585938 C 704.347656 460.585938 703.222656 459.460938 703.222656 458.078125 Z M 703.222656 458.078125 " fill-opacity="1" fill-rule="nonzero"/><path fill="#20334f" d="M 745.449219 462.253906 L 745.449219 485.070312 C 745.449219 486.457031 744.328125 487.578125 742.941406 487.578125 L 733.253906 487.578125 C 731.871094 487.578125 730.746094 486.457031 730.746094 485.070312 L 730.746094 422.117188 C 730.746094 420.734375 731.871094 419.609375 733.253906 419.609375 L 756.902344 419.609375 C 765.582031 419.609375 769.925781 424.234375 769.925781 433.472656 L 769.925781 441.351562 C 769.925781 445.347656 768.90625 448.316406 766.871094 450.246094 C 765.820312 451.238281 765.808594 452.824219 766.835938 453.84375 C 768.410156 455.402344 769.191406 457.675781 769.191406 460.679688 L 769.191406 485.070312 C 769.191406 486.457031 768.066406 487.578125 766.683594 487.578125 L 756.996094 487.578125 C 755.613281 487.578125 754.488281 486.457031 754.488281 485.070312 L 754.488281 461.839844 C 754.488281 460.441406 753.824219 459.734375 752.488281 459.734375 L 747.957031 459.734375 C 746.574219 459.734375 745.449219 460.855469 745.449219 462.242188 Z M 745.449219 432.101562 L 745.449219 446.945312 C 745.449219 448.332031 746.574219 449.453125 747.957031 449.453125 L 753.222656 449.453125 C 753.777344 449.453125 754.25 449.242188 754.640625 448.828125 C 755.019531 448.402344 755.222656 447.917969 755.222656 447.359375 L 755.222656 431.710938 C 755.222656 431.152344 755.03125 430.65625 754.640625 430.242188 C 754.25 429.816406 753.777344 429.617188 753.222656 429.617188 L 747.957031 429.617188 C 746.574219 429.617188 745.449219 430.742188 745.449219 432.125 Z M 745.449219 432.101562 " fill-opacity="1" fill-rule="nonzero"/><path fill="#20334f" d="M 796.597656 475.40625 L 807.871094 475.40625 C 809.253906 475.40625 810.378906 476.53125 810.378906 477.914062 L 810.378906 485.082031 C 810.378906 486.46875 809.253906 487.589844 807.871094 487.589844 L 781.894531 487.589844 C 780.511719 487.589844 779.386719 486.46875 779.386719 485.082031 L 779.386719 422.128906 C 779.386719 420.746094 780.511719 419.621094 781.894531 419.621094 L 807.871094 419.621094 C 809.253906 419.621094 810.378906 420.746094 810.378906 422.128906 L 810.378906 429.085938 C 810.378906 430.46875 809.253906 431.59375 807.871094 431.59375 L 796.597656 431.59375 C 795.214844 431.59375 794.089844 432.714844 794.089844 434.101562 L 794.089844 445.054688 C 794.089844 446.4375 795.214844 447.5625 796.597656 447.5625 L 806.816406 447.5625 C 808.203125 447.5625 809.324219 448.683594 809.324219 450.070312 L 809.324219 456.609375 C 809.324219 457.996094 808.203125 459.117188 806.816406 459.117188 L 796.597656 459.117188 C 795.214844 459.117188 794.089844 460.242188 794.089844 461.625 L 794.089844 472.898438 C 794.089844 474.285156 795.214844 475.40625 796.597656 475.40625 Z M 796.597656 475.40625 " fill-opacity="1" fill-rule="nonzero"/><path fill="#20334f" d="M 854.085938 437.484375 L 845.132812 437.484375 C 843.746094 437.484375 842.625 436.359375 842.625 434.976562 L 842.625 432.125 C 842.625 431.566406 842.433594 431.070312 842.042969 430.65625 C 841.652344 430.230469 841.179688 430.03125 840.625 430.03125 L 834.851562 430.03125 C 834.285156 430.03125 833.824219 430.242188 833.433594 430.65625 C 833.042969 431.082031 832.851562 431.566406 832.851562 432.125 L 832.851562 444.203125 C 832.851562 444.769531 833.042969 445.253906 833.433594 445.667969 C 833.824219 446.09375 834.285156 446.296875 834.851562 446.296875 L 844.304688 446.296875 C 852.984375 446.4375 857.328125 451.0625 857.328125 460.160156 L 857.328125 474.769531 C 857.328125 484.019531 852.984375 488.632812 844.304688 488.632812 L 831.90625 488.632812 C 823.222656 488.632812 818.882812 484.007812 818.882812 474.769531 L 818.882812 470.238281 C 818.882812 468.855469 820.007812 467.730469 821.390625 467.730469 L 830.34375 467.730469 C 831.730469 467.730469 832.851562 468.855469 832.851562 470.238281 L 832.851562 475.289062 C 832.851562 475.84375 833.042969 476.339844 833.433594 476.753906 C 833.824219 477.179688 834.285156 477.382812 834.851562 477.382812 L 841.371094 477.382812 C 841.925781 477.382812 842.398438 477.167969 842.789062 476.753906 C 843.167969 476.328125 843.367188 475.84375 843.367188 475.289062 L 843.367188 461.945312 C 843.367188 461.390625 843.179688 460.894531 842.789062 460.480469 C 842.398438 460.054688 841.925781 459.851562 841.371094 459.851562 L 831.917969 459.851562 C 823.234375 459.851562 818.894531 455.226562 818.894531 445.988281 L 818.894531 432.433594 C 818.894531 423.191406 823.234375 418.566406 831.917969 418.566406 L 843.582031 418.566406 C 852.261719 418.566406 856.605469 423.191406 856.605469 432.433594 L 856.605469 434.964844 C 856.605469 436.347656 855.480469 437.472656 854.097656 437.472656 Z M 854.085938 437.484375 " fill-opacity="1" fill-rule="nonzero"/><path fill="#20334f" d="M 902.203125 437.484375 L 893.25 437.484375 C 891.867188 437.484375 890.742188 436.359375 890.742188 434.976562 L 890.742188 432.125 C 890.742188 431.566406 890.554688 431.070312 890.164062 430.65625 C 889.773438 430.230469 889.300781 430.03125 888.742188 430.03125 L 882.96875 430.03125 C 882.402344 430.03125 881.941406 430.242188 881.550781 430.65625 C 881.160156 431.082031 880.972656 431.566406 880.972656 432.125 L 880.972656 444.203125 C 880.972656 444.769531 881.160156 445.253906 881.550781 445.667969 C 881.941406 446.09375 882.402344 446.296875 882.96875 446.296875 L 892.421875 446.296875 C 901.105469 446.4375 905.445312 451.0625 905.445312 460.160156 L 905.445312 474.769531 C 905.445312 484.019531 901.105469 488.632812 892.421875 488.632812 L 880.023438 488.632812 C 871.34375 488.632812 867.003906 484.007812 867.003906 474.769531 L 867.003906 470.238281 C 867.003906 468.855469 868.125 467.730469 869.507812 467.730469 L 878.464844 467.730469 C 879.847656 467.730469 880.972656 468.855469 880.972656 470.238281 L 880.972656 475.289062 C 880.972656 475.84375 881.160156 476.339844 881.550781 476.753906 C 881.941406 477.179688 882.402344 477.382812 882.96875 477.382812 L 889.488281 477.382812 C 890.042969 477.382812 890.515625 477.167969 890.90625 476.753906 C 891.285156 476.328125 891.488281 475.84375 891.488281 475.289062 L 891.488281 461.945312 C 891.488281 461.390625 891.296875 460.894531 890.90625 460.480469 C 890.515625 460.054688 890.042969 459.851562 889.488281 459.851562 L 880.039062 459.851562 C 871.355469 459.851562 867.015625 455.226562 867.015625 445.988281 L 867.015625 432.433594 C 867.015625 423.191406 871.355469 418.566406 880.039062 418.566406 L 891.699219 418.566406 C 900.382812 418.566406 904.722656 423.191406 904.722656 432.433594 L 904.722656 434.964844 C 904.722656 436.347656 903.601562 437.472656 902.214844 437.472656 Z M 902.203125 437.484375 " fill-opacity="1" fill-rule="nonzero"/><path fill="#20334f" d="M 952.203125 300.855469 C 952.203125 301.796875 952.113281 302.726562 951.929688 303.648438 C 951.746094 304.570312 951.472656 305.464844 951.113281 306.332031 C 950.753906 307.203125 950.3125 308.027344 949.792969 308.808594 C 949.269531 309.589844 948.675781 310.3125 948.011719 310.976562 C 947.347656 311.640625 946.625 312.234375 945.84375 312.757812 C 945.0625 313.28125 944.238281 313.71875 943.367188 314.078125 C 942.5 314.441406 941.605469 314.710938 940.683594 314.894531 C 939.761719 315.078125 938.832031 315.167969 937.890625 315.167969 C 936.953125 315.167969 936.019531 315.078125 935.097656 314.894531 C 934.175781 314.710938 933.28125 314.441406 932.414062 314.078125 C 931.546875 313.71875 930.722656 313.28125 929.9375 312.757812 C 929.15625 312.234375 928.433594 311.640625 927.769531 310.976562 C 927.105469 310.3125 926.511719 309.589844 925.992188 308.808594 C 925.46875 308.027344 925.027344 307.203125 924.667969 306.332031 C 924.308594 305.464844 924.035156 304.570312 923.851562 303.648438 C 923.671875 302.726562 923.578125 301.796875 923.578125 300.855469 C 923.578125 299.917969 923.671875 298.984375 923.851562 298.0625 C 924.035156 297.140625 924.308594 296.246094 924.667969 295.378906 C 925.027344 294.511719 925.46875 293.6875 925.992188 292.902344 C 926.511719 292.121094 927.105469 291.398438 927.769531 290.734375 C 928.433594 290.070312 929.15625 289.476562 929.9375 288.957031 C 930.722656 288.433594 931.546875 287.992188 932.414062 287.632812 C 933.28125 287.273438 934.175781 287 935.097656 286.816406 C 936.019531 286.632812 936.953125 286.542969 937.890625 286.542969 C 938.832031 286.542969 939.761719 286.632812 940.683594 286.816406 C 941.605469 287 942.5 287.273438 943.367188 287.632812 C 944.238281 287.992188 945.0625 288.433594 945.84375 288.957031 C 946.625 289.476562 947.347656 290.070312 948.011719 290.734375 C 948.675781 291.398438 949.269531 292.121094 949.792969 292.902344 C 950.3125 293.6875 950.753906 294.511719 951.113281 295.378906 C 951.472656 296.246094 951.746094 297.140625 951.929688 298.0625 C 952.113281 298.984375 952.203125 299.917969 952.203125 300.855469 Z M 952.203125 300.855469 " fill-opacity="1" fill-rule="nonzero"/><path fill="#20334f" d="M 952.203125 509.027344 C 952.203125 509.964844 952.113281 510.894531 951.929688 511.816406 C 951.746094 512.738281 951.472656 513.632812 951.113281 514.503906 C 950.753906 515.371094 950.3125 516.195312 949.792969 516.976562 C 949.269531 517.757812 948.675781 518.480469 948.011719 519.144531 C 947.347656 519.8125 946.625 520.402344 945.84375 520.925781 C 945.0625 521.449219 944.238281 521.890625 943.367188 522.25 C 942.5 522.609375 941.605469 522.878906 940.683594 523.0625 C 939.761719 523.246094 938.832031 523.339844 937.890625 523.339844 C 936.953125 523.339844 936.019531 523.246094 935.097656 523.0625 C 934.175781 522.878906 933.28125 522.609375 932.414062 522.25 C 931.546875 521.890625 930.722656 521.449219 929.9375 520.925781 C 929.15625 520.402344 928.433594 519.8125 927.769531 519.144531 C 927.105469 518.480469 926.511719 517.757812 925.992188 516.976562 C 925.46875 516.195312 925.027344 515.371094 924.667969 514.503906 C 924.308594 513.632812 924.035156 512.738281 923.851562 511.816406 C 923.671875 510.894531 923.578125 509.964844 923.578125 509.027344 C 923.578125 508.085938 923.671875 507.15625 923.851562 506.234375 C 924.035156 505.3125 924.308594 504.417969 924.667969 503.546875 C 925.027344 502.679688 925.46875 501.855469 925.992188 501.074219 C 926.511719 500.292969 927.105469 499.570312 927.769531 498.90625 C 928.433594 498.238281 929.15625 497.644531 929.9375 497.125 C 930.722656 496.601562 931.546875 496.160156 932.414062 495.800781 C 933.28125 495.441406 934.175781 495.171875 935.097656 494.988281 C 936.019531 494.804688 936.953125 494.710938 937.890625 494.710938 C 938.832031 494.710938 939.761719 494.804688 940.683594 494.988281 C 941.605469 495.171875 942.5 495.441406 943.367188 495.800781 C 944.238281 496.160156 945.0625 496.601562 945.84375 497.125 C 946.625 497.644531 947.347656 498.238281 948.011719 498.90625 C 948.675781 499.570312 949.269531 500.292969 949.792969 501.074219 C 950.3125 501.855469 950.753906 502.679688 951.113281 503.546875 C 951.472656 504.417969 951.746094 505.3125 951.929688 506.234375 C 952.113281 507.15625 952.203125 508.085938 952.203125 509.027344 Z M 952.203125 509.027344 " fill-opacity="1" fill-rule="nonzero"/><path fill="#20334f" d="M 516.390625 300.855469 C 516.390625 301.796875 516.296875 302.726562 516.113281 303.648438 C 515.929688 304.570312 515.660156 305.464844 515.300781 306.332031 C 514.941406 307.203125 514.5 308.027344 513.976562 308.808594 C 513.457031 309.589844 512.863281 310.3125 512.199219 310.976562 C 511.53125 311.640625 510.808594 312.234375 510.027344 312.757812 C 509.246094 313.28125 508.421875 313.71875 507.554688 314.078125 C 506.6875 314.441406 505.789062 314.710938 504.867188 314.894531 C 503.949219 315.078125 503.015625 315.167969 502.078125 315.167969 C 501.136719 315.167969 500.207031 315.078125 499.285156 314.894531 C 498.363281 314.710938 497.46875 314.441406 496.597656 314.078125 C 495.730469 313.71875 494.90625 313.28125 494.125 312.757812 C 493.34375 312.234375 492.621094 311.640625 491.957031 310.976562 C 491.292969 310.3125 490.699219 309.589844 490.175781 308.808594 C 489.652344 308.027344 489.214844 307.203125 488.855469 306.332031 C 488.492188 305.464844 488.222656 304.570312 488.039062 303.648438 C 487.855469 302.726562 487.765625 301.796875 487.765625 300.855469 C 487.765625 299.917969 487.855469 298.984375 488.039062 298.0625 C 488.222656 297.140625 488.492188 296.246094 488.855469 295.378906 C 489.214844 294.511719 489.652344 293.6875 490.175781 292.902344 C 490.699219 292.121094 491.292969 291.398438 491.957031 290.734375 C 492.621094 290.070312 493.34375 289.476562 494.125 288.957031 C 494.90625 288.433594 495.730469 287.992188 496.597656 287.632812 C 497.46875 287.273438 498.363281 287 499.285156 286.816406 C 500.207031 286.632812 501.136719 286.542969 502.078125 286.542969 C 503.015625 286.542969 503.949219 286.632812 504.867188 286.816406 C 505.789062 287 506.6875 287.273438 507.554688 287.632812 C 508.421875 287.992188 509.246094 288.433594 510.027344 288.957031 C 510.808594 289.476562 511.53125 290.070312 512.199219 290.734375 C 512.863281 291.398438 513.457031 292.121094 513.976562 292.902344 C 514.5 293.6875 514.941406 294.511719 515.300781 295.378906 C 515.660156 296.246094 515.929688 297.140625 516.113281 298.0625 C 516.296875 298.984375 516.390625 299.917969 516.390625 300.855469 Z M 516.390625 300.855469 " fill-opacity="1" fill-rule="nonzero"/><path fill="#20334f" d="M 516.390625 509.027344 C 516.390625 509.964844 516.296875 510.894531 516.113281 511.816406 C 515.929688 512.738281 515.660156 513.632812 515.300781 514.503906 C 514.941406 515.371094 514.5 516.195312 513.976562 516.976562 C 513.457031 517.757812 512.863281 518.480469 512.199219 519.144531 C 511.53125 519.8125 510.808594 520.402344 510.027344 520.925781 C 509.246094 521.449219 508.421875 521.890625 507.554688 522.25 C 506.6875 522.609375 505.789062 522.878906 504.867188 523.0625 C 503.949219 523.246094 503.015625 523.339844 502.078125 523.339844 C 501.136719 523.339844 500.207031 523.246094 499.285156 523.0625 C 498.363281 522.878906 497.46875 522.609375 496.597656 522.25 C 495.730469 521.890625 494.90625 521.449219 494.125 520.925781 C 493.34375 520.402344 492.621094 519.8125 491.957031 519.144531 C 491.292969 518.480469 490.699219 517.757812 490.175781 516.976562 C 489.652344 516.195312 489.214844 515.371094 488.855469 514.503906 C 488.492188 513.632812 488.222656 512.738281 488.039062 511.816406 C 487.855469 510.894531 487.765625 509.964844 487.765625 509.027344 C 487.765625 508.085938 487.855469 507.15625 488.039062 506.234375 C 488.222656 505.3125 488.492188 504.417969 488.855469 503.546875 C 489.214844 502.679688 489.652344 501.855469 490.175781 501.074219 C 490.699219 500.292969 491.292969 499.570312 491.957031 498.90625 C 492.621094 498.238281 493.34375 497.644531 494.125 497.125 C 494.90625 496.601562 495.730469 496.160156 496.597656 495.800781 C 497.46875 495.441406 498.363281 495.171875 499.285156 494.988281 C 500.207031 494.804688 501.136719 494.710938 502.078125 494.710938 C 503.015625 494.710938 503.949219 494.804688 504.867188 494.988281 C 505.789062 495.171875 506.6875 495.441406 507.554688 495.800781 C 508.421875 496.160156 509.246094 496.601562 510.027344 497.125 C 510.808594 497.644531 511.53125 498.238281 512.199219 498.90625 C 512.863281 499.570312 513.457031 500.292969 513.976562 501.074219 C 514.5 501.855469 514.941406 502.679688 515.300781 503.546875 C 515.660156 504.417969 515.929688 505.3125 516.113281 506.234375 C 516.296875 507.15625 516.390625 508.085938 516.390625 509.027344 Z M 516.390625 509.027344 " fill-opacity="1" fill-rule="nonzero"/></svg>