<svg width="353" height="87" viewBox="0 0 353 87" fill="none" xmlns="http://www.w3.org/2000/svg">
<path d="M128.8 85.7395V59.4395H135.1V69.6395H144.2V59.4395H150.5V85.7395H144.2V74.6395H135.1V85.7395H128.8Z" fill="black"/>
<path d="M175.7 75.5391C175.7 77.1391 175.4 78.6391 174.9 79.9391C174.4 81.2391 173.6 82.3391 172.7 83.2391C171.8 84.1391 170.6 84.8391 169.4 85.3391C168.1 85.8391 166.7 86.0391 165.3 86.0391C163.8 86.0391 162.5 85.8391 161.2 85.3391C159.9 84.8391 158.8 84.239 157.9 83.3391C157 82.4391 156.3 81.4391 155.7 80.1391C155.2 78.8391 154.9 77.4391 154.9 75.8391C154.9 74.1391 155.2 72.6391 155.7 71.2391C156.2 69.8391 157 68.7391 157.9 67.8391C158.8 66.9391 160 66.2391 161.2 65.7391C162.5 65.2391 163.9 65.0391 165.3 65.0391C166.8 65.0391 168.1 65.2391 169.4 65.7391C170.7 66.1391 171.8 66.8391 172.7 67.7391C173.6 68.6391 174.3 69.7391 174.9 70.9391C175.4 72.3391 175.7 73.8391 175.7 75.5391ZM169.3 75.7391C169.3 74.6391 169.2 73.7391 169 72.9391C168.8 72.1391 168.5 71.5391 168.1 71.0391C167.7 70.5391 167.3 70.2391 166.8 69.9391C166.3 69.7391 165.8 69.6391 165.3 69.6391C164.8 69.6391 164.3 69.7391 163.8 69.9391C163.3 70.1391 162.9 70.4391 162.5 70.9391C162.1 71.4391 161.8 72.0391 161.6 72.8391C161.4 73.6391 161.3 74.5391 161.3 75.7391C161.3 77.7391 161.7 79.2391 162.6 80.2391C163.4 81.1391 164.4 81.6391 165.5 81.6391C166 81.6391 166.5 81.5391 167 81.3391C167.5 81.139 167.9 80.8391 168.3 80.3391C168.7 79.8391 169 79.2391 169.2 78.5391C169.2 77.7391 169.3 76.8391 169.3 75.7391Z" fill="black"/>
<path d="M185.7 85.7402H179.5V65.7402H184.3L185 68.2402C185.9 67.3402 186.9 66.6402 187.9 66.0402C189 65.5402 190.1 65.2402 191.4 65.2402C194.3 65.2402 196.2 66.2402 197.3 68.2402C198.2 67.3402 199.2 66.5402 200.3 66.0402C201.4 65.4402 202.6 65.2402 203.9 65.2402C206 65.2402 207.7 65.8402 208.9 66.9402C210.1 68.1402 210.7 69.7402 210.7 72.0402V85.7402H204.5V72.6402C204.5 71.8402 204.3 71.1402 203.8 70.6402C203.4 70.1402 202.8 69.8402 202 69.8402C201.3 69.8402 200.6 70.0402 199.9 70.3402C199.2 70.6402 198.6 71.1402 198.1 71.8402V85.7402H191.9V72.6402C191.9 71.8402 191.7 71.1402 191.2 70.6402C190.8 70.1402 190.2 69.8402 189.4 69.8402C188.7 69.8402 188 70.0402 187.3 70.4402C186.6 70.8402 186 71.3402 185.5 71.9402V85.7402H185.7Z" fill="black"/>
<path d="M233.6 77.4406H220.7V77.6406C220.7 79.0406 221.2 80.0406 222.3 80.6406C223.4 81.2406 224.7 81.6406 226.4 81.6406C227.5 81.6406 228.5 81.5406 229.4 81.3406C230.3 81.1406 231 80.8406 231.6 80.5406L232.7 84.8406C231.9 85.2406 231 85.5406 229.8 85.8406C228.6 86.1406 227.2 86.2406 225.6 86.2406C224.1 86.2406 222.7 86.0406 221.3 85.6406C219.9 85.2406 218.8 84.6406 217.7 83.7406C216.7 82.9406 215.9 81.8406 215.3 80.5406C214.7 79.2406 214.4 77.7406 214.4 75.9406C214.4 74.3406 214.6 72.9406 215.1 71.5406C215.6 70.2406 216.3 69.0406 217.2 68.1406C218.1 67.2406 219.2 66.4406 220.4 65.9406C221.6 65.4406 223 65.1406 224.5 65.1406C227.3 65.1406 229.5 65.9406 231.1 67.6406C232.7 69.3406 233.6 71.6406 233.6 74.7406V77.4406ZM227.3 73.2406C227.3 72.7406 227.2 72.3406 227.1 71.8406C227 71.4406 226.8 71.0406 226.6 70.6406C226.4 70.3406 226.1 70.0406 225.7 69.8406C225.3 69.6406 224.9 69.5406 224.3 69.5406C223.3 69.5406 222.5 69.8406 221.9 70.5406C221.3 71.2406 220.9 72.1406 220.8 73.3406L227.3 73.2406Z" fill="black"/>
<path d="M247.5 59.3398H253.8V80.7399H264.2V85.6399H247.5V59.3398Z" fill="black"/>
<path d="M286.7 75.5391C286.7 77.1391 286.4 78.6391 285.9 79.9391C285.4 81.2391 284.6 82.3391 283.7 83.2391C282.8 84.1391 281.6 84.8391 280.4 85.3391C279.1 85.8391 277.7 86.0391 276.3 86.0391C274.8 86.0391 273.5 85.8391 272.2 85.3391C270.9 84.8391 269.8 84.239 268.9 83.3391C268 82.4391 267.3 81.4391 266.7 80.1391C266.2 78.8391 265.9 77.4391 265.9 75.8391C265.9 74.1391 266.2 72.6391 266.7 71.2391C267.2 69.9391 268 68.7391 268.9 67.8391C269.8 66.9391 271 66.2391 272.2 65.7391C273.5 65.2391 274.9 65.0391 276.3 65.0391C277.8 65.0391 279.1 65.2391 280.4 65.7391C281.7 66.1391 282.8 66.8391 283.7 67.7391C284.6 68.6391 285.3 69.7391 285.9 70.9391C286.4 72.3391 286.7 73.8391 286.7 75.5391ZM280.3 75.7391C280.3 74.6391 280.2 73.7391 280 72.9391C279.8 72.1391 279.5 71.5391 279.1 71.0391C278.7 70.5391 278.3 70.2391 277.8 69.9391C277.3 69.7391 276.8 69.6391 276.3 69.6391C275.8 69.6391 275.3 69.7391 274.8 69.9391C274.3 70.1391 273.9 70.4391 273.5 70.9391C273.1 71.4391 272.8 72.0391 272.6 72.8391C272.4 73.6391 272.3 74.5391 272.3 75.7391C272.3 77.7391 272.7 79.2391 273.6 80.2391C274.5 81.2391 275.4 81.6391 276.5 81.6391C277 81.6391 277.5 81.5391 278 81.3391C278.5 81.139 278.9 80.8391 279.3 80.3391C279.7 79.8391 280 79.2391 280.2 78.5391C280.4 77.8391 280.3 76.8391 280.3 75.7391Z" fill="black"/>
<path d="M290.8 67.4402C291.9 66.7402 293.2 66.2402 294.7 65.8402C296.1 65.4402 297.6 65.2402 299.1 65.2402C301.6 65.2402 303.6 65.8402 305.1 67.0402C306.6 68.2402 307.4 70.1402 307.4 72.7402V85.7402H302.7L302.2 83.7402H302C301.4 84.4402 300.7 85.0402 299.7 85.5402C298.7 86.0402 297.5 86.2402 296.2 86.2402C295.1 86.2402 294.1 86.0402 293.2 85.7402C292.3 85.4402 291.6 84.9402 291.1 84.4402C290.5 83.8402 290.1 83.2402 289.8 82.4402C289.5 81.6402 289.4 80.8402 289.4 80.0402C289.4 78.8402 289.7 77.8402 290.2 77.0402C290.7 76.2402 291.4 75.5402 292.3 75.0402C293.2 74.5402 294.2 74.1402 295.4 73.8402C296.6 73.5402 297.8 73.4402 299.2 73.4402H301.3V72.3402C301.3 71.5402 301 71.0402 300.5 70.6402C300 70.2402 299.2 70.0402 298.2 70.0402C297.4 70.0402 296.5 70.1402 295.7 70.4402C294.9 70.7402 294 71.1402 293 71.6402L290.8 67.4402ZM301.2 77.0402H299.8C299 77.0402 298.4 77.1402 297.8 77.3402C297.3 77.4402 296.8 77.6402 296.5 77.8402C296.2 78.0402 295.9 78.3402 295.8 78.6402C295.7 78.9402 295.6 79.2402 295.6 79.5402C295.6 80.4402 295.9 81.0402 296.4 81.3402C296.9 81.6402 297.5 81.8402 298.2 81.8402C298.9 81.8402 299.5 81.6402 300 81.2402C300.5 80.8402 300.9 80.4402 301.1 79.9402V77.0402H301.2Z" fill="black"/>
<path d="M318 85.7402H311.8V65.7402H316.6L317.3 68.2402C318.2 67.3402 319.2 66.6402 320.3 66.0402C321.4 65.5402 322.6 65.2402 323.9 65.2402C326.2 65.2402 327.9 65.8402 329.1 67.0402C330.3 68.2402 330.9 70.0402 330.9 72.4402V85.7402H324.7V73.0402C324.7 72.0402 324.5 71.3402 324 70.7402C323.5 70.1402 322.9 69.8402 322 69.8402C321.3 69.8402 320.6 70.0402 319.9 70.4402C319.2 70.8402 318.5 71.3402 318 71.9402V85.7402Z" fill="black"/>
<path d="M348.2 70.8391C347.4 70.4391 346.7 70.2391 345.8 69.9391C345 69.7391 344.2 69.6391 343.4 69.6391C342.7 69.6391 342.1 69.7391 341.6 70.0391C341.2 70.3391 340.9 70.6391 340.9 71.0391C340.9 71.5391 341.1 71.9391 341.5 72.2391C341.9 72.5391 342.8 72.9391 344.1 73.2391L345.4 73.6391C347.1 74.1391 348.3 74.8391 349.2 75.8391C350.1 76.8391 350.5 78.0391 350.5 79.5391C350.5 80.5391 350.3 81.4391 349.9 82.2391C349.5 83.0391 348.9 83.739 348.1 84.3391C347.3 84.9391 346.4 85.3391 345.3 85.6391C344.2 85.9391 343 86.1391 341.7 86.1391C340.3 86.1391 339 86.0391 337.9 85.7391C336.8 85.4391 335.8 85.1391 334.8 84.6391L336.1 80.1391C336.9 80.5391 337.7 80.9391 338.6 81.1391C339.5 81.4391 340.4 81.5391 341.3 81.5391C342.4 81.5391 343.1 81.3391 343.5 81.0391C343.9 80.7391 344.1 80.3391 344.1 79.9391C344.1 79.6391 344.1 79.4391 344 79.3391C343.9 79.1391 343.7 78.9391 343.5 78.8391C343.2 78.6391 342.9 78.5391 342.4 78.3391C341.9 78.1391 341.3 78.0391 340.6 77.7391L339.3 77.3391C337.7 76.8391 336.5 76.0391 335.7 75.1391C334.9 74.2391 334.6 72.9391 334.6 71.3391C334.6 70.4391 334.8 69.5391 335.1 68.8391C335.5 68.0391 336 67.4391 336.7 66.8391C337.4 66.2391 338.2 65.8391 339.2 65.5391C340.2 65.2391 341.3 65.0391 342.6 65.0391C343.9 65.0391 345.1 65.1391 346.2 65.4391C347.3 65.6391 348.3 66.0391 349.2 66.4391L348.2 70.8391Z" fill="black"/>
<path d="M121.6 59.4395H0V63.7395H121.6V59.4395Z" fill="black"/>
<path fill-rule="evenodd" clip-rule="evenodd" d="M154.2 32.541C154.2 26.341 158.9 23.641 165.5 23.641C168.3 23.641 170.4 24.141 172.4 24.741V24.241C172.4 21.041 170.3 19.241 166.4 19.241C163.3 19.241 161.2 19.841 158.6 20.741L156.6 14.741C159.7 13.441 162.8 12.541 167.5 12.541C171.8 12.541 175 13.641 177 15.641C179.1 17.741 180.1 20.741 180.1 24.441V40.541H172.4V37.541C170.5 39.641 167.8 41.041 164 41.041C158.5 41.041 154.2 38.041 154.2 32.541ZM172.4 30.741V29.441C171.1 28.841 169.2 28.341 167.4 28.341C164 28.341 161.9 29.641 161.9 32.241V32.341C161.9 34.541 163.7 35.741 166.2 35.741C169.9 35.641 172.4 33.541 172.4 30.741Z" fill="black"/>
<path fill-rule="evenodd" clip-rule="evenodd" d="M183.4 35.3402L188.4 29.3402C191.9 32.1402 195.5 34.0402 199.9 34.0402C203.4 34.0402 205.4 32.7402 205.4 30.4402V30.3402C205.4 28.2402 204.1 27.1402 197.7 25.5402C189.9 23.5402 184.9 21.4402 184.9 13.8402V13.6402C184.9 6.74024 190.5 2.24023 198.4 2.24023C204 2.24023 208.8 3.94024 212.8 7.04024L208.4 13.3402C205 10.9402 201.6 9.64024 198.3 9.64024C195.1 9.64024 193.4 11.0402 193.4 12.9402V13.0402C193.4 15.5402 195.1 16.3402 201.8 18.0402C209.5 20.0402 213.9 22.7402 213.9 29.4402V29.5402C213.9 37.1402 208.1 41.3402 199.8 41.3402C193.9 41.3402 188 39.3402 183.4 35.3402Z" fill="black"/>
<path fill-rule="evenodd" clip-rule="evenodd" d="M217.7 0.640625H225.2V17.1406H225.4C227.3 14.0406 230.6 12.6406 233.4 12.6406C241.4 12.6406 243.4 17.0406 243.4 23.7406V40.3406H235.9V25.0406C235.9 20.6406 234.6 18.4406 231.1 18.4406C227 18.4406 225.3 20.7406 225.3 26.1406V40.3406H217.8V0.640625H217.7Z" fill="black"/>
<path d="M76.8 0.640625H68.4V40.4406H76.8V0.640625Z" fill="black"/>
<path fill-rule="evenodd" clip-rule="evenodd" d="M81.9 13.4402H89.1V17.2402H89.3C91.2 14.0402 94.5 12.7402 97.7 12.7402C105.7 12.7402 107.7 17.1402 107.7 23.8402V40.4402H100.1V25.1402C100.1 20.7402 98.8 18.5402 95.3 18.5402C91.3 18.5402 89.5 20.7402 89.5 26.2402V40.4402H81.9V13.4402Z" fill="black"/>
<path fill-rule="evenodd" clip-rule="evenodd" d="M131.5 37.0406C129.7 39.9406 126.6 41.2406 123.1 41.2406C114.8 41.2406 110.9 34.3406 110.9 26.7406C110.9 19.4406 114.9 12.7406 123 12.7406C126.2 12.7406 129.5 14.0406 131.1 16.7406H131.2V0.640625H138.8V40.4406H131.6V37.0406H131.5ZM125 18.2406C120 18.2406 118.4 22.5406 118.4 26.9406C118.4 31.2406 120.4 35.6406 125 35.6406C129.9 35.6406 131.5 31.3406 131.5 26.8406C131.4 22.5406 129.9 18.2406 125 18.2406Z" fill="black"/>
<path d="M150.8 13.4414H143.2V40.5414H150.8V13.4414Z" fill="black"/>
<path fill-rule="evenodd" clip-rule="evenodd" d="M253.6 28.7402C253.8 33.5402 256.1 35.6402 260.3 35.6402C263.3 35.6402 265.7 33.8402 266.2 32.1402H272.8C270.7 38.6402 266.2 41.2402 260 41.2402C251.3 41.2402 246 35.4402 246 27.0402C246 18.9402 251.6 12.7402 260 12.7402C269.3 12.7402 273.9 20.4402 273.3 28.7402H253.6ZM265.8 24.0402C265.1 20.3402 263.4 18.2402 259.8 18.2402C254.9 18.2402 253.7 21.9402 253.6 24.0402H265.8Z" fill="black"/>
<path d="M284.2 0.640625H276.6V40.4406H284.2V0.640625Z" fill="black"/>
<path fill-rule="evenodd" clip-rule="evenodd" d="M298.3 13.4398H303.8V18.4398H298.3V31.8398C298.3 34.3398 298.9 35.0398 301.5 35.0398C302.4 35.0398 303.2 34.9398 303.9 34.8398V40.6398C302.6 40.8398 301 40.8398 299.5 40.8398C294.8 40.8398 290.8 39.9398 290.8 34.4398V18.4398H286.3V13.4398H290.8V2.83984H298.4V13.4398H298.3Z" fill="black"/>
<path fill-rule="evenodd" clip-rule="evenodd" d="M312.3 28.7402C312.5 33.5402 314.8 35.6402 319 35.6402C322 35.6402 324.4 33.8402 324.9 32.1402H331.5C329.4 38.6402 324.9 41.2402 318.7 41.2402C310 41.2402 304.7 35.4402 304.7 27.0402C304.7 18.9402 310.3 12.7402 318.7 12.7402C328 12.7402 332.6 20.4402 332 28.7402H312.3ZM324.5 24.0402C323.8 20.3402 322.1 18.2402 318.5 18.2402C313.6 18.2402 312.4 21.9402 312.3 24.0402H324.5Z" fill="black"/>
<path fill-rule="evenodd" clip-rule="evenodd" d="M335.2 13.4402H342.3V18.4402H342.4C343.9 15.0402 347.4 12.7402 351.2 12.7402C351.8 12.7402 352.3 12.8402 352.9 12.9402V19.8402C352.2 19.6402 351.1 19.5402 350.2 19.5402C344.6 19.5402 342.8 23.4402 342.8 28.2402V40.4402H335.3V13.4402H335.2Z" fill="black"/>
<path d="M41.3 29.1406H0V40.5406H41.3V29.1406Z" fill="#E22028"/>
<path d="M63.0001 29.1406H43.3V40.5406H63.0001V29.1406Z" fill="#E22028"/>
<path d="M63 0.742188H44.5V12.0422H63V0.742188Z" fill="#E22028"/>
<path d="M63 15.1406H21.6V26.5406H63V15.1406Z" fill="#E22028"/>
<path fill-rule="evenodd" clip-rule="evenodd" d="M151.1 4.64062L151.2 4.84062H151.4C151.3 4.74062 151.2 4.64062 151.1 4.64062Z" fill="#E22028"/>
<path fill-rule="evenodd" clip-rule="evenodd" d="M150.4 3.24236C150.4 3.24236 150.5 3.24236 150.6 3.34236C150.7 3.34236 150.8 3.34236 150.8 3.34236C150.6 3.54236 150.6 3.54237 150.7 3.64237C150.7 3.64237 150.7 3.64237 150.6 3.64237C150.6 3.54237 150.6 3.54236 150.6 3.54236C150.7 3.54236 150.8 3.44236 150.9 3.54236C150.7 3.74236 151.1 3.74236 150.9 4.04236L151.1 4.24236C151.1 4.34236 150.9 4.24236 150.9 4.24236C151 4.34236 151.1 4.44235 151.1 4.44235C151.2 4.44235 151.3 4.64237 151.3 4.64237C151.5 4.54237 151.4 4.44236 151.3 4.34236C151.1 4.24236 151.1 4.14236 151.3 4.04236C151.2 3.94236 151.2 3.84236 151.2 3.74236C151.2 3.54236 151.3 3.54235 151.1 3.44235C150.9 3.24235 150.7 3.14236 150.4 3.24236Z" fill="#E22028"/>
<path fill-rule="evenodd" clip-rule="evenodd" d="M149 8.94141L149.1 9.14142C149 8.94142 149 8.94141 149 8.94141Z" fill="#221F1F"/>
<path fill-rule="evenodd" clip-rule="evenodd" d="M151 3.14062C151 3.24063 151 3.24062 151.1 3.34062C151.1 3.24062 151 3.14062 151 3.14062Z" fill="#E22028"/>
<path fill-rule="evenodd" clip-rule="evenodd" d="M151.7 5.14143C151.7 5.14143 151.5 4.94141 151.2 4.94141C151 4.84141 150.7 4.74142 150.6 4.74142C150.6 3.64142 150.2 2.64141 149.5 1.94141C149.6 1.94141 149.7 1.84141 149.8 1.94141L149.7 2.04142L149.8 2.24142C149.8 2.24142 149.8 2.24142 149.9 2.24142C150 2.24142 150.1 2.24142 150.1 2.24142L149.9 2.34142C150 2.34142 150.1 2.24142 150.1 2.34142L150 2.44141C150.2 2.24141 150.4 2.44142 150.5 2.54142H150.4C150.4 2.54142 150.5 2.64143 150.6 2.64143C150.7 2.64143 150.8 2.64143 150.8 2.64143C150.7 2.84143 150.4 2.64142 150.6 2.84142L150.3 3.04142C150.5 3.14142 150.3 3.24142 150.5 3.24142C150.7 3.14142 150.6 3.04142 150.7 3.04142C150.5 3.34142 150.9 3.24142 151 3.24142C151 3.14142 151 3.14143 150.8 3.14143C150.8 3.04143 151 3.04141 151 2.94141H150.8L151 2.84142L150.8 2.74142C151 2.54142 150.7 2.54142 151 2.54142C150.8 2.44142 150.9 2.34142 150.7 2.34142C150.8 2.14142 150.9 2.34142 150.9 2.24142C150.5 1.94142 150.2 1.54143 149.9 1.14143L150 1.04142C149.9 1.14142 149.8 1.14142 149.8 1.24142C149.8 1.04142 149.8 0.941423 149.7 0.841423C149.6 0.741423 149.5 0.741423 149.3 0.841423L149.4 0.741417C149.3 0.741417 149.2 0.54142 149.2 0.54142C149.1 0.44142 149 0.341423 148.9 0.341423C148.7 0.541423 148.7 0.441423 148.7 0.341423C148.6 0.241423 148.5 0.241414 148.4 0.441414L148.5 0.341423C148.6 0.541423 148.3 0.641423 148.3 0.841423C148.3 0.441423 148.3 0.541417 148.3 0.241417L148.4 0.341423L148.5 0.141426C148.3 0.441426 148.1 0.341417 148 0.241417C147.9 0.141417 147.8 0.0414201 147.8 0.0414201C147.7 -0.0585799 147.6 0.0414262 147.6 0.141426C147.6 0.141426 147.6 0.14142 147.7 0.0414201C147.5 -0.0585799 147.4 0.241423 147.3 0.341423C147.3 0.141423 147.4 0.14142 147.5 0.0414201C147.3 -0.0585799 147.2 0.0414262 147 0.141426C146.8 0.141426 146.7 0.241426 146.5 0.141426C146.5 0.341426 146.6 0.34142 146.5 0.54142C146.4 0.54142 146.3 0.341423 146.4 0.341423C146.3 0.141423 146.1 0.241423 145.9 0.341423C145.7 0.541423 145.6 0.54142 145.3 0.54142C145.2 0.74142 145.4 0.74142 145.2 1.04142C145.2 0.84142 144.9 0.74142 145 0.54142L144.9 0.441414C144.7 0.541414 144.3 0.641426 144.4 1.14143C144.2 0.941426 144.3 1.14142 144.2 1.04142C144.2 1.14142 144.2 1.04142 144.3 1.04142C144.4 1.34142 144.1 1.14142 144.1 1.24142V1.14143C144.1 1.14143 144.1 1.24142 144 1.24142C144 1.34142 144 1.44141 144 1.44141C144 1.44141 143.9 1.44142 143.8 1.34142L144 1.54142C143.9 1.64142 143.8 1.34142 143.7 1.54142L143.9 1.64143C143.7 1.64143 143.8 1.84142 143.7 1.74142C143.4 1.54142 143.5 2.04142 143.4 2.04142L143.7 2.24142C143.7 2.44142 143.5 2.34142 143.5 2.24142C143.4 2.34142 143.3 2.24141 143.3 2.44141C143.3 2.54141 143.4 2.54143 143.5 2.64143L143.3 2.74142L143.1 2.54142C143.3 2.74142 143.3 2.84141 143.1 2.94141C143.1 3.14141 143 3.14142 143.2 3.34142C143.1 3.34142 143 3.14143 143 3.14143C142.9 3.24143 142.9 3.34142 142.9 3.54142C143 3.74142 143 3.84141 142.8 3.94141C142.6 4.14141 142.6 4.24141 142.6 4.44141C142.6 4.64141 142.6 4.84142 142.5 5.04142H142.6L142.5 5.24142C142.7 5.34142 142.7 5.54142 142.9 5.54142C142.8 5.54142 142.7 5.64143 142.7 5.64143C142.8 5.74143 142.9 5.84141 142.8 5.94141L142.7 5.84142C142.7 6.04142 142.7 6.14142 142.7 6.34142C142.8 6.44142 142.9 6.54142 143 6.54142C143 6.64142 142.8 6.74142 142.8 6.74142C142.9 6.94142 143 6.94142 143.1 7.04142C143.1 7.04142 143.1 7.14142 143 7.24142L143.2 7.14143C143.2 7.24143 143 7.24142 143 7.34142C143.2 7.44142 143.2 7.54143 143.2 7.64143C143.3 7.74143 143.3 7.84142 143.4 7.84142L143.5 7.74142C143.6 7.74142 143.6 7.94141 143.4 7.94141C143.5 8.14141 143.6 8.14143 143.8 8.14143C144 8.14143 144.1 8.24142 144.3 8.34142C144.1 8.54142 144.3 8.54142 144.4 8.54142C144.5 8.64142 144.6 8.64142 144.4 8.84142C144.6 8.84142 144.7 9.04141 145 8.94141C144.9 8.94141 144.9 8.94141 144.9 8.94141C144.9 9.14141 145.2 9.14143 145.4 9.14143V9.34142C145.6 9.14142 145.9 9.34142 146 9.04142C146 9.14142 145.9 9.24142 145.9 9.24142C145.9 9.54142 146.1 9.14142 146.2 9.24142C146.1 9.34142 146.1 9.44141 146.1 9.44141C146.3 9.64141 146.6 9.64143 146.8 9.64143C147 9.54143 147.1 9.54142 147.2 9.54142C147.4 9.54142 147.5 9.54142 147.7 9.54142C147.9 9.54142 147.6 9.24142 147.8 9.24142C147.9 9.44142 147.8 9.54143 147.9 9.64143C148 9.44143 148 9.44141 148.1 9.44141C148.1 9.54141 148.1 9.64143 148 9.64143C148.1 9.74143 148.2 9.64142 148.2 9.54142C148.3 9.44142 148.4 9.44142 148.4 9.54142C148.4 9.44142 148.4 9.34142 148.4 9.34142C148.5 9.14142 148.6 9.24142 148.7 9.24142C148.8 9.34142 148.9 9.34142 148.9 9.34142C148.9 9.34142 149 9.24142 148.9 9.24142C149 9.14142 149.1 9.14142 149.1 9.34142C149.1 9.24142 149.1 9.14143 149.1 9.14143L149.2 9.34142C149.2 9.24142 149.2 9.14143 149.2 9.14143H149.1C149.3 9.24143 149.3 8.84143 149.3 9.14143H149.5C149.5 9.04143 149.5 8.94141 149.6 8.94141C149.8 9.14141 149.9 8.74142 150 8.74142L150.1 8.84142C150.1 8.64142 150.3 8.44141 150.3 8.44141C150.4 8.44141 150.5 8.34141 150.5 8.44141C150.5 8.34141 150.7 8.24142 150.5 8.04142H150.7C150.8 8.14142 150.9 8.14143 150.9 8.14143C150.6 7.74143 151.2 7.94143 150.8 7.64143C151 7.54143 151 7.64143 151.1 7.64143C150.9 7.44143 151.1 7.34142 151.2 7.24142H151.3C151.4 7.04142 151.2 6.84143 151.3 6.64143L151.6 6.74142C151.6 6.64142 151.4 6.54141 151.4 6.44141C151.5 6.44141 151.5 6.54142 151.5 6.54142C151.4 6.44142 151.6 6.34142 151.7 6.34142C151.5 6.14142 151.6 6.04142 151.4 5.84142C151.7 5.74142 151.5 6.04142 151.8 6.04142C152 5.84142 151.9 5.64141 151.7 5.44141C151.6 5.04141 151.6 5.14143 151.7 5.14143Z" fill="#E22028"/>
</svg>
