<svg xmlns="http://www.w3.org/2000/svg" width="272.027" height="181" viewBox="0 0 272.027 181"><defs><style>.a,.b{fill:#6c63ff;}.a,.d,.f{opacity:0.1;}.c{fill:#3f3d56;}.e{fill:#fabdbd;}.g{fill:#f86d70;}</style></defs><g transform="translate(-0.013 0.004)"><path class="a" d="M249.7,146.145c-16-.569-31.245-5.734-45.79-11.375s-28.971-11.916-44.591-14.911c-10.047-1.926-21.538-2.2-29.631,3.187-7.792,5.193-10.309,14.132-11.661,22.435-1.019,6.246-1.617,12.819,1.172,18.667,1.939,4.06,5.376,7.473,7.754,11.362,8.276,13.531,2.426,30.217-6.54,43.429-4.2,6.2-9.087,12.116-12.334,18.709s-4.748,14.156-1.906,20.887c2.814,6.676,9.523,11.681,16.79,15.2,14.76,7.156,32.146,9.206,49.111,10.366,37.544,2.569,75.285,1.456,112.927.344,13.931-.413,27.922-.831,41.626-2.985,7.611-1.2,15.467-3.1,20.993-7.678,7.013-5.818,8.751-15.672,4.05-22.967-7.883-12.238-29.673-15.277-35.189-28.412-3.032-7.228.082-15.281,4.49-21.985,9.456-14.381,25.3-27,26.137-43.441.574-11.29-7.045-22.6-18.825-27.942-12.346-5.6-29.47-4.9-38.575,4.374C280.313,142.95,263.827,146.622,249.7,146.145Z" transform="translate(-91.124 -110.048)"/><ellipse class="b" cx="18.103" cy="3.482" rx="18.103" ry="3.482" transform="translate(24.255 174.033)"/><ellipse class="c" cx="2.107" cy="2.76" rx="2.107" ry="2.76" transform="translate(39.947 173.276)"/><ellipse class="c" cx="2.107" cy="2.76" rx="2.107" ry="2.76" transform="translate(39.947 169.904)"/><ellipse class="c" cx="2.107" cy="2.76" rx="2.107" ry="2.76" transform="translate(39.947 166.531)"/><ellipse class="c" cx="2.107" cy="2.76" rx="2.107" ry="2.76" transform="translate(39.947 163.161)"/><ellipse class="c" cx="2.107" cy="2.76" rx="2.107" ry="2.76" transform="translate(39.947 159.788)"/><ellipse class="c" cx="2.107" cy="2.76" rx="2.107" ry="2.76" transform="translate(39.947 156.415)"/><ellipse class="c" cx="2.107" cy="2.76" rx="2.107" ry="2.76" transform="translate(39.947 153.042)"/><path class="b" d="M197.013,571.083a9.992,9.992,0,0,0,.786-1.155l-5.539-.91,5.989.045a10.106,10.106,0,0,0,.193-8l-8.034,4.169,7.418-5.44a10.1,10.1,0,1,0-16.676,11.3A10.19,10.19,0,0,0,180,572.932l7.191,3.734-7.665-2.572a10.091,10.091,0,0,0,1.627,9.48,10.1,10.1,0,1,0,15.87,0,10.1,10.1,0,0,0,0-12.485Z" transform="translate(-147.069 -438.359)"/><path class="d" d="M179,645.549a10.054,10.054,0,0,0,2.161,6.241,10.1,10.1,0,1,0,15.87,0C198.376,650.077,179,644.419,179,645.549Z" transform="translate(-147.077 -506.587)"/><path class="c" d="M575.8,608.523a7.006,7.006,0,0,0,2.517,5.193c1.6,1.167,4.152,1.145,5.376-.423a6.012,6.012,0,0,0,.893-1.941c1.031-3.259,1.763-6.825.633-10.052-2.549-.166-5.5-1.365-7.418.742A8.788,8.788,0,0,0,575.8,608.523Z" transform="translate(-445.738 -473.023)"/><path class="e" d="M583.9,523.323a63.12,63.12,0,0,0-.856,8.635c.022,1.118.141,2.225.143,3.348a16.5,16.5,0,0,1-2.225,8.3,2.785,2.785,0,0,1-.608.786,1.953,1.953,0,0,1-2.127.072,4.184,4.184,0,0,1-1.511-1.639c-1.842-3.155-1.894-6.99-2.624-10.568-.559-2.737-1.538-5.391-1.892-8.16-.23-1.783-.2-3.6-.561-5.361-.111-.532-.423-1.33-.628-2.114a3.178,3.178,0,0,1-.1-1.859c.393-.967,1.682-.591,2.52-.532a58.011,58.011,0,0,0,8.867-.022.762.762,0,0,1,1.026.532,11.992,11.992,0,0,1,.537,1.978A21.974,21.974,0,0,1,583.9,523.323Z" transform="translate(-442.006 -407.76)"/><g class="f" transform="translate(128.813 106.35)"><path d="M604.833,514.473a2.179,2.179,0,0,0-.457,0c-1.414.114-2.831.171-4.246.178Q602.482,514.656,604.833,514.473Z" transform="translate(-592.886 -514.375)"/><path d="M578.745,544.466a4.185,4.185,0,0,1-1.511-1.639c-1.842-3.155-1.894-6.99-2.624-10.568-.559-2.737-1.538-5.391-1.892-8.16-.23-1.783-.2-3.6-.561-5.361-.111-.532-.423-1.33-.628-2.114a3.179,3.179,0,0,1-.1-1.859,1.054,1.054,0,0,1,.989-.643c-.626-.042-1.236.032-1.484.643a3.179,3.179,0,0,0,.1,1.859c.205.784.517,1.583.628,2.114.366,1.761.331,3.578.561,5.361.354,2.772,1.333,5.425,1.892,8.16.729,3.578.781,7.418,2.624,10.568a4.184,4.184,0,0,0,1.511,1.639,2.2,2.2,0,0,0,1.3.262A2.279,2.279,0,0,1,578.745,544.466Z" transform="translate(-570.833 -514.111)"/></g><path class="e" d="M632.594,523.667a16.674,16.674,0,0,0-1.236,7.171c.247,9.891-3.709,30.662-3.709,30.662h-3.462s-.495-23,0-24.975-.247-8.9-.989-18.545a49.5,49.5,0,0,1,1.756-16.52c.277-.989.47-1.531.47-1.531s5.687-8.407,8.9-4.451c.742.92,1.135,2.777,1.271,5.121C636.036,508.333,633.732,521.389,632.594,523.667Z" transform="translate(-481.348 -392.938)"/><path class="d" d="M647.249,500.6c-.136-2.344-.524-4.2-1.271-5.121a2.547,2.547,0,0,0-2.428-1.031,2.636,2.636,0,0,1,1.686,1.031c.742.92,1.135,2.777,1.271,5.121.44,7.735-1.864,20.791-3,23.068a16.674,16.674,0,0,0-1.236,7.171c.247,9.891-3.709,30.662-3.709,30.662h.742s3.956-20.771,3.709-30.662a16.673,16.673,0,0,1,1.236-7.171C645.385,521.395,647.689,508.339,647.249,500.6Z" transform="translate(-493 -392.944)"/><path class="c" d="M617.677,753.707a3.216,3.216,0,0,0-.707.771c-.443.836.185,1.835.858,2.5s1.484,1.377,1.484,2.324a2.318,2.318,0,0,1-1.222,1.82c-.346.218-.781.495-.71.905a.85.85,0,0,0,.131.289,3.828,3.828,0,0,0,2.53,1.533,11.408,11.408,0,0,0,3.031.025.611.611,0,0,0,.416-.143.564.564,0,0,0,.111-.341,4.441,4.441,0,0,1,.247-1.55c.321-.645,1.061-.974,1.484-1.553a3.451,3.451,0,0,0,.287-2.854,11.77,11.77,0,0,0-3.247-5.935C620.456,749.833,618.955,752.5,617.677,753.707Z" transform="translate(-476.637 -586.049)"/><path class="c" d="M419.61,220.576a6.4,6.4,0,0,0-.388-7,11.958,11.958,0,0,0-6.011-4.176,16.921,16.921,0,0,0-9.861-.663c-2.577.67-4.891,2.072-7.319,3.155a31.475,31.475,0,0,1-13.669,2.72c-5.22-.146-10.939-1.484-15.319,1.37-8.017,5.215-4.451,19.408-12.035,25.222-2.045,1.568-4.619,2.253-6.894,3.462s-4.431,3.313-4.377,5.89a6.853,6.853,0,0,0,1.236,3.462,16.02,16.02,0,0,0,13.484,7.245,17.17,17.17,0,0,0,13.588-7.24,10.615,10.615,0,0,1,2.562-3.032c2.225-1.459,5.158-.438,7.814-.22a12.67,12.67,0,0,0,13-9.78c.495-2.485.408-5.455,2.408-7.015,1.615-1.259,3.887-.989,5.935-1.2a12.138,12.138,0,0,0,8.731-5.766c.932-1.4,1.041-3.066,2.312-4.167C416.181,221.632,418.3,222.525,419.61,220.576Z" transform="translate(-271.078 -177.556)"/><g class="f" transform="translate(86.256 30.719)"><path d="M456.726,232.983a31.346,31.346,0,0,0,6.471-.495c-.589.017-1.182.017-1.773,0-4.1-.114-8.5-.959-12.324.059C451.622,232.573,454.231,232.914,456.726,232.983Z" transform="translate(-436.645 -226.167)"/><path d="M411.052,380.651a10.614,10.614,0,0,0-2.562,3.032,17.371,17.371,0,0,1-9.76,6.728c.289.012.579.02.87.017a17.163,17.163,0,0,0,13.588-7.24,10.616,10.616,0,0,1,2.562-3.032l.193-.119C414.2,379.8,412.483,379.714,411.052,380.651Z" transform="translate(-398.73 -337.44)"/><path d="M591.229,213.548a12.007,12.007,0,0,0-6.011-4.176,16.921,16.921,0,0,0-9.861-.663c-.074.017-.146.04-.218.059a18.93,18.93,0,0,1,5.381,1.1,12.008,12.008,0,0,1,6.011,4.176,6.4,6.4,0,0,1,.388,7c-1.311,1.956-3.43,1.063-4.817,2.267-1.271,1.1-1.38,2.769-2.312,4.167a12.715,12.715,0,0,1-7.21,5.489c1.041-.124,2.139-.109,3.177-.218a12.138,12.138,0,0,0,8.731-5.766c.932-1.4,1.041-3.066,2.312-4.167,1.387-1.2,3.506-.312,4.817-2.268A6.389,6.389,0,0,0,591.229,213.548Z" transform="translate(-529.592 -208.252)"/><path d="M514.923,309.22c-2.035.213-4.307-.054-5.935,1.2-2,1.56-1.9,4.53-2.408,7.015A12.7,12.7,0,0,1,498,326.7l.294.027a12.67,12.67,0,0,0,13-9.78c.495-2.485.408-5.455,2.409-7.015a4.464,4.464,0,0,1,1.536-.742C515.131,309.192,515.03,309.21,514.923,309.22Z" transform="translate(-473.453 -284.231)"/></g><path class="e" d="M532.521,166.448s-5.935,11.869-7.913,16.32-20.029,11.127-22.5,11.375a3.185,3.185,0,0,0-1.766.851,9.726,9.726,0,0,0-2.191,3.353s.989,6.676-.247,17.8c-.025.215-.047.43-.067.638-1.078,10.588,1.18,13.086,1.18,13.086s-23.986,9.149-23.244-2.72a53.79,53.79,0,0,0-.032-8.749,36.739,36.739,0,0,0-1.419-6.889c-.586-2.05-1.286-4.3-2.01-7.359a32.277,32.277,0,0,0-1.375-4.488c-.017-.045-.035-.089-.049-.131-1.236-3.069-2.473-4.06-3.18-4.382a10.689,10.689,0,0,1-1.9-1.068,99.884,99.884,0,0,1-11.555-9.713c-5.935-5.935-11.869-20.029-11.869-20.029s-1.731-8.16,2.225-14.836,2.225,13.105,2.225,13.105,7.171,9.644,8.9,14.095a7.437,7.437,0,0,0,3.462,4.07,41.046,41.046,0,0,1,5.475,3.422,31.97,31.97,0,0,0,3.682,2.4c2.764,1.484,6.075,3.158,8.835,3.6a8.33,8.33,0,0,0,1.3.111,1.35,1.35,0,0,0,1.088-.495c.742-.873.724-2.752.554-4.3a21.839,21.839,0,0,0-.406-2.381s8.036-5.069,7.789,1.113a6.908,6.908,0,0,0,.188,2.033,3.524,3.524,0,0,0,2.4,2.621,5.935,5.935,0,0,0,2.967.1,2.9,2.9,0,0,0,.875-.3,59.845,59.845,0,0,1,10.385-2.967c2.225-.247,13.353-5.687,13.353-5.687L529.8,163.236s-.247-9.891,4.7-13.847S532.521,166.448,532.521,166.448Z" transform="translate(-345.049 -132.28)"/><g class="f" transform="translate(96.953 17.672)"><path d="M666.911,387.435a49.3,49.3,0,0,0-.284,5.984c.025-1.306.111-2.8.284-4.5.02-.208.042-.423.067-.638a97,97,0,0,0,.618-11.471,99.353,99.353,0,0,1-.618,9.987C666.963,387.012,666.931,387.228,666.911,387.435Z" transform="translate(-611.076 -322.083)"/><path d="M594.847,289.07c-.166.1-.247.156-.247.156a21.184,21.184,0,0,1,.475,3.215A15.168,15.168,0,0,0,594.847,289.07Z" transform="translate(-556.863 -256.039)"/><path d="M461.684,178.154c.121-1.731.3-4.834.267-7.594-.042,3.689-.371,7.453-.371,7.453Z" transform="translate(-456.736 -166.834)"/><path d="M578.526,466.53a1.621,1.621,0,0,1-.017.289c-.742,11.869,23.244,2.72,23.244,2.72a4.026,4.026,0,0,1-.626-1.256C597.514,469.569,579.359,475.548,578.526,466.53Z" transform="translate(-544.738 -389.618)"/><path d="M703.431,170.5s-5.935,11.869-7.913,16.32-20.029,11.127-22.5,11.375a3.185,3.185,0,0,0-1.766.851,9.725,9.725,0,0,0-2.191,3.353s.059.4.131,1.17a9.191,9.191,0,0,1,2.06-3.039,3.185,3.185,0,0,1,1.766-.851c2.473-.247,20.524-6.924,22.5-11.375s7.913-16.32,7.913-16.32,4.181-12.7,3.721-16.5C706.772,160.356,703.431,170.5,703.431,170.5Z" transform="translate(-612.912 -155.49)"/><path d="M475.728,250.784a36.737,36.737,0,0,0-1.419-6.889c-.586-2.05-1.286-4.3-2.01-7.359a32.282,32.282,0,0,0-1.375-4.488c-.017-.044-.035-.089-.049-.131-1.236-3.069-2.473-4.06-3.18-4.382a10.693,10.693,0,0,1-1.9-1.068,99.888,99.888,0,0,1-11.555-9.713c-5.935-5.935-11.869-20.029-11.869-20.029A22.365,22.365,0,0,1,442,193.12a23.84,23.84,0,0,0,.366,5.089S448.3,212.3,454.24,218.238a99.88,99.88,0,0,0,11.555,9.713,10.687,10.687,0,0,0,1.914,1.068c.7.321,1.939,1.313,3.18,4.382.015.042.032.087.049.131a32.273,32.273,0,0,1,1.367,4.488c.725,3.061,1.424,5.309,2.01,7.359a36.737,36.737,0,0,1,1.419,6.889c.1,1.034.166,2.159.183,3.425A43.073,43.073,0,0,0,475.728,250.784Z" transform="translate(-441.989 -183.815)"/></g><path class="b" d="M587.993,330.362a14.727,14.727,0,0,0-.989,1.949,11.77,11.77,0,0,0-.445,3.269,26.243,26.243,0,0,1-.7,4.579,5.062,5.062,0,0,1-.247.811,2.143,2.143,0,0,1-.289.495,2.11,2.11,0,0,1-.46.418,5.392,5.392,0,0,1-.838.457c-3.442,1.607-7.2,3.027-10.952,2.473a15.937,15.937,0,0,1-4.557-1.533c-1.36-.66-2.9-1.444-4.307-.9h0a2.168,2.168,0,0,1-.69.215.657.657,0,0,1-.138-.012c-.465-.089-.465-1.657-.571-2.119-.406-1.775-.467-3.215-.71-4.758a15.616,15.616,0,0,0-.6-2.515,29.694,29.694,0,0,1-1.288-9.317c0-.156-1.113,0-1.484-.015-.094,0-.146-.015-.124-.047a.5.5,0,0,1,.074-.084,1.13,1.13,0,0,1,.443-.22l.292-.087c1.528-.433,3.215-.613,4.357-1.689a5.826,5.826,0,0,0,1.432-4.505,26.812,26.812,0,0,1-.228-2.839,8.331,8.331,0,0,0,1.3.111,1.35,1.35,0,0,0,1.088-.495,19.519,19.519,0,0,1,1.068,2.473,17.091,17.091,0,0,0,1.358,3.056,5.176,5.176,0,0,0,4.629,2.371,4.3,4.3,0,0,0,3.828-3.338c.284-1.57-.376-3.83-.361-5.462a5.935,5.935,0,0,0,2.967.1,2.668,2.668,0,0,1,.106.309c.556,1.909,1.3,4.1,3.165,4.777,1.207.435,2.633.109,3.749.742a2.4,2.4,0,0,1,.247.163,2.736,2.736,0,0,1,.655.695,5.586,5.586,0,0,1,.794,2.492A13.828,13.828,0,0,1,587.993,330.362Z" transform="translate(-432.812 -256.462)"/><path class="d" d="M602.537,286.89a8.427,8.427,0,0,1-7.571-.764,21.845,21.845,0,0,0-.406-2.381s8.036-5.069,7.789,1.113A6.908,6.908,0,0,0,602.537,286.89Z" transform="translate(-459.88 -232.886)"/><circle class="e" cx="8.407" cy="8.407" r="8.407" transform="translate(131.215 37.259)"/><path class="g" d="M555.06,339.8s16.32-10.385,67.011.742,80.117,2.225,80.117,2.225v11.622s-56.873,6.182-78.633,0-52.736-9.747-63.584-.176Z" transform="translate(-430.148 -273.234)"/><path class="d" d="M555.06,339.8s16.32-10.385,67.011.742,80.117,2.225,80.117,2.225v11.622s-56.873,6.182-78.633,0-52.736-9.747-63.584-.176Z" transform="translate(-430.148 -273.234)"/><path class="g" d="M557.06,341.8s15.826-10.385,66.517.742,79.622,2.225,79.622,2.225l.247,10.633s-56.378,6.182-78.138,0-52.489-10.489-63.337-.917Z" transform="translate(-431.653 -274.74)"/><path class="g" d="M182.17,367.026s-16.32,10.385-67.011-.742-48.218-2.225-48.218-2.225V352.436s24.975-6.182,46.735,0,52.736,9.747,63.584.176Z" transform="translate(-62.712 -283.996)"/><path class="d" d="M182.17,367.026s-16.32,10.385-67.011-.742-48.218-2.225-48.218-2.225V352.436s24.975-6.182,46.735,0,52.736,9.747,63.584.176Z" transform="translate(-62.712 -283.996)"/><path class="g" d="M182.488,368.036s-15.825,10.385-66.517-.742-47.724-2.225-47.724-2.225L68,354.436s24.48-6.182,46.24,0,52.489,10.489,63.337.917Z" transform="translate(-63.525 -285.502)"/><path class="c" d="M561.279,233.047c-.247-1.543-.628-3.487.663-4.369a2.745,2.745,0,0,1,1.531-.4c2.673-.027,5.227,1.835,7.848,1.291a4.424,4.424,0,0,0,1.731-7.881,8.888,8.888,0,0,0-3.6-1.3c-3.316-.682-6.778-1.362-10.052-.495s-6.266,3.8-6,7.171a10.129,10.129,0,0,0,1.8,4.451c.653,1.043,3.195,5.935,4.429,6.009C561.373,237.626,561.45,234.056,561.279,233.047Z" transform="translate(-428.887 -185.988)"/><path class="b" d="M594.617,461.7s-17.062,4.2-22.749,0c0,0-2.473,9.644-1.731,14.589,0,0,12.116.742,13.353,1.484,0,0,.247-1.978,1.484-.989,0,0,4.2-4.945,11.869-.495C596.843,476.289,598.327,464.667,594.617,461.7Z" transform="translate(-441.392 -368.31)"/><path class="d" d="M588.236,227.356a4.905,4.905,0,0,0-.551-.346,4.414,4.414,0,0,1-2.421,7.238c-2.621.544-5.175-1.318-7.848-1.291a2.745,2.745,0,0,0-1.531.4c-1.291.883-.912,2.826-.665,4.369.163,1.009.1,4.579-1.639,4.483h-.03c.477.581.922.974,1.266.989,1.731.1,1.8-3.462,1.639-4.483-.247-1.543-.626-3.487.665-4.369a2.745,2.745,0,0,1,1.531-.4c2.673-.027,5.227,1.835,7.849,1.291a4.424,4.424,0,0,0,1.731-7.881Z" transform="translate(-444.066 -191.653)"/><g class="f" transform="translate(0.013 21.808)"><path class="b" d="M71.3,174.366s-18.489-7.774-20.912,6.246a3.409,3.409,0,0,0,.495,3.989s.378-.967,2.166.035a9.3,9.3,0,0,0,2.018.818,4.54,4.54,0,0,0,2.873-.153h0s6.08-.329,11.194-8.284c0,0,2.191-1.355,2.3-1.862l-3.665.247a6.1,6.1,0,0,1-1.236,4.293s1.348-4.162.7-4.28c-.131-.025-1.936.215-1.936.215s.467,4.664-1.978,7.077c0,0,2.27-4.745,1.281-6.993l-2.7.522s.742,4.906-1.934,7.762c0,0,2.2-5.044,1.35-7.609l-2.591.87s.626,4.8-1.612,7.171c0,0,1.953-6.085,1.034-6.924a13.543,13.543,0,0,0-2.829,1.484s.371,3.462-1.053,4.7c0,0,.875-4.2.443-4.377,0,0-2.708,2.038-3.531,3.8a10.265,10.265,0,0,1,3.19-4.2,5.693,5.693,0,0,0-3.215.453s.937-1.783,3.87-.937a12.856,12.856,0,0,1,2.609-1.484,12.505,12.505,0,0,0-4.78-1.086s2.149-1.236,5.46.831l2.582-.935s-3.583-1.837-5.381-1.83c0,0,2.389-.922,6.053,1.649l2.643-.542a21.039,21.039,0,0,0-4.968-2.24s2.4-.378,5.732,2.117l1.81-.153s-2.191-1.288-2.854-1.6-.633-.519-.633-.519a8.63,8.63,0,0,1,4.246,2.042S71.287,174.6,71.3,174.366Z" transform="translate(-49.953 -172.217)"/></g><g class="f" transform="translate(2.722 -0.004)"><path class="b" d="M78.869,94.032s-6.563-15.15-15.981-8.2a2.8,2.8,0,0,0-1.978,2.646s.776-.359,1.266,1.254a7.762,7.762,0,0,0,.742,1.637A3.709,3.709,0,0,0,64.7,92.907h0s3.8,3.269,11.375,1.456c0,0,2.075.445,2.431.205l-2.317-1.944A4.987,4.987,0,0,1,73,94.464s3.173-1.706,2.854-2.146c-.064-.089-1.271-.974-1.271-.974S72.2,94.38,69.389,94.427c0,0,4.053-1.528,4.745-3.425l-1.9-1.236s-2.359,3.336-5.571,3.509c0,0,4.179-1.731,5.136-3.749l-2.035-.959S67.4,91.782,64.725,91.9c0,0,4.626-2.5,4.555-3.524a10.745,10.745,0,0,0-2.53-.722S65,89.92,63.442,89.855c0,0,2.915-2,2.755-2.349a11.58,11.58,0,0,0-4.261.247,8.438,8.438,0,0,1,4.29-.678,4.635,4.635,0,0,0-2.161-1.558s1.573-.527,2.834,1.647a10.724,10.724,0,0,1,2.4.6A10.113,10.113,0,0,0,67.069,84.4s1.978.495,2.769,3.6l2.065.917s-1.081-3.133-2.166-4.149c0,0,1.946.811,2.658,4.426l1.877,1.184A17.238,17.238,0,0,0,72.6,86.23s1.642,1.14,2.2,4.52l1.162.94s-.569-2.013-.784-2.577-.079-.668-.079-.668a7.124,7.124,0,0,1,1.358,3.632A17.5,17.5,0,0,0,78.869,94.032Z" transform="translate(-60.91 -84.006)"/></g></g></svg>